<?xml version="1.0" standalone="no"?><!DOCTYPE svg PUBLIC "-//W3C//DTD SVG 1.1//EN" "http://www.w3.org/Graphics/SVG/1.1/DTD/svg11.dtd"><svg t="1652685909994" class="icon" viewBox="0 0 1024 1024" version="1.1" xmlns="http://www.w3.org/2000/svg" p-id="20907" xmlns:xlink="http://www.w3.org/1999/xlink" width="200" height="200"><defs><style type="text/css"></style></defs><path d="M1011.820777 720.667918L966.511805 765.785444l-127.630907-63.815453-19.144636 45.564233A186.787833 186.787833 0 0 1 838.880898 829.600898a192.914116 192.914116 0 1 1-109.124426-172.301725l191.446361-191.893069 90.617944 90.235051L928.860688 638.154537zM647.434537 765.785444a63.815454 63.815454 0 1 0 63.815454 63.815454 63.815454 63.815454 0 0 0-63.815454-63.815454zM519.803629 510.523629a255.261815 255.261815 0 1 1 255.261815-255.261814 255.261815 255.261815 0 0 1-255.261815 255.261814z m0-382.892722a127.630907 127.630907 0 1 0 127.630908 127.630908 127.630907 127.630907 0 0 0-127.630908-127.630908z m202.294989 420.288578l-30.631418 30.822864A321.629887 321.629887 0 0 0 647.434537 574.339083a317.22662 317.22662 0 0 0-198.466061 70.962785C236.463015 679.37932 136.910907 798.458957 136.910907 1021.047259H9.28c0-317.22662 193.360825-510.523629 510.523629-510.52363a570.765418 570.765418 0 0 1 202.294989 37.395856z" p-id="20908"></path></svg>