<?xml version="1.0" standalone="no"?><!DOCTYPE svg PUBLIC "-//W3C//DTD SVG 1.1//EN" "http://www.w3.org/Graphics/SVG/1.1/DTD/svg11.dtd"><svg t="1653530110068" class="icon" viewBox="0 0 1024 1024" version="1.1" xmlns="http://www.w3.org/2000/svg" p-id="6817" xmlns:xlink="http://www.w3.org/1999/xlink" width="200" height="200"><defs><style type="text/css"></style></defs><path d="M682.666667 750.933333h-68.266667v68.266667h68.266667v-68.266667z m0-136.533333h-68.266667v68.266667h68.266667v-68.266667z m-136.533334 0h-68.266666v68.266667h68.266666v-68.266667z m-136.533333 0h-68.266667v68.266667h68.266667v-68.266667zM819.2 238.933333V68.266667H204.8v170.666666H170.666667v136.533334h34.133333v580.266666h614.4V375.466667h34.133333V238.933333h-34.133333z m-68.266667 648.533334H273.066667V546.133333h477.866666v341.333334z m0-409.6H273.066667V136.533333h477.866666v341.333334z m-341.333333 273.066666h-68.266667v68.266667h68.266667v-68.266667z m136.533333 0h-68.266666v68.266667h68.266666v-68.266667z" p-id="6818"></path></svg>