<?xml version="1.0" standalone="no"?><!DOCTYPE svg PUBLIC "-//W3C//DTD SVG 1.1//EN" "http://www.w3.org/Graphics/SVG/1.1/DTD/svg11.dtd"><svg t="1653549478614" class="icon" viewBox="0 0 1024 1024" version="1.1" xmlns="http://www.w3.org/2000/svg" p-id="10948" xmlns:xlink="http://www.w3.org/1999/xlink" width="200" height="200"><defs><style type="text/css"></style></defs><path d="M906.07 902.78H117.93V554.39h180.81a24 24 0 0 1 0 48H165.93v252.39h692.14V602.39H720.92a24 24 0 0 1 0-48h185.15z" p-id="10949"></path><path d="M512 691l-16.74-16.29c-2-1.91-48.77-47.69-96.14-114.74-28-39.66-50.41-78.58-66.54-115.67-20.66-47.53-31.14-92.39-31.14-133.35 0-116.1 94.46-210.55 210.56-210.55S722.56 194.86 722.56 311c0 41-10.48 85.82-31.14 133.35-16.13 37.09-38.52 76-66.54 115.67-47.37 67-94.17 112.83-96.14 114.74z m0-542.6c-89.63 0-162.56 72.92-162.56 162.55 0 124.64 118 263.83 162.56 311.93C556.54 574.79 674.56 435.6 674.56 311c0-89.67-72.93-162.59-162.56-162.59z" p-id="10950"></path><path d="M512 400.15a86.57 86.57 0 1 1 86.56-86.56A86.66 86.66 0 0 1 512 400.15zM512 275a38.57 38.57 0 1 0 38.56 38.57A38.61 38.61 0 0 0 512 275z" p-id="10951"></path></svg>