<?xml version="1.0" encoding="UTF-8"?>
<svg xmlns="http://www.w3.org/2000/svg" xmlns:xlink="http://www.w3.org/1999/xlink" width="24px" height="24px" viewBox="0 0 24 24" version="1.1">
<g id="surface1">
<path style=" stroke:none;fill-rule:nonzero;fill:rgb(0%,0%,0%);fill-opacity:1;" d="M 23.714844 16.890625 L 22.652344 17.949219 L 19.660156 16.453125 L 19.210938 17.519531 C 19.507812 18.117188 19.660156 18.777344 19.660156 19.445312 C 19.675781 21.460938 18.351562 23.246094 16.414062 23.816406 C 14.480469 24.386719 12.398438 23.601562 11.320312 21.898438 C 10.238281 20.191406 10.421875 17.976562 11.765625 16.46875 C 13.105469 14.964844 15.285156 14.527344 17.105469 15.40625 L 21.589844 10.90625 L 23.714844 13.023438 L 21.769531 14.957031 Z M 15.175781 17.949219 C 14.347656 17.949219 13.679688 18.617188 13.679688 19.445312 C 13.679688 20.269531 14.347656 20.9375 15.175781 20.9375 C 16 20.9375 16.667969 20.269531 16.667969 19.445312 C 16.667969 18.617188 16 17.949219 15.175781 17.949219 Z M 12.183594 11.964844 C 8.878906 11.964844 6.199219 9.285156 6.199219 5.984375 C 6.199219 2.679688 8.878906 0 12.183594 0 C 15.488281 0 18.164062 2.679688 18.164062 5.984375 C 18.164062 9.285156 15.488281 11.964844 12.183594 11.964844 Z M 12.183594 2.992188 C 10.53125 2.992188 9.191406 4.332031 9.191406 5.984375 C 9.191406 7.636719 10.53125 8.972656 12.183594 8.972656 C 13.835938 8.972656 15.175781 7.636719 15.175781 5.984375 C 15.175781 4.332031 13.835938 2.992188 12.183594 2.992188 Z M 16.925781 12.84375 L 16.207031 13.5625 C 15.863281 13.507812 15.519531 13.472656 15.175781 13.460938 C 13.480469 13.46875 11.839844 14.054688 10.523438 15.125 C 5.542969 15.921875 3.207031 18.714844 3.207031 23.929688 L 0.21875 23.929688 C 0.21875 16.496094 4.75 11.964844 12.183594 11.964844 C 13.804688 11.96875 15.410156 12.265625 16.925781 12.84375 Z M 16.925781 12.84375 "/>
</g>
</svg>
