<?xml version="1.0" encoding="UTF-8"?>
<svg xmlns="http://www.w3.org/2000/svg" xmlns:xlink="http://www.w3.org/1999/xlink" width="24px" height="24px" viewBox="0 0 24 24" version="1.1">
<g id="surface1">
<path style=" stroke:none;fill-rule:nonzero;fill:rgb(0%,0%,0%);fill-opacity:0.901961;" d="M 10.5 6 L 13.5 6 L 13.5 3 L 10.5 3 Z M 15 3 L 15 6 L 19.5 6 C 20.328125 6 21 6.671875 21 7.5 L 21 10.5 C 21 11.246094 20.449219 11.878906 19.710938 11.984375 L 20.753906 19.289062 C 20.816406 19.71875 20.6875 20.15625 20.402344 20.484375 C 20.117188 20.8125 19.707031 21 19.269531 21 L 4.730469 21 C 4.292969 21 3.882812 20.8125 3.597656 20.484375 C 3.3125 20.15625 3.183594 19.71875 3.246094 19.289062 L 4.289062 11.984375 C 3.550781 11.878906 3 11.246094 3 10.5 L 3 7.5 C 3 6.671875 3.671875 6 4.5 6 L 9 6 L 9 3 C 9 2.171875 9.671875 1.5 10.5 1.5 L 13.5 1.5 C 14.328125 1.5 15 2.171875 15 3 Z M 18.199219 10.5 L 19.5 10.5 L 19.5 7.5 L 4.5 7.5 L 4.5 10.5 Z M 18.199219 12 L 5.800781 12 L 4.730469 19.5 L 7.5 19.5 L 7.5 16.5 L 9 16.5 L 9 19.5 L 11.25 19.5 L 11.25 16.5 L 12.75 16.5 L 12.75 19.5 L 15 19.5 L 15 16.5 L 16.5 16.5 L 16.5 19.5 L 19.269531 19.5 Z M 18.199219 12 "/>
</g>
</svg>
