<?xml version="1.0" encoding="UTF-8"?>
<svg xmlns="http://www.w3.org/2000/svg" xmlns:xlink="http://www.w3.org/1999/xlink" width="24px" height="24px" viewBox="0 0 24 24" version="1.1">
<g id="surface1">
<path style=" stroke:none;fill-rule:nonzero;fill:rgb(0%,0%,0%);fill-opacity:1;" d="M 5.40625 19.25 L 1.195312 19.25 C 0.757812 19.25 0.402344 18.894531 0.398438 18.457031 L 0.398438 9.246094 C 0.402344 8.808594 0.757812 8.453125 1.195312 8.453125 L 5.40625 8.453125 C 5.84375 8.453125 6.199219 8.808594 6.199219 9.246094 L 6.199219 18.457031 C 6.199219 18.894531 5.84375 19.25 5.40625 19.25 Z M 1.199219 18.453125 L 5.398438 18.453125 L 5.398438 9.25 L 1.199219 9.25 Z M 14.222656 19.25 L 9.996094 19.25 C 9.5625 19.25 9.210938 18.898438 9.210938 18.464844 L 9.210938 2.238281 C 9.210938 1.804688 9.5625 1.453125 9.996094 1.453125 L 14.222656 1.453125 C 14.65625 1.453125 15.007812 1.804688 15.011719 2.238281 L 15.011719 18.464844 C 15.007812 18.898438 14.65625 19.25 14.222656 19.25 Z M 10.011719 18.453125 L 14.210938 18.453125 L 14.210938 2.25 L 10.011719 2.25 Z M 22.8125 19.25 L 18.589844 19.25 C 18.152344 19.25 17.800781 18.898438 17.800781 18.460938 L 17.800781 5.640625 C 17.800781 5.203125 18.152344 4.851562 18.589844 4.851562 L 22.8125 4.851562 C 23.246094 4.851562 23.597656 5.203125 23.601562 5.640625 L 23.601562 18.460938 C 23.597656 18.898438 23.246094 19.25 22.8125 19.25 Z M 18.601562 18.453125 L 22.800781 18.453125 L 22.800781 5.652344 L 18.601562 5.652344 Z M 23.601562 22.769531 L 0.398438 22.769531 C 0.179688 22.769531 0 22.589844 0 22.367188 C 0 22.148438 0.179688 21.96875 0.398438 21.96875 L 23.601562 21.96875 C 23.820312 21.96875 24 22.148438 24 22.367188 C 24 22.589844 23.820312 22.769531 23.601562 22.769531 Z M 23.601562 22.769531 "/>
</g>
</svg>
