<?xml version="1.0" encoding="UTF-8"?>
<svg xmlns="http://www.w3.org/2000/svg" xmlns:xlink="http://www.w3.org/1999/xlink" width="24px" height="24px" viewBox="0 0 24 24" version="1.1">
<g id="surface1">
<path style=" stroke:none;fill-rule:nonzero;fill:rgb(0%,0%,0%);fill-opacity:1;" d="M 15.882812 6.90625 C 16.332031 8.253906 16.929688 9.300781 17.980469 10.351562 C 18.878906 9.453125 19.476562 8.253906 19.925781 6.90625 Z M 6.003906 14.398438 L 9.894531 14.398438 L 7.949219 9.152344 Z M 6.003906 14.398438 "/>
<path style=" stroke:none;fill-rule:nonzero;fill:rgb(0%,0%,0%);fill-opacity:1;" d="M 20.972656 0.0117188 L 3.007812 0.0117188 C 1.363281 0.0117188 0.015625 1.359375 0.015625 3.007812 L 0.015625 20.992188 C 0.015625 22.640625 1.363281 23.988281 3.007812 23.988281 L 20.972656 23.988281 C 22.621094 23.988281 23.96875 22.640625 23.96875 20.992188 L 23.96875 3.007812 C 23.96875 1.359375 22.769531 0.0117188 20.972656 0.0117188 Z M 13.636719 19.34375 C 13.339844 19.640625 13.039062 19.640625 12.738281 19.640625 C 12.589844 19.640625 12.289062 19.640625 12.140625 19.492188 C 11.992188 19.34375 11.839844 19.492188 11.839844 19.34375 C 11.839844 19.191406 11.691406 19.042969 11.542969 18.742188 C 11.390625 18.445312 11.390625 18.292969 11.242188 17.992188 L 10.644531 16.347656 L 5.402344 16.347656 L 4.804688 17.992188 C 4.503906 18.59375 4.355469 19.042969 4.207031 19.34375 C 4.054688 19.640625 3.757812 19.640625 3.308594 19.640625 C 3.007812 19.640625 2.707031 19.492188 2.410156 19.34375 C 2.109375 19.042969 1.960938 18.894531 1.960938 18.59375 C 1.960938 18.445312 1.960938 18.292969 2.109375 17.992188 C 2.261719 17.695312 2.261719 17.542969 2.410156 17.246094 L 5.703125 8.851562 C 5.851562 8.554688 5.851562 8.253906 6.003906 7.953125 C 6.152344 7.652344 6.300781 7.355469 6.453125 7.203125 C 6.601562 7.054688 6.75 6.753906 7.050781 6.605469 C 7.351562 6.457031 7.648438 6.457031 7.949219 6.457031 C 8.25 6.457031 8.546875 6.457031 8.847656 6.605469 C 9.144531 6.753906 9.296875 6.90625 9.445312 7.203125 C 9.59375 7.355469 9.746094 7.652344 9.894531 7.953125 C 10.042969 8.253906 10.195312 8.554688 10.34375 9.003906 L 13.636719 17.246094 C 13.9375 17.84375 14.085938 18.292969 14.085938 18.59375 C 13.9375 18.742188 13.789062 19.042969 13.636719 19.34375 Z M 21.871094 13.5 C 20.226562 12.898438 19.027344 12.148438 17.980469 11.25 C 16.929688 12.300781 15.582031 13.050781 13.9375 13.5 L 13.488281 12.75 C 15.132812 12.300781 16.480469 11.699219 17.53125 10.652344 C 16.480469 9.601562 15.582031 8.253906 15.285156 6.753906 L 13.789062 6.753906 L 13.789062 6.15625 L 17.828125 6.15625 C 17.53125 5.707031 17.230469 5.105469 16.929688 4.65625 L 17.378906 4.507812 C 17.679688 4.957031 18.128906 5.554688 18.429688 6.15625 L 22.171875 6.15625 L 22.171875 6.90625 L 20.671875 6.90625 C 20.226562 8.402344 19.476562 9.753906 18.578125 10.652344 C 19.625 11.550781 20.824219 12.300781 22.46875 12.75 Z M 21.871094 13.5 "/>
</g>
</svg>
