<?xml version="1.0" encoding="UTF-8"?>
<svg xmlns="http://www.w3.org/2000/svg" xmlns:xlink="http://www.w3.org/1999/xlink" width="24px" height="24px" viewBox="0 0 24 24" version="1.1">
<g id="surface1">
<path style=" stroke:none;fill-rule:nonzero;fill:rgb(92.156863%,94.901961%,98.823529%);fill-opacity:1;" d="M 0 4.800781 C 0 7.449219 2.148438 9.601562 4.800781 9.601562 C 7.449219 9.601562 9.601562 7.449219 9.601562 4.800781 C 9.601562 2.148438 7.449219 0 4.800781 0 C 2.148438 0 0 2.148438 0 4.800781 Z M 0 4.800781 "/>
<path style=" stroke:none;fill-rule:nonzero;fill:rgb(70.980392%,82.352941%,95.294118%);fill-opacity:1;" d="M 14.398438 4.800781 C 14.398438 7.449219 16.550781 9.601562 19.199219 9.601562 C 21.851562 9.601562 24 7.449219 24 4.800781 C 24 2.148438 21.851562 0 19.199219 0 C 16.550781 0 14.398438 2.148438 14.398438 4.800781 Z M 14.398438 4.800781 "/>
<path style=" stroke:none;fill-rule:nonzero;fill:rgb(49.803922%,69.019608%,91.764706%);fill-opacity:1;" d="M 14.398438 19.199219 C 14.398438 21.851562 16.550781 24 19.199219 24 C 21.851562 24 24 21.851562 24 19.199219 C 24 16.550781 21.851562 14.398438 19.199219 14.398438 C 16.550781 14.398438 14.398438 16.550781 14.398438 19.199219 Z M 14.398438 19.199219 "/>
<path style=" stroke:none;fill-rule:nonzero;fill:rgb(29.019608%,56.470588%,88.627451%);fill-opacity:1;" d="M 0 19.199219 C 0 21.851562 2.148438 24 4.800781 24 C 7.449219 24 9.601562 21.851562 9.601562 19.199219 C 9.601562 16.550781 7.449219 14.398438 4.800781 14.398438 C 2.148438 14.398438 0 16.550781 0 19.199219 Z M 0 19.199219 "/>
</g>
</svg>
