<?xml version="1.0" encoding="UTF-8"?>
<svg xmlns="http://www.w3.org/2000/svg" xmlns:xlink="http://www.w3.org/1999/xlink" width="24px" height="24px" viewBox="0 0 24 24" version="1.1">
<g id="surface1">
<path style=" stroke:none;fill-rule:nonzero;fill:rgb(0%,0%,0%);fill-opacity:1;" d="M 4 15 L 6 15 L 6 20 L 18 20 L 18 4 L 6 4 L 6 9 L 4 9 L 4 3 C 4 2.449219 4.449219 2 5 2 L 19 2 C 19.550781 2 20 2.449219 20 3 L 20 21 C 20 21.550781 19.550781 22 19 22 L 5 22 C 4.449219 22 4 21.550781 4 21 Z M 10 11 L 10 8 L 15 12 L 10 16 L 10 13 L 2 13 L 2 11 Z M 10 11 "/>
</g>
</svg>
