<?xml version="1.0" encoding="UTF-8"?>
<svg xmlns="http://www.w3.org/2000/svg" xmlns:xlink="http://www.w3.org/1999/xlink" width="24px" height="24px" viewBox="0 0 24 24" version="1.1">
<g id="surface1">
<path style=" stroke:none;fill-rule:nonzero;fill:rgb(13.72549%,9.411765%,8.235294%);fill-opacity:1;" d="M 12 21 C 6.953125 21 2.851562 16.894531 2.851562 11.851562 C 2.851562 8.636719 4.515625 5.714844 7.296875 4.035156 C 7.714844 3.789062 8.257812 3.917969 8.507812 4.335938 C 8.757812 4.753906 8.628906 5.292969 8.207031 5.546875 C 5.957031 6.90625 4.613281 9.261719 4.613281 11.851562 C 4.613281 15.921875 7.925781 19.238281 11.996094 19.238281 C 16.070312 19.238281 19.382812 15.921875 19.382812 11.851562 C 19.382812 9.261719 18.039062 6.90625 15.789062 5.546875 C 15.371094 5.296875 15.238281 4.753906 15.484375 4.335938 C 15.742188 3.917969 16.28125 3.789062 16.695312 4.035156 C 19.480469 5.714844 21.144531 8.636719 21.144531 11.851562 C 21.148438 16.894531 17.046875 21 12 21 Z M 12 21 "/>
<path style=" stroke:none;fill-rule:nonzero;fill:rgb(13.72549%,9.411765%,8.235294%);fill-opacity:1;" d="M 12 12.277344 C 11.511719 12.277344 11.117188 11.886719 11.117188 11.398438 L 11.117188 3.882812 C 11.117188 3.394531 11.511719 3 12 3 C 12.488281 3 12.882812 3.394531 12.882812 3.882812 L 12.882812 11.394531 C 12.882812 11.882812 12.488281 12.277344 12 12.277344 Z M 12 12.277344 "/>
</g>
</svg>
