<?xml version="1.0" encoding="UTF-8"?>
<svg xmlns="http://www.w3.org/2000/svg" xmlns:xlink="http://www.w3.org/1999/xlink" width="24px" height="24px" viewBox="0 0 24 24" version="1.1">
<g id="surface1">
<path style=" stroke:none;fill-rule:nonzero;fill:rgb(0%,0%,0%);fill-opacity:1;" d="M 15.121094 12.464844 C 17.664062 10.742188 18.328125 7.28125 16.601562 4.734375 C 14.878906 2.1875 11.417969 1.527344 8.875 3.253906 C 6.328125 4.976562 5.664062 8.4375 7.390625 10.984375 C 7.785156 11.566406 8.289062 12.070312 8.875 12.464844 C 5.035156 13.585938 2.265625 16.699219 2.265625 20.367188 L 2.265625 21.753906 L 7.828125 21.753906 L 7.828125 20.367188 L 3.65625 20.367188 C 3.65625 16.597656 7.261719 13.523438 11.757812 13.421875 L 12.226562 13.421875 C 13.523438 13.449219 14.800781 13.734375 15.984375 14.265625 L 11.828125 18.414062 L 9.871094 16.449219 L 8.890625 17.433594 L 11.839844 20.386719 L 12.382812 19.84375 L 17.25 14.980469 C 19.117188 16.144531 20.277344 18.171875 20.335938 20.375 L 16.167969 20.375 L 16.167969 21.753906 L 21.734375 21.753906 L 21.734375 20.367188 C 21.734375 16.699219 18.964844 13.585938 15.121094 12.464844 Z M 12 12.019531 C 9.699219 12.019531 7.832031 10.15625 7.832031 7.855469 C 7.832031 5.550781 9.699219 3.6875 12 3.6875 C 14.300781 3.6875 16.167969 5.550781 16.167969 7.855469 C 16.167969 10.15625 14.300781 12.019531 12 12.019531 Z M 12 12.019531 "/>
</g>
</svg>
