<?xml version="1.0" encoding="UTF-8"?>
<svg xmlns="http://www.w3.org/2000/svg" xmlns:xlink="http://www.w3.org/1999/xlink" width="24px" height="24px" viewBox="0 0 24 24" version="1.1">
<g id="surface1">
<path style=" stroke:none;fill-rule:nonzero;fill:rgb(0%,0%,0%);fill-opacity:1;" d="M 21.675781 14.664062 L 20.140625 13.351562 C 20.210938 12.90625 20.25 12.453125 20.25 11.996094 C 20.25 11.542969 20.210938 11.089844 20.140625 10.644531 L 21.675781 9.332031 C 21.910156 9.128906 22 8.800781 21.894531 8.503906 L 21.871094 8.445312 C 21.449219 7.261719 20.820312 6.171875 20.003906 5.210938 L 19.960938 5.164062 C 19.761719 4.925781 19.433594 4.835938 19.140625 4.941406 L 17.234375 5.617188 C 16.53125 5.042969 15.746094 4.585938 14.898438 4.269531 L 14.527344 2.277344 C 14.472656 1.96875 14.230469 1.730469 13.925781 1.671875 L 13.859375 1.660156 C 12.640625 1.441406 11.355469 1.441406 10.132812 1.660156 L 10.070312 1.671875 C 9.765625 1.730469 9.523438 1.96875 9.464844 2.277344 L 9.097656 4.277344 C 8.253906 4.597656 7.472656 5.046875 6.777344 5.621094 L 4.855469 4.941406 C 4.5625 4.835938 4.234375 4.925781 4.035156 5.164062 L 3.992188 5.210938 C 3.175781 6.175781 2.546875 7.261719 2.125 8.445312 L 2.101562 8.503906 C 1.996094 8.796875 2.082031 9.125 2.320312 9.332031 L 3.875 10.65625 C 3.800781 11.097656 3.765625 11.546875 3.765625 11.996094 C 3.765625 12.445312 3.800781 12.894531 3.875 13.332031 L 2.320312 14.660156 C 2.082031 14.863281 1.996094 15.191406 2.101562 15.484375 L 2.125 15.546875 C 2.546875 16.726562 3.175781 17.816406 3.992188 18.777344 L 4.035156 18.828125 C 4.234375 19.0625 4.5625 19.152344 4.855469 19.050781 L 6.777344 18.367188 C 7.472656 18.941406 8.253906 19.398438 9.097656 19.714844 L 9.464844 21.714844 C 9.523438 22.023438 9.765625 22.261719 10.070312 22.316406 L 10.132812 22.328125 C 10.746094 22.4375 11.371094 22.496094 11.996094 22.496094 C 12.625 22.496094 13.25 22.4375 13.859375 22.328125 L 13.925781 22.316406 C 14.230469 22.261719 14.472656 22.023438 14.527344 21.714844 L 14.898438 19.722656 C 15.746094 19.402344 16.53125 18.953125 17.234375 18.371094 L 19.140625 19.050781 C 19.433594 19.152344 19.761719 19.066406 19.960938 18.828125 L 20.003906 18.777344 C 20.820312 17.816406 21.449219 16.726562 21.871094 15.546875 L 21.894531 15.484375 C 22 15.195312 21.910156 14.867188 21.675781 14.664062 Z M 18.476562 10.917969 C 18.535156 11.273438 18.566406 11.636719 18.566406 12 C 18.566406 12.363281 18.535156 12.726562 18.476562 13.082031 L 18.320312 14.019531 L 20.070312 15.519531 C 19.808594 16.128906 19.472656 16.707031 19.074219 17.242188 L 16.898438 16.472656 L 16.164062 17.078125 C 15.601562 17.535156 14.980469 17.898438 14.304688 18.148438 L 13.410156 18.484375 L 12.992188 20.757812 C 12.332031 20.832031 11.660156 20.832031 11 20.757812 L 10.578125 18.480469 L 9.695312 18.140625 C 9.027344 17.886719 8.40625 17.527344 7.847656 17.070312 L 7.113281 16.460938 L 4.925781 17.242188 C 4.527344 16.703125 4.191406 16.125 3.925781 15.515625 L 5.695312 14.003906 L 5.542969 13.066406 C 5.488281 12.71875 5.457031 12.355469 5.457031 12 C 5.457031 11.640625 5.484375 11.28125 5.542969 10.933594 L 5.695312 9.996094 L 3.925781 8.484375 C 4.191406 7.871094 4.527344 7.296875 4.925781 6.757812 L 7.113281 7.539062 L 7.847656 6.929688 C 8.40625 6.472656 9.027344 6.113281 9.695312 5.859375 L 10.582031 5.523438 L 11 3.246094 C 11.660156 3.171875 12.332031 3.171875 12.992188 3.246094 L 13.414062 5.519531 L 14.304688 5.855469 C 14.980469 6.109375 15.605469 6.46875 16.164062 6.929688 L 16.902344 7.53125 L 19.074219 6.761719 C 19.472656 7.296875 19.808594 7.878906 20.074219 8.488281 L 18.324219 9.984375 Z M 18.476562 10.917969 "/>
<path style=" stroke:none;fill-rule:nonzero;fill:rgb(0%,0%,0%);fill-opacity:1;" d="M 12 7.640625 C 9.722656 7.640625 7.875 9.488281 7.875 11.765625 C 7.875 14.042969 9.722656 15.890625 12 15.890625 C 14.277344 15.890625 16.125 14.042969 16.125 11.765625 C 16.125 9.488281 14.277344 7.640625 12 7.640625 Z M 13.855469 13.621094 C 13.359375 14.117188 12.699219 14.390625 12 14.390625 C 11.300781 14.390625 10.640625 14.117188 10.144531 13.621094 C 9.648438 13.125 9.375 12.464844 9.375 11.765625 C 9.375 11.066406 9.648438 10.40625 10.144531 9.910156 C 10.640625 9.414062 11.300781 9.140625 12 9.140625 C 12.699219 9.140625 13.359375 9.414062 13.855469 9.910156 C 14.351562 10.40625 14.625 11.066406 14.625 11.765625 C 14.625 12.464844 14.351562 13.125 13.855469 13.621094 Z M 13.855469 13.621094 "/>
</g>
</svg>
