<?xml version="1.0" encoding="UTF-8"?>
<svg xmlns="http://www.w3.org/2000/svg" xmlns:xlink="http://www.w3.org/1999/xlink" width="24px" height="24px" viewBox="0 0 24 24" version="1.1">
<g id="surface1">
<path style=" stroke:none;fill-rule:nonzero;fill:rgb(0%,0%,0%);fill-opacity:1;" d="M 12 1.5 C 13.214844 1.5 14.394531 1.738281 15.503906 2.207031 C 16.574219 2.660156 17.539062 3.308594 18.367188 4.136719 C 19.191406 4.964844 19.84375 5.925781 20.292969 7 C 20.761719 8.105469 21.003906 9.285156 21.003906 10.503906 C 21.003906 11.71875 20.765625 12.898438 20.292969 14.007812 C 19.84375 15.078125 19.191406 16.039062 18.367188 16.867188 C 17.539062 17.695312 16.574219 18.34375 15.503906 18.796875 C 14.394531 19.265625 13.214844 19.503906 12 19.503906 C 10.785156 19.503906 9.605469 19.269531 8.496094 18.796875 C 7.425781 18.34375 6.460938 17.695312 5.632812 16.867188 C 4.808594 16.039062 4.15625 15.078125 3.707031 14.007812 C 3.238281 12.898438 2.996094 11.71875 2.996094 10.503906 C 2.996094 9.285156 3.234375 8.105469 3.707031 7 C 4.15625 5.925781 4.808594 4.964844 5.632812 4.136719 C 6.460938 3.308594 7.425781 2.660156 8.496094 2.207031 C 9.605469 1.738281 10.785156 1.5 12 1.5 M 12 0 C 6.203125 0 1.5 4.703125 1.5 10.5 C 1.5 16.296875 6.203125 21 12 21 C 17.796875 21 22.5 16.296875 22.5 10.5 C 22.5 4.703125 17.796875 0 12 0 Z M 12 0 "/>
<path style=" stroke:none;fill-rule:nonzero;fill:rgb(0%,0%,0%);fill-opacity:1;" d="M 12 6.75 C 13 6.75 13.941406 7.140625 14.652344 7.847656 C 15.359375 8.558594 15.75 9.5 15.75 10.5 C 15.75 11.5 15.359375 12.441406 14.652344 13.152344 C 13.941406 13.859375 13 14.25 12 14.25 C 11 14.25 10.058594 13.859375 9.347656 13.152344 C 8.640625 12.441406 8.25 11.5 8.25 10.5 C 8.25 9.5 8.640625 8.558594 9.347656 7.847656 C 10.058594 7.140625 11 6.75 12 6.75 M 12 5.25 C 9.101562 5.25 6.75 7.601562 6.75 10.5 C 6.75 13.398438 9.101562 15.75 12 15.75 C 14.898438 15.75 17.25 13.398438 17.25 10.5 C 17.25 7.601562 14.898438 5.25 12 5.25 Z M 19.1875 20.691406 C 19.632812 20.996094 19.621094 21.660156 19.164062 21.945312 C 17.085938 23.246094 14.632812 24 12 24 C 9.367188 24 6.914062 23.246094 4.835938 21.945312 C 4.378906 21.660156 4.367188 20.996094 4.8125 20.691406 C 5.058594 20.523438 5.382812 20.515625 5.636719 20.675781 C 6.175781 21.011719 6.742188 21.308594 7.332031 21.554688 C 8.808594 22.183594 10.378906 22.5 12 22.5 C 13.621094 22.5 15.191406 22.183594 16.671875 21.558594 C 17.261719 21.308594 17.828125 21.015625 18.367188 20.675781 C 18.617188 20.515625 18.941406 20.523438 19.1875 20.691406 Z M 19.1875 20.691406 "/>
<path style=" stroke:none;fill-rule:nonzero;fill:rgb(0%,0%,0%);fill-opacity:1;" d="M 10.875 3.75 C 10.875 4.371094 11.378906 4.875 12 4.875 C 12.621094 4.875 13.125 4.371094 13.125 3.75 C 13.125 3.128906 12.621094 2.625 12 2.625 C 11.378906 2.625 10.875 3.128906 10.875 3.75 Z M 10.875 3.75 "/>
</g>
</svg>
