<?xml version="1.0" encoding="UTF-8"?>
<svg xmlns="http://www.w3.org/2000/svg" xmlns:xlink="http://www.w3.org/1999/xlink" width="24px" height="24px" viewBox="0 0 24 24" version="1.1">
<g id="surface1">
<path style=" stroke:none;fill-rule:nonzero;fill:rgb(0%,0%,0%);fill-opacity:1;" d="M 21.054688 4.425781 L 12.617188 1.746094 L 4.183594 4.425781 C 3.867188 4.523438 3.652344 4.820312 3.65625 5.152344 L 3.65625 15.816406 C 3.671875 15.890625 4.070312 17.644531 5.792969 19.34375 C 7.121094 20.652344 10.304688 22.332031 11.691406 23.0625 C 11.90625 23.175781 12.011719 23.214844 12.101562 23.265625 L 12.515625 23.472656 C 12.625 23.53125 12.816406 23.527344 12.925781 23.472656 L 13.339844 23.265625 C 14.148438 22.867188 17.910156 20.855469 19.441406 19.34375 C 21.167969 17.644531 21.566406 15.890625 21.582031 15.816406 L 21.582031 5.152344 C 21.589844 4.820312 21.371094 4.523438 21.054688 4.425781 Z M 12.722656 21.820312 L 12.71875 21.816406 L 12.730469 21.816406 C 12.726562 21.820312 12.722656 21.820312 12.722656 21.820312 Z M 14.734375 15.625 L 13.371094 15.625 L 13.371094 17.542969 C 13.371094 17.988281 13.007812 18.351562 12.566406 18.351562 C 12.121094 18.351562 11.757812 17.988281 11.757812 17.542969 L 11.757812 12.59375 C 11.757812 12.574219 11.761719 12.5625 11.761719 12.546875 C 11.613281 12.503906 11.464844 12.449219 11.320312 12.382812 C 10.820312 12.15625 10.394531 11.746094 10.109375 11.28125 C 9.816406 10.796875 9.660156 10.191406 9.707031 9.625 C 9.761719 8.976562 9.996094 8.410156 10.410156 7.910156 C 11.128906 7.039062 12.449219 6.683594 13.503906 7.070312 C 14.101562 7.289062 14.589844 7.65625 14.957031 8.175781 C 15.28125 8.628906 15.445312 9.195312 15.457031 9.746094 C 15.457031 9.761719 15.460938 9.777344 15.457031 9.792969 C 15.457031 9.8125 15.457031 9.832031 15.457031 9.851562 C 15.417969 11.082031 14.570312 12.242188 13.367188 12.5625 L 13.367188 13.976562 L 14.730469 13.976562 C 15.175781 13.976562 15.539062 14.339844 15.539062 14.785156 L 15.539062 14.816406 L 15.542969 14.816406 C 15.542969 15.261719 15.179688 15.625 14.734375 15.625 Z M 14.734375 15.625 "/>
<path style=" stroke:none;fill-rule:nonzero;fill:rgb(0%,0%,0%);fill-opacity:1;" d="M 13.546875 10.527344 C 13.554688 10.511719 13.5625 10.5 13.566406 10.496094 C 13.613281 10.425781 13.65625 10.347656 13.695312 10.269531 C 13.734375 10.167969 13.761719 10.0625 13.78125 9.957031 C 13.785156 9.902344 13.789062 9.847656 13.792969 9.792969 C 13.792969 9.742188 13.789062 9.683594 13.78125 9.632812 C 13.765625 9.527344 13.734375 9.421875 13.695312 9.316406 C 13.664062 9.253906 13.628906 9.1875 13.589844 9.125 C 13.582031 9.117188 13.5625 9.089844 13.53125 9.039062 C 13.5 9.003906 13.46875 8.96875 13.4375 8.9375 C 13.398438 8.898438 13.355469 8.859375 13.308594 8.824219 C 13.296875 8.816406 13.285156 8.804688 13.28125 8.804688 C 13.210938 8.753906 13.132812 8.710938 13.054688 8.671875 C 12.953125 8.636719 12.847656 8.609375 12.742188 8.585938 C 12.632812 8.578125 12.527344 8.578125 12.417969 8.585938 C 12.3125 8.605469 12.207031 8.636719 12.105469 8.671875 C 12.039062 8.707031 11.976562 8.742188 11.914062 8.777344 C 11.90625 8.785156 11.878906 8.804688 11.824219 8.839844 C 11.792969 8.871094 11.753906 8.902344 11.726562 8.933594 C 11.6875 8.972656 11.648438 9.015625 11.609375 9.058594 C 11.601562 9.074219 11.59375 9.085938 11.589844 9.085938 C 11.542969 9.160156 11.5 9.238281 11.460938 9.316406 C 11.425781 9.417969 11.398438 9.519531 11.375 9.625 C 11.367188 9.734375 11.367188 9.84375 11.375 9.953125 C 11.394531 10.058594 11.425781 10.164062 11.460938 10.265625 C 11.492188 10.332031 11.527344 10.390625 11.566406 10.457031 C 11.574219 10.464844 11.59375 10.492188 11.628906 10.542969 C 11.65625 10.578125 11.6875 10.613281 11.722656 10.644531 C 11.761719 10.683594 11.800781 10.722656 11.847656 10.757812 C 11.859375 10.765625 11.871094 10.777344 11.875 10.777344 C 11.945312 10.824219 12.023438 10.871094 12.101562 10.910156 C 12.207031 10.945312 12.308594 10.972656 12.414062 10.996094 C 12.523438 11.003906 12.632812 11.003906 12.738281 10.996094 C 12.84375 10.976562 12.953125 10.945312 13.050781 10.910156 C 13.117188 10.875 13.179688 10.84375 13.242188 10.804688 C 13.25 10.796875 13.28125 10.777344 13.332031 10.742188 C 13.367188 10.714844 13.402344 10.683594 13.433594 10.652344 C 13.472656 10.613281 13.511719 10.570312 13.546875 10.527344 Z M 13.546875 10.527344 "/>
</g>
</svg>
