<?xml version="1.0" encoding="UTF-8"?>
<svg xmlns="http://www.w3.org/2000/svg" xmlns:xlink="http://www.w3.org/1999/xlink" width="24px" height="24px" viewBox="0 0 24 21" version="1.1">
<g id="surface1">
<path style=" stroke:none;fill-rule:nonzero;fill:rgb(0%,0%,0%);fill-opacity:1;" d="M 0 21 L 0 19.765625 L 1.800781 19.765625 L 1.800781 2.46875 C 1.800781 1.105469 2.875 0 4.203125 0 L 12.605469 0 C 13.929688 0 15.003906 1.105469 15.003906 2.46875 L 15.003906 7.410156 L 19.808594 7.410156 C 21.132812 7.410156 22.207031 8.519531 22.207031 9.882812 L 22.207031 19.765625 L 24.007812 19.765625 L 24.007812 21 Z M 13.804688 2.46875 C 13.804688 1.789062 13.269531 1.234375 12.605469 1.234375 L 4.203125 1.234375 C 3.539062 1.234375 3 1.789062 3 2.46875 L 3 19.765625 L 13.804688 19.765625 Z M 21.007812 9.882812 C 21.007812 9.199219 20.46875 8.648438 19.808594 8.648438 L 15.003906 8.648438 L 15.003906 19.765625 L 21.007812 19.765625 Z M 19.808594 12.96875 L 16.207031 12.96875 L 16.207031 11.734375 L 19.808594 11.734375 Z M 19.808594 16.675781 L 16.207031 16.675781 L 16.207031 15.441406 L 19.808594 15.441406 Z M 7.804688 6.792969 L 4.203125 6.792969 L 4.203125 5.558594 L 7.804688 5.558594 Z M 7.804688 10.5 L 4.203125 10.5 L 4.203125 9.265625 L 7.804688 9.265625 Z M 7.804688 14.207031 L 4.203125 14.207031 L 4.203125 12.96875 L 7.804688 12.96875 Z M 12.605469 6.792969 L 9.003906 6.792969 L 9.003906 5.558594 L 12.605469 5.558594 Z M 12.605469 10.5 L 9.003906 10.5 L 9.003906 9.265625 L 12.605469 9.265625 Z M 12.605469 14.207031 L 9.003906 14.207031 L 9.003906 12.96875 L 12.605469 12.96875 Z M 12.605469 14.207031 "/>
</g>
</svg>
