<?xml version="1.0" encoding="UTF-8"?>
<svg xmlns="http://www.w3.org/2000/svg" xmlns:xlink="http://www.w3.org/1999/xlink" width="24px" height="24px" viewBox="0 0 24 24" version="1.1">
<g id="surface1">
<path style=" stroke:none;fill-rule:nonzero;fill:rgb(0%,0%,0%);fill-opacity:1;" d="M 14.339844 3.960938 C 14.070312 4.527344 13.933594 5.15625 13.933594 5.804688 C 13.933594 6.960938 14.378906 8.039062 15.195312 8.855469 C 16.007812 9.667969 17.09375 10.121094 18.246094 10.121094 C 18.894531 10.121094 19.523438 9.980469 20.09375 9.707031 C 19.324219 10.484375 18.292969 10.902344 17.207031 10.902344 C 16.925781 10.902344 16.640625 10.871094 16.363281 10.816406 C 15.921875 10.71875 15.449219 10.859375 15.125 11.183594 L 7.261719 19.042969 C 7.21875 17.816406 6.226562 16.828125 5 16.785156 L 12.855469 8.925781 C 13.179688 8.601562 13.320312 8.136719 13.222656 7.683594 C 12.941406 6.328125 13.351562 4.933594 14.335938 3.960938 Z M 15.710938 15.8125 L 20.03125 20.132812 C 20.273438 20.371094 20.273438 20.765625 20.03125 21 C 19.796875 21.234375 19.398438 21.234375 19.164062 21 L 14.84375 16.679688 Z M 16.664062 1.476562 C 16.5625 1.476562 16.460938 1.488281 16.355469 1.5 C 13.296875 1.980469 11.261719 4.921875 11.898438 7.96875 L 2.832031 17.039062 C 1.675781 18.191406 1.675781 20.066406 2.832031 21.214844 C 3.980469 22.363281 5.863281 22.363281 7.007812 21.214844 L 16.078125 12.144531 C 19.128906 12.78125 22.070312 10.753906 22.542969 7.6875 C 22.660156 6.953125 22.363281 6.53125 21.976562 6.53125 C 21.796875 6.53125 21.601562 6.621094 21.40625 6.808594 L 20.328125 7.886719 C 19.179688 9.035156 17.296875 9.035156 16.148438 7.886719 C 14.992188 6.730469 14.992188 4.859375 16.148438 3.707031 C 16.148438 3.707031 16.632812 3.222656 17.226562 2.628906 C 17.769531 2.09375 17.5 1.472656 16.664062 1.476562 Z M 4.222656 19.824219 C 3.601562 19.199219 4.054688 18.144531 4.921875 18.144531 C 5.785156 18.144531 6.246094 19.199219 5.621094 19.824219 C 5.230469 20.207031 4.609375 20.207031 4.222656 19.824219 Z M 2.824219 2.394531 L 1.429688 3.789062 L 3.167969 6.226562 L 4.628906 6.996094 L 8.042969 10.410156 L 9.4375 9.019531 L 6.027344 5.601562 L 5.261719 4.140625 Z M 15.363281 14.238281 L 13.277344 16.328125 C 13.085938 16.519531 13.085938 16.832031 13.277344 17.023438 L 18.207031 21.957031 C 18.976562 22.71875 20.226562 22.722656 20.996094 21.957031 C 21.765625 21.1875 21.765625 19.9375 20.996094 19.167969 L 16.0625 14.234375 C 15.867188 14.042969 15.558594 14.042969 15.363281 14.238281 Z M 15.363281 14.238281 "/>
</g>
</svg>
