<?xml version="1.0" encoding="UTF-8"?>
<svg xmlns="http://www.w3.org/2000/svg" xmlns:xlink="http://www.w3.org/1999/xlink" width="24px" height="24px" viewBox="0 0 24 24" version="1.1">
<g id="surface1">
<path style=" stroke:none;fill-rule:nonzero;fill:rgb(0%,0%,0%);fill-opacity:1;" d="M 21.234375 21.160156 L 2.765625 21.160156 L 2.765625 12.992188 L 7 12.992188 C 7.3125 12.992188 7.5625 13.246094 7.5625 13.554688 C 7.5625 13.867188 7.3125 14.117188 7 14.117188 L 3.890625 14.117188 L 3.890625 20.035156 L 20.109375 20.035156 L 20.109375 14.117188 L 16.898438 14.117188 C 16.585938 14.117188 16.335938 13.867188 16.335938 13.554688 C 16.335938 13.246094 16.585938 12.992188 16.898438 12.992188 L 21.234375 12.992188 Z M 21.234375 21.160156 "/>
<path style=" stroke:none;fill-rule:nonzero;fill:rgb(0%,0%,0%);fill-opacity:1;" d="M 12 16.195312 L 11.609375 15.8125 C 11.5625 15.769531 10.464844 14.695312 9.355469 13.125 C 8.699219 12.195312 8.171875 11.28125 7.792969 10.414062 C 7.3125 9.300781 7.066406 8.246094 7.066406 7.289062 C 7.066406 4.566406 9.277344 2.351562 12 2.351562 C 14.722656 2.351562 16.933594 4.566406 16.933594 7.289062 C 16.933594 8.25 16.6875 9.300781 16.207031 10.414062 C 15.828125 11.285156 15.300781 12.195312 14.644531 13.125 C 13.535156 14.695312 12.4375 15.769531 12.390625 15.816406 Z M 12 3.476562 C 9.898438 3.476562 8.191406 5.1875 8.191406 7.289062 C 8.191406 10.210938 10.957031 13.472656 12 14.597656 C 13.042969 13.472656 15.808594 10.210938 15.808594 7.289062 C 15.808594 5.1875 14.101562 3.476562 12 3.476562 Z M 12 3.476562 "/>
<path style=" stroke:none;fill-rule:nonzero;fill:rgb(0%,0%,0%);fill-opacity:1;" d="M 12 9.378906 C 10.878906 9.378906 9.972656 8.46875 9.972656 7.351562 C 9.972656 6.230469 10.878906 5.320312 12 5.320312 C 13.121094 5.320312 14.027344 6.230469 14.027344 7.351562 C 14.027344 8.46875 13.121094 9.378906 12 9.378906 Z M 12 6.445312 C 11.5 6.445312 11.097656 6.851562 11.097656 7.347656 C 11.09375 7.847656 11.5 8.253906 12 8.253906 C 12.5 8.253906 12.902344 7.847656 12.902344 7.347656 C 12.902344 6.851562 12.5 6.445312 12 6.445312 Z M 12 6.445312 "/>
</g>
</svg>
