<?xml version="1.0" encoding="UTF-8"?>
<svg xmlns="http://www.w3.org/2000/svg" xmlns:xlink="http://www.w3.org/1999/xlink" width="24px" height="24px" viewBox="0 0 24 24" version="1.1">
<g id="surface1">
<path style=" stroke:none;fill-rule:nonzero;fill:rgb(0%,0%,0%);fill-opacity:1;" d="M 4.5 6.75 L 19.503906 6.75 C 19.917969 6.75 20.253906 6.414062 20.253906 6 C 20.253906 5.585938 19.917969 5.25 19.503906 5.25 L 4.5 5.25 C 4.085938 5.25 3.75 5.585938 3.75 6 C 3.75 6.414062 4.085938 6.75 4.5 6.75 Z M 19.503906 11.230469 L 10.277344 11.230469 C 9.863281 11.230469 9.527344 11.566406 9.527344 11.980469 C 9.527344 12.394531 9.863281 12.730469 10.277344 12.730469 L 19.503906 12.730469 C 19.917969 12.730469 20.253906 12.394531 20.253906 11.980469 C 20.253906 11.566406 19.917969 11.230469 19.503906 11.230469 Z M 19.503906 17.246094 L 4.5 17.246094 C 4.085938 17.246094 3.75 17.582031 3.75 17.996094 C 3.75 18.410156 4.085938 18.746094 4.5 18.746094 L 19.503906 18.746094 C 19.917969 18.746094 20.253906 18.410156 20.253906 17.996094 C 20.253906 17.582031 19.917969 17.246094 19.503906 17.246094 Z M 7.476562 8.242188 L 3.726562 11.992188 L 7.476562 15.742188 Z M 7.476562 8.242188 "/>
</g>
</svg>
