<?xml version="1.0" encoding="UTF-8"?>
<svg xmlns="http://www.w3.org/2000/svg" xmlns:xlink="http://www.w3.org/1999/xlink" width="24px" height="24px" viewBox="0 0 24 24" version="1.1">
<g id="surface1">
<path style=" stroke:none;fill-rule:nonzero;fill:rgb(0%,0%,0%);fill-opacity:1;" d="M 19.949219 24 L 4.050781 24 C 2.25 24 0.75 22.5 0.75 20.699219 L 0.75 3.449219 C 0.75 1.648438 2.25 0.148438 4.050781 0.148438 L 19.800781 0.148438 C 21.601562 0.148438 23.101562 1.648438 23.101562 3.449219 L 23.101562 13.5 C 23.101562 13.949219 22.648438 14.398438 22.199219 14.398438 C 21.75 14.398438 21.449219 13.949219 21.449219 13.5 L 21.449219 3.449219 C 21.449219 2.550781 20.699219 1.949219 19.949219 1.949219 L 4.050781 1.949219 C 3.148438 1.949219 2.550781 2.699219 2.550781 3.449219 L 2.550781 20.699219 C 2.550781 21.601562 3.300781 22.199219 4.050781 22.199219 L 19.800781 22.199219 C 20.699219 22.199219 21.300781 21.449219 21.300781 20.699219 L 21.300781 17.699219 C 21.300781 17.25 21.75 16.800781 22.199219 16.800781 C 22.648438 16.800781 23.101562 17.25 23.101562 17.699219 L 23.101562 20.699219 C 23.25 22.5 21.75 24 19.949219 24 Z M 19.949219 24 "/>
<path style=" stroke:none;fill-rule:nonzero;fill:rgb(0%,0%,0%);fill-opacity:1;" d="M 9.898438 8.851562 L 9.449219 8.699219 C 9.449219 8.699219 9.300781 8.699219 9.300781 8.550781 C 9.300781 8.398438 9.148438 8.25 9.300781 8.25 L 9.300781 8.101562 L 9.449219 7.949219 L 9.601562 7.949219 L 9.75 7.800781 L 9.898438 7.800781 C 10.050781 7.800781 10.050781 7.5 10.050781 7.351562 L 9.898438 7.050781 C 9.75 6.898438 9.601562 6.75 9.300781 6.898438 L 9.148438 6.898438 L 9 7.050781 L 8.550781 7.050781 L 8.398438 6.898438 L 8.398438 6.148438 C 8.398438 6 8.398438 5.699219 8.101562 5.699219 L 7.949219 5.699219 C 7.800781 5.699219 7.5 5.699219 7.5 6 L 7.5 6.300781 L 7.351562 6.449219 L 7.050781 6.449219 C 6.898438 6.449219 6.898438 6.449219 6.898438 6.300781 L 6.898438 6.148438 L 6.601562 6 L 6.601562 5.851562 C 6.449219 5.851562 6.300781 5.699219 6 5.851562 L 5.699219 6 C 5.550781 6 5.550781 6.300781 5.550781 6.449219 L 5.550781 6.601562 L 5.699219 6.898438 L 5.699219 7.050781 C 5.699219 7.199219 5.550781 7.199219 5.550781 7.351562 L 4.800781 7.351562 C 4.800781 7.199219 4.5 7.351562 4.5 7.5 L 4.351562 7.800781 C 4.351562 7.949219 4.351562 8.25 4.648438 8.25 L 4.800781 8.25 L 5.101562 8.398438 C 5.25 8.550781 5.25 8.699219 5.25 8.851562 L 5.101562 9 L 4.949219 9 L 4.800781 9.148438 L 4.648438 9.148438 C 4.5 9.300781 4.351562 9.601562 4.5 9.75 L 4.648438 10.050781 C 4.800781 10.199219 4.949219 10.351562 5.101562 10.199219 L 5.25 10.199219 L 5.550781 10.050781 L 5.699219 10.050781 C 5.851562 10.050781 6 10.199219 6 10.199219 L 6 10.800781 C 6 10.949219 6 11.25 6.300781 11.25 L 6.601562 11.398438 C 6.75 11.398438 7.050781 11.398438 7.050781 11.101562 L 7.050781 10.648438 C 7.050781 10.648438 7.050781 10.5 7.199219 10.5 L 7.648438 10.5 C 7.648438 10.5 7.800781 10.5 7.800781 10.648438 L 7.800781 10.800781 L 7.949219 10.949219 L 7.949219 11.101562 C 8.101562 11.25 8.25 11.398438 8.398438 11.25 L 8.699219 11.101562 C 9 11.101562 9 10.800781 9 10.648438 L 9 10.5 L 8.851562 10.351562 C 8.851562 10.199219 8.851562 9.898438 9 9.898438 L 9.75 9.898438 C 9.898438 9.898438 10.199219 9.898438 10.199219 9.601562 L 10.351562 9.300781 Z M 8.101562 8.851562 C 7.949219 9.300781 7.5 9.449219 7.050781 9.300781 C 6.601562 9.148438 6.300781 8.699219 6.449219 8.25 C 6.601562 7.800781 7.050781 7.648438 7.5 7.800781 C 7.949219 7.949219 8.25 8.398438 8.101562 8.851562 Z M 14.101562 6 C 14.101562 5.851562 13.949219 5.699219 13.800781 5.699219 L 13.5 5.699219 C 13.351562 5.699219 13.351562 5.699219 13.199219 5.550781 L 13.199219 5.25 L 13.351562 5.101562 C 13.5 4.949219 13.351562 4.800781 13.351562 4.648438 L 13.199219 4.5 L 12.75 4.5 L 12.601562 4.800781 L 12.300781 4.800781 L 12.148438 4.648438 L 12.148438 4.351562 C 12.148438 4.199219 12 4.050781 11.851562 4.050781 L 11.550781 4.050781 C 11.398438 4.199219 11.398438 4.351562 11.25 4.5 L 11.25 4.949219 L 11.101562 5.101562 L 10.949219 5.101562 L 10.800781 4.800781 L 10.351562 4.800781 L 10.199219 4.949219 C 10.050781 5.101562 10.199219 5.25 10.199219 5.398438 L 10.351562 5.550781 L 10.351562 5.851562 C 10.351562 5.851562 10.199219 5.851562 10.199219 6 L 9.898438 6 C 9.898438 6 9.75 6.148438 9.75 6.300781 L 9.75 6.601562 C 9.75 6.75 9.898438 6.898438 10.050781 6.898438 L 10.351562 6.898438 L 10.5 7.050781 L 10.5 7.199219 L 10.351562 7.351562 L 10.351562 7.800781 L 10.5 7.949219 C 10.648438 8.101562 10.800781 7.949219 10.949219 7.949219 L 11.101562 7.800781 L 11.398438 7.800781 L 11.398438 8.25 C 11.398438 8.398438 11.550781 8.550781 11.699219 8.550781 L 12 8.550781 C 12.148438 8.550781 12.300781 8.398438 12.300781 8.25 L 12.300781 7.949219 C 12.449219 7.648438 12.601562 7.5 12.601562 7.5 L 12.75 7.5 L 12.898438 7.648438 C 13.050781 7.800781 13.199219 7.648438 13.351562 7.648438 L 13.648438 7.5 C 13.800781 7.351562 13.648438 7.199219 13.648438 7.199219 L 13.351562 7.050781 L 13.351562 6.601562 L 13.800781 6.601562 C 13.949219 6.601562 14.101562 6.449219 14.101562 6.300781 Z M 12.300781 6.601562 C 12.148438 6.898438 11.699219 6.898438 11.398438 6.601562 C 11.101562 6.449219 11.101562 6 11.398438 5.699219 C 11.550781 5.398438 12 5.398438 12.300781 5.699219 C 12.601562 6 12.601562 6.449219 12.300781 6.601562 Z M 18.898438 6.898438 L 16.648438 6.898438 C 16.199219 6.898438 15.75 6.449219 15.75 6 C 15.75 5.550781 16.199219 5.101562 16.648438 5.101562 L 18.898438 5.101562 C 19.351562 5.101562 19.800781 5.550781 19.800781 6 C 19.800781 6.449219 19.351562 6.898438 18.898438 6.898438 Z M 18.898438 11.25 L 16.648438 11.25 C 16.199219 11.25 15.75 10.800781 15.75 10.351562 C 15.75 9.898438 16.199219 9.449219 16.648438 9.449219 L 18.898438 9.449219 C 19.351562 9.449219 19.800781 9.898438 19.800781 10.351562 C 19.800781 10.800781 19.351562 11.25 18.898438 11.25 Z M 18.898438 15.601562 L 5.25 15.601562 C 4.800781 15.601562 4.351562 15.148438 4.351562 14.699219 C 4.351562 14.25 4.800781 13.800781 5.25 13.800781 L 18.898438 13.800781 C 19.351562 13.800781 19.800781 14.25 19.800781 14.699219 C 19.800781 15.148438 19.351562 15.601562 18.898438 15.601562 Z M 18.898438 19.949219 L 5.25 19.949219 C 4.800781 19.949219 4.351562 19.5 4.351562 19.050781 C 4.351562 18.601562 4.800781 18.148438 5.25 18.148438 L 18.898438 18.148438 C 19.351562 18.148438 19.800781 18.601562 19.800781 19.050781 C 19.800781 19.5 19.351562 19.949219 18.898438 19.949219 Z M 18.898438 19.949219 "/>
</g>
</svg>
