<?xml version="1.0" encoding="UTF-8"?>
<svg xmlns="http://www.w3.org/2000/svg" xmlns:xlink="http://www.w3.org/1999/xlink" width="24px" height="24px" viewBox="0 0 24 24" version="1.1">
<g id="surface1">
<path style=" stroke:none;fill-rule:nonzero;fill:rgb(0%,0%,0%);fill-opacity:1;" d="M 22.507812 21.867188 L 17.582031 21.867188 C 17.230469 21.867188 16.941406 21.582031 16.941406 21.230469 L 16.941406 7.414062 C 16.941406 7.3125 16.96875 7.207031 17.015625 7.117188 L 19.480469 2.460938 C 19.589844 2.25 19.808594 2.121094 20.046875 2.121094 C 20.28125 2.121094 20.5 2.25 20.609375 2.460938 L 23.074219 7.117188 C 23.121094 7.207031 23.148438 7.3125 23.148438 7.414062 L 23.148438 21.230469 C 23.148438 21.582031 22.859375 21.867188 22.507812 21.867188 Z M 18.222656 20.589844 L 21.867188 20.589844 L 21.867188 7.574219 L 20.046875 4.128906 L 18.222656 7.574219 Z M 18.222656 20.589844 "/>
<path style=" stroke:none;fill-rule:nonzero;fill:rgb(0%,0%,0%);fill-opacity:1;" d="M 20.046875 8.824219 C 19.980469 8.824219 19.917969 8.8125 19.855469 8.792969 L 17.390625 8.027344 C 17.054688 7.921875 16.867188 7.5625 16.972656 7.226562 C 17.078125 6.886719 17.4375 6.699219 17.773438 6.804688 L 20.046875 7.511719 L 22.316406 6.804688 C 22.65625 6.699219 23.011719 6.886719 23.117188 7.226562 C 23.222656 7.5625 23.035156 7.921875 22.699219 8.027344 L 20.234375 8.792969 C 20.175781 8.8125 20.109375 8.824219 20.046875 8.824219 Z M 22.507812 19.105469 L 17.582031 19.105469 C 17.230469 19.105469 16.941406 18.820312 16.941406 18.464844 C 16.941406 18.113281 17.230469 17.824219 17.582031 17.824219 L 22.507812 17.824219 C 22.859375 17.824219 23.148438 18.113281 23.148438 18.464844 C 23.148438 18.820312 22.859375 19.105469 22.507812 19.105469 Z M 15.070312 21.867188 L 1.527344 21.867188 C 1.171875 21.867188 0.886719 21.582031 0.886719 21.230469 L 0.886719 2.761719 C 0.886719 2.40625 1.171875 2.121094 1.527344 2.121094 L 15.070312 2.121094 C 15.421875 2.121094 15.710938 2.40625 15.710938 2.761719 L 15.710938 21.230469 C 15.710938 21.582031 15.421875 21.867188 15.070312 21.867188 Z M 2.164062 20.589844 L 14.429688 20.589844 L 14.429688 3.402344 L 2.164062 3.402344 Z M 2.164062 20.589844 "/>
<path style=" stroke:none;fill-rule:nonzero;fill:rgb(0%,0%,0%);fill-opacity:1;" d="M 12.605469 11.027344 L 4.074219 11.027344 C 3.722656 11.027344 3.433594 10.742188 3.433594 10.386719 C 3.433594 10.035156 3.722656 9.746094 4.074219 9.746094 L 12.605469 9.746094 C 12.960938 9.746094 13.246094 10.035156 13.246094 10.386719 C 13.246094 10.742188 12.960938 11.027344 12.605469 11.027344 Z M 12.605469 7.863281 L 4.074219 7.863281 C 3.722656 7.863281 3.433594 7.578125 3.433594 7.222656 C 3.433594 6.871094 3.722656 6.582031 4.074219 6.582031 L 12.605469 6.582031 C 12.960938 6.582031 13.246094 6.871094 13.246094 7.222656 C 13.246094 7.578125 12.960938 7.863281 12.605469 7.863281 Z M 12.605469 14.191406 L 4.074219 14.191406 C 3.722656 14.191406 3.433594 13.902344 3.433594 13.550781 C 3.433594 13.195312 3.722656 12.910156 4.074219 12.910156 L 12.605469 12.910156 C 12.960938 12.910156 13.246094 13.195312 13.246094 13.550781 C 13.246094 13.902344 12.960938 14.191406 12.605469 14.191406 Z M 12.605469 17.355469 L 4.074219 17.355469 C 3.722656 17.355469 3.433594 17.066406 3.433594 16.714844 C 3.433594 16.359375 3.722656 16.074219 4.074219 16.074219 L 12.605469 16.074219 C 12.960938 16.074219 13.246094 16.359375 13.246094 16.714844 C 13.246094 17.066406 12.960938 17.355469 12.605469 17.355469 Z M 12.605469 17.355469 "/>
</g>
</svg>
