<?xml version="1.0" encoding="UTF-8"?>
<svg xmlns="http://www.w3.org/2000/svg" xmlns:xlink="http://www.w3.org/1999/xlink" width="24px" height="24px" viewBox="0 0 24 24" version="1.1">
<g id="surface1">
<path style=" stroke:none;fill-rule:nonzero;fill:rgb(0%,0%,0%);fill-opacity:1;" d="M 22.183594 11.835938 L 13.128906 2.785156 L 12.519531 2.175781 C 12.230469 1.890625 11.769531 1.890625 11.480469 2.175781 L 1.816406 11.835938 C 1.527344 12.125 1.375 12.507812 1.375 12.914062 C 1.386719 13.738281 2.070312 14.398438 2.898438 14.398438 L 3.894531 14.398438 L 3.894531 22.03125 L 20.105469 22.03125 L 20.105469 14.398438 L 21.125 14.398438 C 21.523438 14.398438 21.902344 14.242188 22.1875 13.957031 C 22.46875 13.671875 22.625 13.296875 22.625 12.894531 C 22.625 12.496094 22.46875 12.121094 22.183594 11.835938 Z M 13.3125 20.34375 L 10.6875 20.34375 L 10.6875 15.5625 L 13.3125 15.5625 Z M 18.417969 12.710938 L 18.417969 20.34375 L 14.8125 20.34375 L 14.8125 15 C 14.8125 14.480469 14.394531 14.0625 13.875 14.0625 L 10.125 14.0625 C 9.605469 14.0625 9.1875 14.480469 9.1875 15 L 9.1875 20.34375 L 5.582031 20.34375 L 5.582031 12.710938 L 3.332031 12.710938 L 12.003906 4.046875 L 12.542969 4.585938 L 20.671875 12.710938 Z M 18.417969 12.710938 "/>
</g>
</svg>
