<?xml version="1.0" encoding="UTF-8"?>
<svg xmlns="http://www.w3.org/2000/svg" xmlns:xlink="http://www.w3.org/1999/xlink" width="24px" height="24px" viewBox="0 0 24 24" version="1.1">
<g id="surface1">
<path style=" stroke:none;fill-rule:nonzero;fill:rgb(0%,0%,0%);fill-opacity:1;" d="M 16 17.601562 L 14.398438 17.601562 L 14.398438 19.199219 L 16 19.199219 Z M 16 14.398438 L 14.398438 14.398438 L 14.398438 16 L 16 16 Z M 12.800781 14.398438 L 11.199219 14.398438 L 11.199219 16 L 12.800781 16 Z M 9.601562 14.398438 L 8 14.398438 L 8 16 L 9.601562 16 Z M 19.199219 5.601562 L 19.199219 1.601562 L 4.800781 1.601562 L 4.800781 5.601562 L 4 5.601562 L 4 8.800781 L 4.800781 8.800781 L 4.800781 22.398438 L 19.199219 22.398438 L 19.199219 8.800781 L 20 8.800781 L 20 5.601562 Z M 17.601562 20.800781 L 6.398438 20.800781 L 6.398438 12.800781 L 17.601562 12.800781 Z M 17.601562 11.199219 L 6.398438 11.199219 L 6.398438 3.199219 L 17.601562 3.199219 Z M 9.601562 17.601562 L 8 17.601562 L 8 19.199219 L 9.601562 19.199219 Z M 12.800781 17.601562 L 11.199219 17.601562 L 11.199219 19.199219 L 12.800781 19.199219 Z M 12.800781 17.601562 "/>
</g>
</svg>
