<?xml version="1.0" encoding="UTF-8"?>
<svg xmlns="http://www.w3.org/2000/svg" xmlns:xlink="http://www.w3.org/1999/xlink" width="24px" height="24px" viewBox="0 0 24 24" version="1.1">
<g id="surface1">
<path style=" stroke:none;fill-rule:nonzero;fill:rgb(0%,0%,0%);fill-opacity:1;" d="M 21.84375 19.875 L 18.5625 19.875 L 18.5625 9.375 C 18.5625 8.652344 17.972656 8.0625 17.25 8.0625 L 14.625 8.0625 L 14.625 5.4375 C 14.625 4.714844 14.035156 4.125 13.3125 4.125 L 10.6875 4.125 C 9.964844 4.125 9.375 4.714844 9.375 5.4375 L 9.375 13.3125 L 6.75 13.3125 C 6.027344 13.3125 5.4375 13.902344 5.4375 14.625 L 5.4375 19.875 L 2.8125 19.875 L 2.8125 3.46875 C 2.8125 3.105469 2.519531 2.8125 2.15625 2.8125 C 1.792969 2.8125 1.5 3.105469 1.5 3.46875 L 1.5 19.875 C 1.5 20.597656 2.089844 21.1875 2.8125 21.1875 L 21.84375 21.1875 C 22.207031 21.1875 22.5 20.894531 22.5 20.53125 C 22.5 20.167969 22.207031 19.875 21.84375 19.875 Z M 6.75 19.875 L 6.75 14.625 L 9.375 14.625 L 9.375 19.875 Z M 10.6875 19.875 L 10.6875 5.4375 L 13.3125 5.4375 L 13.3125 19.875 Z M 14.625 19.875 L 14.625 9.375 L 17.25 9.375 L 17.25 19.875 Z M 14.625 19.875 "/>
</g>
</svg>
