<?xml version="1.0" encoding="UTF-8"?>
<svg xmlns="http://www.w3.org/2000/svg" xmlns:xlink="http://www.w3.org/1999/xlink" width="24px" height="24px" viewBox="0 0 24 24" version="1.1">
<g id="surface1">
<path style=" stroke:none;fill-rule:nonzero;fill:rgb(0%,0%,0%);fill-opacity:1;" d="M 5 5 L 10 5 L 10 3 L 4 3 C 3.449219 3 3 3.449219 3 4 L 3 10 L 5 10 Z M 4 21 L 10 21 L 10 19 L 5 19 L 5 14 L 3 14 L 3 20 C 3 20.550781 3.449219 21 4 21 Z M 21 20 L 21 14 L 19 14 L 19 19 L 14 19 L 14 21 L 20 21 C 20.550781 21 21 20.550781 21 20 Z M 14 5 L 19 5 L 19 10 L 21 10 L 21 4 C 21 3.449219 20.550781 3 20 3 L 14 3 Z M 14 5 "/>
</g>
</svg>
