<?xml version="1.0" encoding="UTF-8"?>
<svg xmlns="http://www.w3.org/2000/svg" xmlns:xlink="http://www.w3.org/1999/xlink" width="24px" height="24px" viewBox="0 0 24 24" version="1.1">
<g id="surface1">
<path style=" stroke:none;fill-rule:nonzero;fill:rgb(0%,0%,0%);fill-opacity:1;" d="M 13.574219 10.910156 L 13.757812 10.910156 C 15.652344 10.960938 17.144531 12.535156 17.097656 14.429688 C 17.050781 16.320312 15.476562 17.816406 13.582031 17.769531 L 13.394531 17.769531 C 11.5 17.71875 10.003906 16.144531 10.054688 14.25 C 10.105469 12.355469 11.679688 10.863281 13.574219 10.910156 M 13.574219 9.195312 C 10.734375 9.125 8.371094 11.367188 8.296875 14.207031 C 8.222656 17.046875 10.46875 19.410156 13.308594 19.484375 L 13.585938 19.484375 C 16.425781 19.554688 18.789062 17.3125 18.863281 14.472656 C 18.933594 11.632812 16.691406 9.269531 13.851562 9.195312 Z M 13.574219 9.195312 "/>
<path style=" stroke:none;fill-rule:nonzero;fill:rgb(0%,0%,0%);fill-opacity:1;" d="M 16.070312 17.835938 L 16.636719 17.324219 C 16.871094 17.113281 17.097656 17.125 17.308594 17.359375 L 21.222656 21.710938 C 21.433594 21.945312 21.421875 22.167969 21.1875 22.382812 L 20.617188 22.890625 C 20.382812 23.105469 20.160156 23.09375 19.945312 22.855469 L 16.035156 18.507812 C 15.820312 18.273438 15.832031 18.046875 16.070312 17.835938 Z M 16.070312 17.835938 "/>
<path style=" stroke:none;fill-rule:nonzero;fill:rgb(0%,0%,0%);fill-opacity:1;" d="M 11.671875 23.789062 C 11.0625 23.789062 10.464844 23.609375 9.957031 23.28125 C 4.546875 19.789062 1.8125 16.957031 1.8125 14.878906 L 1.8125 5.761719 C 1.8125 4.484375 2.789062 3.425781 4.058594 3.316406 C 9.140625 2.925781 10.976562 0.503906 10.992188 0.480469 C 11.160156 0.265625 11.410156 0.136719 11.683594 0.128906 C 11.960938 0.132812 12.214844 0.273438 12.371094 0.5 C 12.429688 0.597656 14.175781 2.9375 19.285156 3.316406 C 20.5625 3.417969 21.542969 4.484375 21.542969 5.765625 L 21.542969 14.878906 C 21.542969 15.351562 21.160156 15.738281 20.6875 15.738281 C 20.214844 15.738281 19.832031 15.351562 19.828125 14.878906 L 19.828125 5.765625 C 19.832031 5.378906 19.539062 5.058594 19.15625 5.027344 C 15 4.714844 12.695312 3.179688 11.65625 2.230469 C 10.597656 3.171875 8.269531 4.714844 4.171875 5.023438 C 3.792969 5.0625 3.507812 5.378906 3.511719 5.761719 L 3.511719 14.878906 C 3.511719 16.21875 6.402344 18.953125 10.878906 21.839844 C 11.355469 22.15625 11.980469 22.15625 12.457031 21.839844 C 13.027344 21.472656 13.597656 21.089844 14.144531 20.707031 C 14.394531 20.519531 14.726562 20.484375 15.011719 20.613281 C 15.296875 20.738281 15.488281 21.015625 15.511719 21.324219 C 15.539062 21.636719 15.390625 21.9375 15.128906 22.109375 C 14.5625 22.507812 13.980469 22.898438 13.386719 23.28125 C 12.875 23.613281 12.28125 23.789062 11.671875 23.789062 Z M 11.671875 23.789062 "/>
</g>
</svg>
