<?xml version="1.0" encoding="UTF-8"?>
<svg xmlns="http://www.w3.org/2000/svg" xmlns:xlink="http://www.w3.org/1999/xlink" width="24px" height="24px" viewBox="0 0 24 24" version="1.1">
<g id="surface1">
<path style=" stroke:none;fill-rule:nonzero;fill:rgb(0%,0%,0%);fill-opacity:1;" d="M 11.929688 12.804688 C 9.109375 12.804688 6.816406 10.511719 6.816406 7.691406 C 6.816406 4.871094 9.109375 2.578125 11.929688 2.578125 C 14.746094 2.578125 17.039062 4.871094 17.039062 7.691406 C 17.039062 10.511719 14.746094 12.804688 11.929688 12.804688 Z M 11.929688 3.78125 C 9.769531 3.78125 8.015625 5.53125 8.015625 7.691406 C 8.015625 9.851562 9.769531 11.605469 11.929688 11.605469 C 14.089844 11.605469 15.839844 9.851562 15.839844 7.691406 C 15.839844 5.53125 14.089844 3.78125 11.929688 3.78125 Z M 11.929688 3.78125 "/>
<path style=" stroke:none;fill-rule:nonzero;fill:rgb(0%,0%,0%);fill-opacity:1;" d="M 19.957031 20.734375 C 19.621094 20.734375 19.355469 20.472656 19.355469 20.136719 C 19.355469 16.199219 16.152344 12.996094 12.214844 12.996094 C 8.28125 12.996094 5.074219 16.199219 5.074219 20.136719 C 5.074219 20.472656 4.8125 20.734375 4.476562 20.734375 C 4.140625 20.734375 3.875 20.472656 3.875 20.136719 C 3.875 15.539062 7.621094 11.796875 12.214844 11.796875 C 16.8125 11.796875 20.554688 15.539062 20.554688 20.136719 C 20.554688 20.472656 20.292969 20.734375 19.957031 20.734375 Z M 6.886719 10.570312 C 4.546875 10.570312 2.640625 8.675781 2.640625 6.335938 C 2.640625 3.996094 4.535156 2.101562 6.875 2.101562 C 7.871094 2.101562 8.832031 2.449219 9.574219 3.070312 L 8.808594 3.984375 C 8.292969 3.550781 7.585938 3.300781 6.875 3.300781 C 5.195312 3.300781 3.839844 4.65625 3.839844 6.335938 C 3.839844 8.015625 5.207031 9.371094 6.886719 9.371094 Z M 6.886719 10.570312 "/>
<path style=" stroke:none;fill-rule:nonzero;fill:rgb(0%,0%,0%);fill-opacity:1;" d="M 0.839844 17.015625 C 0.503906 17.015625 0.238281 16.753906 0.238281 16.414062 C 0.238281 12.625 3.324219 9.539062 7.117188 9.539062 C 7.453125 9.539062 7.714844 9.804688 7.714844 10.140625 C 7.714844 10.476562 7.453125 10.738281 7.117188 10.738281 C 3.984375 10.738281 1.441406 13.285156 1.441406 16.414062 C 1.441406 16.753906 1.175781 17.015625 0.839844 17.015625 Z M 17.269531 10.738281 L 17.269531 9.539062 C 18.949219 9.539062 20.304688 8.183594 20.304688 6.503906 C 20.304688 4.824219 18.949219 3.46875 17.269531 3.46875 C 16.546875 3.46875 15.875 3.707031 15.335938 4.152344 L 14.566406 3.226562 C 15.324219 2.59375 16.261719 2.257812 17.269531 2.257812 C 19.609375 2.257812 21.503906 4.152344 21.503906 6.492188 C 21.503906 8.84375 19.609375 10.738281 17.269531 10.738281 Z M 17.269531 10.738281 "/>
<path style=" stroke:none;fill-rule:nonzero;fill:rgb(0%,0%,0%);fill-opacity:1;" d="M 23.304688 17.015625 C 22.96875 17.015625 22.703125 16.753906 22.703125 16.414062 C 22.703125 13.285156 20.160156 10.738281 17.027344 10.738281 C 16.691406 10.738281 16.429688 10.476562 16.429688 10.140625 C 16.429688 9.804688 16.691406 9.539062 17.027344 9.539062 C 20.820312 9.539062 23.902344 12.625 23.902344 16.414062 C 23.902344 16.753906 23.640625 17.015625 23.304688 17.015625 Z M 23.304688 17.015625 "/>
</g>
</svg>
