<?xml version="1.0" standalone="no"?><!DOCTYPE svg PUBLIC "-//W3C//DTD SVG 1.1//EN" "http://www.w3.org/Graphics/SVG/1.1/DTD/svg11.dtd"><svg t="1714963711658" class="icon" viewBox="0 0 1024 1024" version="1.1" xmlns="http://www.w3.org/2000/svg" p-id="8791" xmlns:xlink="http://www.w3.org/1999/xlink" width="200" height="200"><path d="M916.4 442.2H111.5c-23.2 0-42-18.8-42-42s18.8-42 42-42H815L690.4 233.6c-16.4-16.4-16.4-43 0-59.4s43-16.4 59.4 0l196.3 196.3c12 12 15.6 30.1 9.1 45.8-6.5 15.7-21.8 25.9-38.8 25.9zM111.5 581h804.9c23.2 0 42 18.8 42 42s-18.8 42-42 42H212.9l124.6 124.6c16.4 16.4 16.4 43 0 59.4s-43 16.4-59.4 0L81.8 652.6c-12-12-15.6-30.1-9.1-45.8 6.5-15.6 21.8-25.8 38.8-25.8z" p-id="8792"></path></svg>