<?xml version="1.0" encoding="UTF-8"?>
<svg xmlns="http://www.w3.org/2000/svg" xmlns:xlink="http://www.w3.org/1999/xlink" width="24px" height="24px" viewBox="0 0 24 24" version="1.1">
<g id="surface1">
<path style=" stroke:none;fill-rule:nonzero;fill:rgb(0%,0%,0%);fill-opacity:1;" d="M 21.476562 10.363281 L 2.613281 10.363281 C 2.070312 10.363281 1.628906 9.921875 1.628906 9.378906 C 1.628906 8.835938 2.070312 8.394531 2.613281 8.394531 L 19.101562 8.394531 L 16.179688 5.476562 C 15.796875 5.089844 15.796875 4.46875 16.179688 4.082031 C 16.566406 3.699219 17.1875 3.699219 17.574219 4.082031 L 22.175781 8.683594 C 22.457031 8.964844 22.539062 9.390625 22.386719 9.757812 C 22.234375 10.125 21.875 10.363281 21.476562 10.363281 Z M 2.613281 13.617188 L 21.476562 13.617188 C 22.023438 13.617188 22.460938 14.058594 22.460938 14.601562 C 22.460938 15.144531 22.023438 15.585938 21.476562 15.585938 L 4.988281 15.585938 L 7.910156 18.507812 C 8.292969 18.890625 8.292969 19.515625 7.910156 19.898438 C 7.527344 20.28125 6.902344 20.28125 6.519531 19.898438 L 1.917969 15.296875 C 1.636719 15.015625 1.550781 14.589844 1.703125 14.222656 C 1.855469 13.855469 2.214844 13.617188 2.613281 13.617188 Z M 2.613281 13.617188 "/>
</g>
</svg>
