<?xml version="1.0" encoding="UTF-8"?>
<svg xmlns="http://www.w3.org/2000/svg" xmlns:xlink="http://www.w3.org/1999/xlink" width="24px" height="24px" viewBox="0 0 24 24" version="1.1">
<g id="surface1">
<path style=" stroke:none;fill-rule:nonzero;fill:rgb(0%,0%,0%);fill-opacity:1;" d="M 20.121094 17.898438 C 19.679688 16.847656 19.039062 15.90625 18.230469 15.097656 C 17.421875 14.289062 16.480469 13.652344 15.429688 13.207031 C 15.421875 13.203125 15.414062 13.199219 15.402344 13.195312 C 16.863281 12.140625 17.8125 10.421875 17.8125 8.484375 C 17.8125 5.273438 15.210938 2.671875 12 2.671875 C 8.789062 2.671875 6.1875 5.273438 6.1875 8.484375 C 6.1875 10.421875 7.136719 12.140625 8.597656 13.199219 C 8.585938 13.203125 8.578125 13.203125 8.570312 13.210938 C 7.519531 13.652344 6.578125 14.289062 5.769531 15.097656 C 4.960938 15.90625 4.324219 16.847656 3.878906 17.898438 C 3.441406 18.925781 3.210938 20.015625 3.1875 21.136719 C 3.183594 21.242188 3.269531 21.328125 3.375 21.328125 L 4.78125 21.328125 C 4.882812 21.328125 4.964844 21.246094 4.96875 21.144531 C 5.015625 19.335938 5.742188 17.640625 7.027344 16.355469 C 8.355469 15.027344 10.121094 14.296875 12 14.296875 C 13.878906 14.296875 15.644531 15.027344 16.972656 16.355469 C 18.257812 17.640625 18.984375 19.335938 19.03125 21.144531 C 19.035156 21.25 19.117188 21.328125 19.21875 21.328125 L 20.625 21.328125 C 20.730469 21.328125 20.816406 21.242188 20.8125 21.136719 C 20.789062 20.015625 20.558594 18.925781 20.121094 17.898438 Z M 12 12.515625 C 10.925781 12.515625 9.910156 12.097656 9.148438 11.335938 C 8.386719 10.574219 7.96875 9.558594 7.96875 8.484375 C 7.96875 7.410156 8.386719 6.394531 9.148438 5.632812 C 9.910156 4.871094 10.925781 4.453125 12 4.453125 C 13.074219 4.453125 14.089844 4.871094 14.851562 5.632812 C 15.613281 6.394531 16.03125 7.410156 16.03125 8.484375 C 16.03125 9.558594 15.613281 10.574219 14.851562 11.335938 C 14.089844 12.097656 13.074219 12.515625 12 12.515625 Z M 12 12.515625 "/>
</g>
</svg>
