<?xml version="1.0" standalone="no"?><!DOCTYPE svg PUBLIC "-//W3C//DTD SVG 1.1//EN" "http://www.w3.org/Graphics/SVG/1.1/DTD/svg11.dtd"><svg t="1640004958567" class="icon" viewBox="0 0 1024 1024" version="1.1" xmlns="http://www.w3.org/2000/svg" p-id="2732" xmlns:xlink="http://www.w3.org/1999/xlink" width="200" height="200"><defs><style type="text/css"></style></defs><path d="M192.037 287.953h640.124c17.673 0 32-14.327 32-32s-14.327-32-32-32H192.037c-17.673 0-32 14.327-32 32s14.327 32 32 32zM832.161 479.169H438.553c-17.673 0-32 14.327-32 32s14.327 32 32 32h393.608c17.673 0 32-14.327 32-32s-14.327-32-32-32zM832.161 735.802H192.037c-17.673 0-32 14.327-32 32s14.327 32 32 32h640.124c17.673 0 32-14.327 32-32s-14.327-32-32-32zM319.028 351.594l-160 160 160 160z" fill="" p-id="2733"></path></svg>