<?xml version="1.0" standalone="no"?><!DOCTYPE svg PUBLIC "-//W3C//DTD SVG 1.1//EN" "http://www.w3.org/Graphics/SVG/1.1/DTD/svg11.dtd"><svg t="1652683409917" class="icon" viewBox="0 0 1024 1024" version="1.1" xmlns="http://www.w3.org/2000/svg" p-id="9274" xmlns:xlink="http://www.w3.org/1999/xlink" width="200" height="200"><defs><style type="text/css"></style></defs><path d="M230.621867 821.4016H50.978133A33.954133 33.954133 0 0 1 17.066667 787.490133V394.513067a33.954133 33.954133 0 0 1 33.911466-33.911467h179.643734A33.954133 33.954133 0 0 1 264.533333 394.513067v392.977066a33.954133 33.954133 0 0 1-33.911466 33.911467zM51.2 787.268267h179.2v-392.533334H51.2zM606.882133 821.4016H426.513067a33.595733 33.595733 0 0 1-33.553067-33.553067V95.488a33.595733 33.595733 0 0 1 33.553067-33.553067h180.369066a33.5872 33.5872 0 0 1 33.544534 33.553067v692.360533a33.5872 33.5872 0 0 1-33.544534 33.553067z m-179.7888-34.133333h179.2v-691.2h-179.2zM973.277867 821.4016H793.122133A33.6896 33.6896 0 0 1 759.466667 787.746133V240.64a33.6896 33.6896 0 0 1 33.655466-33.655467h180.155734A33.6896 33.6896 0 0 1 1006.933333 240.64v547.106133a33.6896 33.6896 0 0 1-33.655466 33.655467z m-179.677867-34.133333h179.2v-546.133334H793.6zM1006.933333 971.434667H17.066667a17.066667 17.066667 0 0 1 0-34.133334h989.866666a17.066667 17.066667 0 0 1 0 34.133334z" p-id="9275"></path></svg>