<?xml version="1.0" encoding="utf-8"?>
<!-- Generator: Adobe Illustrator 27.5.0, SVG Export Plug-In . SVG Version: 6.00 Build 0)  -->
<svg version="1.1" xmlns="http://www.w3.org/2000/svg" xmlns:xlink="http://www.w3.org/1999/xlink" x="0px" y="0px"
	 viewBox="0 0 500 500" style="enable-background:new 0 0 500 500;" xml:space="preserve">
<g id="Floor">
	<ellipse id="Floor_1_" style="fill:#F5F5F5;" cx="250" cy="384.615" rx="209.732" ry="94.794"/>
</g>
<g id="Shadows">
	<ellipse id="Shadow_17_" style="fill:#E0E0E0;" cx="352.357" cy="395.725" rx="56.053" ry="32.362"/>
	<path id="Shadow_49_" style="fill:#E0E0E0;" d="M91.709,412.522c-9.529,5.564-9.529,14.584,0,20.148
		c9.529,5.564,24.979,5.564,34.509,0c9.529-5.563,9.529-14.584-0.001-20.147C116.689,406.959,101.239,406.959,91.709,412.522z"/>
</g>
<g id="Door_1_">
	<g id="Bricks">
		<g>
			<path style="fill:#E0E0E0;" d="M103.875,225.908v3.458c0,1.09,0.765,1.531,1.709,0.986l3.337-1.927v-7.404l-3.337,1.926
				C104.64,223.493,103.875,224.818,103.875,225.908z"/>
			<path style="fill:#E0E0E0;" d="M93.285,222.956v3.458c0,1.09,0.765,1.531,1.709,0.987l13.927-8.041v-7.404l-13.927,8.041
				C94.05,220.54,93.285,221.866,93.285,222.956z"/>
			<path style="fill:#E0E0E0;" d="M100.822,262.047l-15.819,9.133c-0.944,0.545-1.709,1.87-1.709,2.96v3.458
				c0,1.09,0.765,1.532,1.709,0.987l15.819-9.133c0.943-0.545,1.709-1.87,1.709-2.96v-3.458
				C102.53,261.944,101.765,261.502,100.822,262.047z"/>
			<path style="fill:#E0E0E0;" d="M108.921,302.879l-13.927,8.041c-0.943,0.545-1.709,1.87-1.709,2.96v3.458
				c0,1.09,0.765,1.531,1.709,0.986l13.927-8.041V302.879z"/>
			<path style="fill:#E0E0E0;" d="M93.285,186.586v3.458c0,1.09,0.765,1.531,1.709,0.987l13.927-8.04v-7.404l-13.927,8.04
				C94.05,184.171,93.285,185.496,93.285,186.586z"/>
			<path style="fill:#E0E0E0;" d="M77.437,295.914v3.458c0,1.09,0.765,1.532,1.709,0.987l15.819-9.133
				c0.944-0.545,1.709-1.87,1.709-2.96v-3.458c0-1.09-0.765-1.531-1.709-0.987l-15.819,9.133
				C78.203,293.499,77.437,294.824,77.437,295.914z"/>
			<path style="fill:#E0E0E0;" d="M93.285,259.325v3.458c0,1.09,0.765,1.531,1.709,0.987l13.927-8.041l0-7.404l-13.927,8.041
				C94.05,256.91,93.285,258.235,93.285,259.325z"/>
			<path style="fill:#E0E0E0;" d="M91.941,318.094v-3.458c0-1.09-0.765-1.531-1.709-0.986l-15.819,9.133
				c-0.944,0.545-1.709,1.87-1.709,2.96v3.458c0,1.09,0.765,1.532,1.709,0.987l15.819-9.133
				C91.175,320.509,91.941,319.183,91.941,318.094z"/>
			<path style="fill:#E0E0E0;" d="M92.019,176.331L76.2,185.464c-0.943,0.545-1.709,1.87-1.709,2.96v3.458
				c0,1.09,0.765,1.532,1.709,0.987l15.819-9.133c0.944-0.545,1.709-1.87,1.709-2.96v-3.458
				C93.728,176.228,92.963,175.786,92.019,176.331z"/>
			<path style="fill:#E0E0E0;" d="M100.822,189.308l-15.819,9.133c-0.944,0.545-1.709,1.87-1.709,2.96v3.458
				c0,1.09,0.765,1.531,1.709,0.986l15.819-9.133c0.943-0.545,1.709-1.87,1.709-2.96v-3.458
				C102.53,189.205,101.765,188.763,100.822,189.308z"/>
			<path style="fill:#E0E0E0;" d="M100.822,225.678l-15.819,9.133c-0.944,0.545-1.709,1.87-1.709,2.96v3.458
				c0,1.09,0.765,1.532,1.709,0.987l15.819-9.133c0.943-0.545,1.709-1.87,1.709-2.96v-3.458
				C102.53,225.575,101.765,225.133,100.822,225.678z"/>
			<path style="fill:#E0E0E0;" d="M85.002,333.139l15.819-9.133c0.943-0.545,1.709-1.87,1.709-2.96v-3.458
				c0-1.09-0.765-1.531-1.709-0.986l-15.819,9.133c-0.944,0.545-1.709,1.87-1.709,2.96v3.458
				C83.294,333.242,84.059,333.684,85.002,333.139z"/>
		</g>
		<g>
			<path style="fill:#E0E0E0;" d="M235.655,161.923v3.458c0,1.09-0.765,2.415-1.709,2.96l-3.337,1.927v-7.404l3.337-1.927
				C234.889,160.392,235.655,160.833,235.655,161.923z"/>
			<path style="fill:#E0E0E0;" d="M230.608,281.09l13.927-8.041c0.943-0.545,1.709-0.103,1.709,0.987v3.458
				c0,1.09-0.765,2.415-1.709,2.96l-13.927,8.041V281.09z"/>
			<path style="fill:#E0E0E0;" d="M246.245,146.742v3.458c0,1.09-0.765,2.415-1.709,2.96l-13.927,8.041v-7.404l13.927-8.041
				C245.479,145.211,246.245,145.652,246.245,146.742z"/>
			<path style="fill:#E0E0E0;" d="M238.708,194.537l15.819-9.133c0.944-0.545,1.709-0.103,1.709,0.986v3.458
				c0,1.09-0.765,2.415-1.709,2.96l-15.819,9.133c-0.943,0.545-1.709,0.103-1.709-0.987v-3.458
				C236.999,196.407,237.765,195.081,238.708,194.537z"/>
			<path style="fill:#E0E0E0;" d="M230.608,244.721l13.927-8.041c0.943-0.544,1.709-0.103,1.709,0.987v3.458
				c0,1.09-0.765,2.415-1.709,2.96l-13.927,8.041V244.721z"/>
			<path style="fill:#E0E0E0;" d="M246.245,110.373v3.458c0,1.09-0.765,2.415-1.709,2.96l-13.927,8.041v-7.404l13.927-8.041
				C245.479,108.842,246.245,109.283,246.245,110.373z"/>
			<path style="fill:#E0E0E0;" d="M262.092,201.402v3.458c0,1.09-0.765,2.415-1.709,2.96l-15.819,9.133
				c-0.944,0.545-1.709,0.104-1.709-0.986v-3.458c0-1.09,0.765-2.415,1.709-2.96l15.819-9.133
				C261.327,199.871,262.092,200.312,262.092,201.402z"/>
			<path style="fill:#E0E0E0;" d="M246.245,183.112v3.458c0,1.09-0.765,2.415-1.709,2.96l-13.927,8.041l0-7.405l13.927-8.041
				C245.479,181.581,246.245,182.022,246.245,183.112z"/>
			<path style="fill:#E0E0E0;" d="M247.589,240.328v-3.458c0-1.09,0.765-2.415,1.709-2.96l15.819-9.133
				c0.944-0.545,1.709-0.104,1.709,0.986v3.458c0,1.09-0.765,2.415-1.709,2.96l-15.819,9.133
				C248.354,241.859,247.589,241.418,247.589,240.328z"/>
			<path style="fill:#E0E0E0;" d="M238.708,121.798l15.819-9.133c0.944-0.545,1.709-0.103,1.709,0.986v3.458
				c0,1.09-0.765,2.415-1.709,2.96l-15.819,9.133c-0.943,0.544-1.709,0.103-1.709-0.987v-3.458
				C236.999,123.668,237.765,122.342,238.708,121.798z"/>
			<path style="fill:#E0E0E0;" d="M238.708,158.167l15.819-9.133c0.944-0.545,1.709-0.103,1.709,0.986v3.458
				c0,1.09-0.765,2.415-1.709,2.96l-15.819,9.133c-0.943,0.544-1.709,0.103-1.709-0.987v-3.458
				C236.999,160.037,237.765,158.712,238.708,158.167z"/>
			<path style="fill:#E0E0E0;" d="M254.527,247.362l-15.819,9.133c-0.943,0.545-1.709,0.103-1.709-0.986v-3.458
				c0-1.09,0.765-2.415,1.709-2.96l15.819-9.133c0.944-0.545,1.709-0.103,1.709,0.986v3.458
				C256.236,245.492,255.471,246.817,254.527,247.362z"/>
			<path style="fill:#E0E0E0;" d="M230.608,299.275l13.927-8.041c0.943-0.545,1.709-0.103,1.709,0.987v3.458
				c0,1.09-0.765,2.415-1.709,2.96l-13.928,8.041L230.608,299.275z"/>
		</g>
	</g>
	<g id="Door_3_">
		<g id="Door_4_">
			<g>
				<path style="fill:#37474F;" d="M108.921,413.021l0.002-247.582c0-3.452,2.423-7.65,5.414-9.376l107.126-61.85
					c1.495-0.863,2.848-0.945,3.828-0.379c0.979,0.566,2.703,1.57,3.681,2.125c0.989,0.561,1.602,1.778,1.602,3.514v247.584
					l-7.813,4.51l-6.342-3.67l-95.99,55.417v7.33l-7.81,4.51L108.921,413.021z"/>
				<path style="fill:#263238;" d="M134.275,395.323l-13.847,7.993v7.33l-7.81,4.51l-3.697-2.134l0.002-247.582
					c0-1.731,0.61-3.648,1.594-5.349l23.588,13.619L134.275,395.323z"/>
				<path style="fill:#455A64;" d="M112.615,167.587v247.556l7.813-4.501v-7.327l95.99-55.417l6.341,3.667l7.813-4.501V99.477
					c0-3.469-2.437-4.844-5.407-3.125l-107.144,61.859C115.053,159.93,112.615,164.118,112.615,167.587z"/>
			</g>
			<g>
				<polygon style="fill:#27DEBF;" points="120.428,168.904 120.428,406.382 219.098,349.415 219.098,111.95 				"/>
				<polygon style="opacity:0.7;fill:#FFFFFF;" points="120.428,168.904 120.428,406.382 219.098,349.415 219.098,111.95 				"/>
			</g>
			<g style="opacity:0.43;">
				<path style="fill:#27DEBF;" d="M137.245,377.255V178.614l65.037-37.541v198.633L137.245,377.255z M139.972,180.189v192.344
					l59.583-34.401V145.796L139.972,180.189z"/>
				<path style="opacity:0.1;" d="M137.245,178.614v198.641l65.037-37.549V141.073L137.245,178.614z M199.555,338.131
					l-59.583,34.401V180.189l59.583-34.393V338.131z"/>
			</g>
			<polygon style="fill:#263238;" points="219.098,349.415 219.098,111.95 222.755,109.827 222.76,351.568 			"/>
			<polygon style="fill:#E0E0E0;" points="120.428,410.642 222.76,351.568 219.098,349.415 120.428,406.382 			"/>
		</g>
		<g id="Latch_1_">
			<polygon style="fill:#E0E0E0;" points="122.342,258.219 124.315,259.357 124.316,292.09 122.344,290.952 			"/>
			<polygon style="fill:#FAFAFA;" points="124.315,259.357 134.945,253.22 134.946,285.953 124.316,292.09 			"/>
			<path style="opacity:0.05;" d="M134.946,262.228l-4.654,2.687l0.001,5.32c0,0.489,0.529,0.794,0.952,0.55l3.7-2.136
				L134.946,262.228z"/>
			<polygon style="fill:#EBEBEB;" points="134.945,253.22 132.973,252.082 122.342,258.219 124.315,259.357 			"/>
			<g>
				<path style="fill:#E0E0E0;" d="M128.39,263.816l4.876,2.815l1.952-3.381l-4.876-2.815l0,0c-0.25-0.144-0.595-0.123-0.976,0.097
					c-0.762,0.44-1.38,1.51-1.38,2.39C127.985,263.363,128.14,263.672,128.39,263.816z"/>
				<polygon style="opacity:0.1;" points="130.292,264.914 132.065,265.938 132.064,263.609 133.951,262.519 132.179,261.496 
					130.292,262.585 				"/>
				<g>
					<polygon style="fill:#FAFAFA;" points="132.653,263.977 132.654,269.091 152.148,257.841 152.148,252.726 					"/>
					<polygon style="fill:#E0E0E0;" points="132.653,263.977 130.881,262.953 130.881,268.068 132.654,269.091 					"/>
					<polygon style="fill:#EBEBEB;" points="152.148,252.726 150.376,251.702 130.881,262.953 132.653,263.977 					"/>
				</g>
			</g>
			<path style="fill:#455A64;" d="M127.839,278.233c0-1.142,0.802-2.531,1.791-3.102c0.989-0.571,1.791-0.108,1.791,1.034
				c0,0.85-0.446,1.835-1.081,2.52l0,3.341c0,0.386-0.271,0.856-0.606,1.049l-0.209,0.121c-0.334,0.193-0.606,0.036-0.606-0.35
				v-3.339C128.284,279.556,127.839,279.084,127.839,278.233z"/>
		</g>
		<g id="Close_1_">
			<path style="opacity:0.15;" d="M155.5,200.159l30.07-17.361c1.794-1.036,3.248-0.196,3.248,1.876v20.647
				c0,2.072-1.454,4.591-3.248,5.626L155.5,228.307c-1.794,1.036-3.248,0.196-3.248-1.876v-20.647
				C152.251,203.714,153.706,201.195,155.5,200.159z"/>
			<path style="fill:#455A64;" d="M156.648,201.029l30.069-17.361c1.794-1.036,3.248-0.196,3.248,1.876v20.647
				c0,2.072-1.454,4.591-3.248,5.626l-30.069,17.361c-1.794,1.036-3.248,0.196-3.248-1.876v-20.647
				C153.4,204.584,154.854,202.065,156.648,201.029z"/>
			<g>
				<path style="fill:#263238;" d="M165.589,198.033c-0.027,0-0.054-0.004-0.082-0.01c-0.203-0.045-0.328-0.246-0.285-0.449
					l6.095-26.686c0.039-0.164,0.184-0.285,0.352-0.291c0.008,0,0.012,0,0.016,0c0.164,0,0.309,0.107,0.359,0.264l6.095,19.649
					c0.058,0.197-0.051,0.408-0.25,0.469c-0.192,0.07-0.406-0.051-0.469-0.246l-5.681-18.317l-5.783,25.326
					C165.913,197.916,165.761,198.033,165.589,198.033z"/>
			</g>
			<g>
				<path style="fill:#FAFAFA;" d="M157.656,220.878c-0.06-0.063-0.091-0.21-0.091-0.441v-10.81c0-0.231,0.03-0.412,0.091-0.545
					c0.059-0.131,0.156-0.237,0.291-0.314l3.276-1.892c0.105-0.06,0.179-0.044,0.225,0.051c0.044,0.095,0.067,0.269,0.067,0.523
					v0.449c0,0.254-0.022,0.453-0.067,0.6c-0.045,0.147-0.12,0.25-0.225,0.311l-2.165,1.25v3.005l1.929-1.114
					c0.106-0.06,0.18-0.043,0.225,0.053c0.045,0.094,0.067,0.268,0.067,0.522v0.449c0,0.252-0.022,0.453-0.067,0.6
					c-0.044,0.146-0.119,0.249-0.225,0.311l-1.929,1.113v3.282l2.176-1.256c0.098-0.057,0.169-0.039,0.214,0.049
					c0.044,0.09,0.067,0.267,0.067,0.532v0.449c0,0.265-0.022,0.468-0.067,0.608c-0.045,0.141-0.116,0.241-0.214,0.297l-3.286,1.897
					C157.812,220.934,157.714,220.941,157.656,220.878z"/>
				<path style="fill:#FAFAFA;" d="M162.781,217.599v-10.984c0-0.219,0.032-0.399,0.096-0.539c0.063-0.14,0.162-0.249,0.297-0.327
					l1.806-1.043c1.503-0.867,2.255-0.209,2.255,1.979c0,1.371-0.352,2.548-1.055,3.529v0.067c0.299,0.082,0.554,0.563,0.763,1.443
					l0.674,2.944c0.007,0.031,0.014,0.064,0.022,0.1c0.008,0.036,0.011,0.07,0.011,0.106c0,0.264-0.202,0.513-0.606,0.746
					l-0.326,0.188c-0.352,0.203-0.546,0.183-0.582-0.06l-0.618-2.96c-0.09-0.339-0.192-0.55-0.308-0.634
					c-0.116-0.082-0.294-0.055-0.533,0.083l-0.415,0.24v4.266c0,0.334-0.198,0.615-0.595,0.844l-0.303,0.175
					C162.975,217.987,162.781,217.932,162.781,217.599z M165.058,209.91c0.202-0.117,0.374-0.371,0.517-0.763
					c0.142-0.393,0.212-0.849,0.212-1.367c0-0.552-0.068-0.919-0.207-1.097c-0.138-0.179-0.327-0.201-0.567-0.062l-0.763,0.44v3.316
					L165.058,209.91z"/>
				<path style="fill:#FAFAFA;" d="M168.649,214.211v-10.984c0-0.219,0.031-0.399,0.095-0.539c0.063-0.14,0.162-0.249,0.297-0.327
					l1.807-1.043c1.503-0.867,2.255-0.209,2.255,1.979c0,1.371-0.352,2.548-1.055,3.529v0.068c0.299,0.082,0.554,0.563,0.763,1.443
					l0.673,2.944c0.007,0.031,0.015,0.064,0.022,0.1c0.008,0.036,0.012,0.07,0.012,0.106c0,0.265-0.202,0.513-0.605,0.746
					l-0.326,0.188c-0.351,0.203-0.546,0.183-0.583-0.06l-0.617-2.96c-0.09-0.339-0.193-0.55-0.308-0.634
					c-0.116-0.082-0.294-0.055-0.534,0.083l-0.415,0.24v4.266c0,0.334-0.199,0.615-0.596,0.844l-0.303,0.175
					C168.843,214.599,168.649,214.545,168.649,214.211z M170.926,206.523c0.202-0.117,0.374-0.371,0.516-0.763
					c0.142-0.393,0.213-0.849,0.213-1.367c0-0.552-0.069-0.919-0.208-1.097c-0.139-0.179-0.327-0.201-0.566-0.062l-0.763,0.44v3.316
					L170.926,206.523z"/>
				<path style="fill:#FAFAFA;" d="M174.291,205.358c0-4.099,0.964-6.706,2.894-7.82c1.922-1.11,2.883,0.384,2.883,4.484
					c0,4.122-0.961,6.737-2.883,7.847C175.255,210.984,174.291,209.481,174.291,205.358z M178.216,206.364
					c0.225-0.78,0.337-1.936,0.337-3.467s-0.111-2.553-0.332-3.065c-0.22-0.51-0.563-0.632-1.026-0.365
					c-0.471,0.273-0.818,0.793-1.043,1.56c-0.225,0.769-0.336,1.919-0.336,3.451c0,1.53,0.112,2.556,0.336,3.078
					c0.225,0.52,0.572,0.644,1.043,0.373C177.652,207.666,177.992,207.144,178.216,206.364z"/>
				<path style="fill:#FAFAFA;" d="M181.346,206.88v-10.984c0-0.218,0.031-0.398,0.095-0.538c0.063-0.14,0.162-0.249,0.297-0.327
					l1.806-1.044c1.503-0.867,2.255-0.208,2.255,1.98c0,1.371-0.352,2.547-1.055,3.529v0.068c0.299,0.082,0.553,0.562,0.763,1.442
					l0.673,2.944c0.007,0.03,0.015,0.064,0.022,0.099c0.008,0.036,0.011,0.071,0.011,0.106c0,0.265-0.201,0.514-0.605,0.747
					l-0.326,0.188c-0.352,0.202-0.546,0.183-0.583-0.06l-0.617-2.96c-0.09-0.339-0.193-0.55-0.308-0.634
					c-0.116-0.082-0.294-0.055-0.533,0.083l-0.415,0.24v4.266c0,0.334-0.199,0.614-0.595,0.843l-0.304,0.176
					C181.541,207.269,181.346,207.214,181.346,206.88z M183.623,199.193c0.202-0.117,0.374-0.371,0.516-0.764
					c0.142-0.393,0.213-0.848,0.213-1.366c0-0.552-0.069-0.92-0.208-1.097c-0.138-0.179-0.327-0.201-0.566-0.062l-0.763,0.44v3.315
					L183.623,199.193z"/>
			</g>
		</g>
	</g>
	<g id="Tapes">
		<g>
			<g>
				<polygon style="opacity:0.2;" points="112.535,369.857 108.834,367.749 108.84,380.204 112.535,382.309 				"/>
				<polygon style="fill:#27DEBF;" points="112.535,366.542 108.353,364.095 108.359,376.55 112.535,378.994 				"/>
				<polygon style="opacity:0.2;" points="112.535,366.542 108.353,364.095 108.359,376.55 112.535,378.994 				"/>
			</g>
			<g>
				<polygon style="opacity:0.25;" points="230.535,215.013 112.535,369.858 112.536,382.309 230.535,227.465 				"/>
				<polygon style="fill:#27DEBF;" points="230.535,211.698 112.535,366.542 112.536,378.994 230.535,224.15 				"/>
			</g>
			<g>
				<polygon style="fill:#455A64;" points="230.535,224.126 230.535,218.476 224.684,219.375 219.809,225.773 				"/>
				<polygon style="fill:#455A64;" points="215.944,243.316 205.178,244.969 200.302,251.367 211.068,249.714 				"/>
				<polygon style="fill:#455A64;" points="225.695,230.519 214.929,232.172 210.054,238.57 220.82,236.917 				"/>
				<polygon style="fill:#455A64;" points="206.192,256.112 195.426,257.766 190.55,264.164 201.316,262.511 				"/>
				<polygon style="fill:#455A64;" points="196.44,268.909 185.674,270.562 180.798,276.961 191.564,275.308 				"/>
				<polygon style="fill:#455A64;" points="186.688,281.706 175.922,283.359 171.046,289.758 181.812,288.105 				"/>
				<polygon style="fill:#455A64;" points="176.936,294.503 166.17,296.156 161.294,302.554 172.06,300.901 				"/>
				<polygon style="fill:#455A64;" points="167.184,307.3 156.418,308.953 151.542,315.351 162.308,313.698 				"/>
				<polygon style="fill:#455A64;" points="157.432,320.096 146.666,321.75 141.791,328.148 152.557,326.495 				"/>
				<polygon style="fill:#455A64;" points="147.681,332.893 136.915,334.546 132.039,340.945 142.805,339.292 				"/>
				<polygon style="fill:#455A64;" points="137.929,345.69 127.163,347.343 122.287,353.742 133.053,352.089 				"/>
				<polygon style="fill:#455A64;" points="128.177,358.487 117.411,360.14 112.535,366.538 123.301,364.885 				"/>
				<polygon style="fill:#455A64;" points="118.409,371.286 112.535,372.188 112.535,378.994 113.533,377.684 				"/>
			</g>
		</g>
		<g>
			<polygon style="opacity:0.25;" points="112.535,283.523 230.535,298.927 230.534,311.379 112.535,295.975 			"/>
			<polygon style="fill:#27DEBF;" points="112.535,281.418 230.535,296.822 230.534,309.274 112.535,293.87 			"/>
			<g>
				<polygon style="opacity:0.2;" points="112.535,283.522 108.834,281.351 108.84,293.806 112.535,295.974 				"/>
				<polygon style="fill:#27DEBF;" points="112.535,281.418 108.353,278.971 108.359,291.426 112.535,293.87 				"/>
				<polygon style="opacity:0.2;" points="112.535,281.418 108.353,278.971 108.359,291.426 112.535,293.87 				"/>
			</g>
			<g>
				<path style="fill:#37474F;" d="M117.802,284.776c0.033,0.004,0.057,0.037,0.073,0.098c0.015,0.061,0.017,0.132,0.006,0.211
					l-0.168,1.153c-0.011,0.081-0.034,0.147-0.066,0.202c-0.032,0.055-0.065,0.08-0.098,0.077l-1.341-0.172l-0.217,1.489l1.252,0.16
					c0.033,0.003,0.057,0.037,0.073,0.098c0.015,0.061,0.017,0.131,0.006,0.211l-0.168,1.152c-0.012,0.08-0.034,0.148-0.066,0.202
					c-0.031,0.056-0.065,0.081-0.098,0.076l-1.251-0.159l-0.342,2.348c-0.011,0.081-0.033,0.147-0.066,0.202
					c-0.031,0.055-0.065,0.081-0.097,0.076l-0.589-0.075c-0.032-0.005-0.057-0.037-0.073-0.098c-0.015-0.061-0.017-0.132-0.005-0.21
					l1.021-7.025c0.012-0.08,0.034-0.147,0.066-0.202c0.032-0.055,0.065-0.08,0.098-0.075L117.802,284.776z"/>
				<path style="fill:#37474F;" d="M118.196,287.717c0.068-0.405,0.161-0.782,0.276-1.133c0.117-0.351,0.254-0.651,0.41-0.901
					c0.157-0.249,0.331-0.439,0.523-0.574c0.192-0.134,0.399-0.187,0.62-0.159c0.219,0.028,0.401,0.131,0.548,0.308
					c0.149,0.179,0.262,0.407,0.342,0.686c0.08,0.28,0.126,0.603,0.138,0.97c0.011,0.367-0.007,0.753-0.058,1.161
					c-0.039,0.313-0.084,0.64-0.134,0.979c-0.049,0.341-0.099,0.66-0.148,0.957c-0.068,0.404-0.161,0.783-0.276,1.134
					c-0.117,0.35-0.254,0.652-0.411,0.905c-0.157,0.253-0.332,0.445-0.525,0.575c-0.192,0.13-0.399,0.183-0.616,0.154
					c-0.222-0.029-0.406-0.129-0.553-0.303c-0.147-0.174-0.26-0.403-0.339-0.686c-0.08-0.283-0.124-0.608-0.136-0.974
					c-0.012-0.368,0.007-0.754,0.057-1.162c0.038-0.298,0.08-0.617,0.13-0.958C118.094,288.353,118.144,288.027,118.196,287.717z
					 M119.892,289.849c0.022-0.129,0.045-0.275,0.073-0.433c0.025-0.158,0.052-0.322,0.075-0.489
					c0.025-0.167,0.046-0.328,0.066-0.485c0.02-0.157,0.037-0.296,0.052-0.419c0.02-0.182,0.029-0.352,0.025-0.507
					c-0.004-0.155-0.02-0.292-0.05-0.41c-0.031-0.118-0.075-0.215-0.135-0.289c-0.059-0.074-0.135-0.117-0.227-0.129
					c-0.093-0.012-0.178,0.012-0.256,0.067c-0.079,0.056-0.149,0.138-0.212,0.244c-0.063,0.107-0.118,0.234-0.165,0.384
					c-0.048,0.148-0.088,0.313-0.121,0.493c-0.024,0.123-0.048,0.262-0.072,0.418c-0.025,0.156-0.049,0.317-0.073,0.483
					c-0.025,0.167-0.047,0.33-0.069,0.489c-0.022,0.161-0.039,0.306-0.052,0.437c-0.04,0.364-0.033,0.671,0.025,0.923
					c0.056,0.251,0.177,0.389,0.362,0.412c0.185,0.025,0.341-0.078,0.465-0.305C119.728,290.504,119.824,290.21,119.892,289.849z"/>
				<path style="fill:#37474F;" d="M123.628,285.521c0.198,0.025,0.365,0.098,0.507,0.22c0.14,0.121,0.25,0.29,0.331,0.507
					c0.079,0.217,0.126,0.487,0.138,0.809c0.012,0.323-0.012,0.695-0.073,1.116c-0.08,0.543-0.191,0.989-0.336,1.335
					c-0.145,0.347-0.317,0.605-0.514,0.77l0.179,2.659c0.003,0.044,0.002,0.084-0.004,0.121c-0.01,0.064-0.027,0.12-0.054,0.165
					c-0.026,0.044-0.053,0.065-0.08,0.061l-0.61-0.078c-0.06-0.007-0.098-0.046-0.114-0.115c-0.016-0.068-0.026-0.136-0.032-0.203
					l-0.159-2.391l-0.413-0.052l-0.339,2.327c-0.01,0.081-0.033,0.147-0.066,0.201c-0.032,0.055-0.065,0.081-0.098,0.077
					l-0.588-0.075c-0.032-0.004-0.058-0.037-0.073-0.098c-0.016-0.061-0.017-0.131-0.005-0.211l1.021-7.024
					c0.011-0.08,0.034-0.148,0.066-0.202c0.033-0.055,0.066-0.08,0.099-0.076L123.628,285.521z M122.64,288.751l0.507,0.064
					c0.126,0.016,0.238-0.029,0.337-0.134c0.1-0.106,0.171-0.31,0.216-0.615c0.045-0.305,0.034-0.52-0.032-0.647
					c-0.065-0.126-0.161-0.198-0.286-0.214l-0.507-0.065L122.64,288.751z"/>
				<path style="fill:#37474F;" d="M124.751,293.417c-0.032-0.004-0.057-0.037-0.073-0.098c-0.016-0.06-0.017-0.131-0.005-0.21
					l1.021-7.024c0.012-0.081,0.033-0.148,0.066-0.202c0.032-0.056,0.065-0.081,0.098-0.076l1.445,0.185
					c0.199,0.025,0.359,0.114,0.478,0.266c0.117,0.151,0.202,0.339,0.253,0.564c0.052,0.224,0.075,0.475,0.072,0.751
					c-0.004,0.277-0.025,0.549-0.064,0.818c-0.031,0.209-0.067,0.391-0.108,0.544c-0.043,0.154-0.085,0.284-0.129,0.394
					c-0.044,0.109-0.084,0.197-0.122,0.261c-0.039,0.066-0.069,0.115-0.093,0.149c0.088,0.211,0.136,0.448,0.145,0.71
					c0.009,0.264-0.012,0.576-0.065,0.939c-0.044,0.298-0.104,0.586-0.181,0.864c-0.077,0.278-0.172,0.522-0.287,0.734
					c-0.115,0.209-0.248,0.374-0.399,0.49c-0.151,0.118-0.323,0.165-0.513,0.14L124.751,293.417z M125.706,291.822l0.741,0.095
					c0.089,0.011,0.17-0.043,0.242-0.163c0.073-0.119,0.122-0.274,0.15-0.463c0.028-0.189,0.024-0.35-0.012-0.483
					c-0.035-0.133-0.097-0.206-0.187-0.217l-0.741-0.095L125.706,291.822z M127.202,288.325c0.026-0.188,0.026-0.341-0.005-0.459
					c-0.029-0.119-0.089-0.184-0.179-0.196l-0.695-0.089l-0.181,1.239l0.697,0.09c0.089,0.013,0.164-0.036,0.228-0.142
					C127.129,288.662,127.174,288.515,127.202,288.325z"/>
				<path style="fill:#37474F;" d="M128.274,293.868c-0.033-0.005-0.057-0.037-0.073-0.098c-0.015-0.061-0.017-0.131-0.005-0.21
					l1.021-7.025c0.012-0.08,0.034-0.148,0.066-0.202c0.032-0.055,0.065-0.08,0.099-0.076l0.587,0.075
					c0.032,0.004,0.057,0.038,0.073,0.098c0.016,0.061,0.018,0.132,0.006,0.211l-1.022,7.023c-0.011,0.081-0.033,0.148-0.066,0.202
					c-0.033,0.056-0.066,0.081-0.098,0.077L128.274,293.868z"/>
				<path style="fill:#37474F;" d="M132.37,286.638c0.206,0.027,0.385,0.124,0.533,0.296c0.149,0.169,0.266,0.397,0.351,0.681
					c0.086,0.284,0.136,0.617,0.152,0.999c0.016,0.383-0.004,0.796-0.059,1.238c-0.018,0.153-0.038,0.293-0.056,0.42
					c-0.018,0.127-0.036,0.249-0.053,0.364c-0.017,0.116-0.034,0.235-0.052,0.359c-0.018,0.124-0.039,0.258-0.063,0.401
					c-0.074,0.449-0.173,0.854-0.296,1.215c-0.122,0.36-0.263,0.667-0.424,0.919c-0.16,0.253-0.335,0.443-0.524,0.571
					c-0.189,0.126-0.387,0.178-0.593,0.151l-1.212-0.156c-0.033-0.004-0.057-0.036-0.073-0.098c-0.015-0.061-0.017-0.132-0.006-0.21
					l1.022-7.025c0.012-0.081,0.033-0.148,0.066-0.202c0.032-0.055,0.065-0.081,0.098-0.076L132.37,286.638z M132.523,289.704
					c0.103-0.837-0.039-1.28-0.428-1.329l-0.458-0.058l-0.602,4.131l0.48,0.062c0.378,0.048,0.634-0.343,0.77-1.175
					c0.025-0.152,0.047-0.294,0.066-0.429c0.019-0.134,0.039-0.265,0.058-0.392c0.017-0.126,0.037-0.256,0.056-0.386
					C132.485,289.998,132.504,289.856,132.523,289.704z"/>
				<path style="fill:#37474F;" d="M135.961,287.097c0.207,0.027,0.384,0.125,0.533,0.295c0.148,0.17,0.265,0.397,0.351,0.682
					c0.086,0.285,0.136,0.617,0.151,1c0.017,0.382-0.003,0.795-0.059,1.238c-0.019,0.153-0.038,0.292-0.056,0.42
					c-0.019,0.125-0.037,0.247-0.053,0.363c-0.017,0.116-0.034,0.236-0.052,0.359c-0.017,0.123-0.038,0.258-0.063,0.402
					c-0.074,0.448-0.173,0.854-0.295,1.213c-0.123,0.361-0.265,0.668-0.425,0.921c-0.16,0.253-0.335,0.443-0.524,0.57
					c-0.19,0.127-0.387,0.178-0.594,0.151l-1.212-0.155c-0.032-0.004-0.057-0.038-0.073-0.098c-0.015-0.061-0.017-0.131-0.004-0.211
					l1.021-7.023c0.011-0.081,0.033-0.148,0.066-0.202c0.032-0.055,0.066-0.081,0.098-0.076L135.961,287.097z M136.114,290.163
					c0.103-0.836-0.039-1.279-0.428-1.33l-0.458-0.057l-0.601,4.132l0.48,0.061c0.377,0.047,0.633-0.343,0.77-1.175
					c0.025-0.151,0.046-0.294,0.066-0.429c0.019-0.133,0.039-0.265,0.057-0.392c0.018-0.126,0.038-0.255,0.056-0.385
					C136.075,290.457,136.095,290.315,136.114,290.163z"/>
				<path style="fill:#37474F;" d="M139.615,293.546c0.033,0.004,0.058,0.038,0.073,0.098c0.015,0.061,0.017,0.131,0.005,0.21
					l-0.168,1.153c-0.011,0.079-0.033,0.147-0.066,0.201c-0.031,0.055-0.065,0.081-0.097,0.076l-2.127-0.272
					c-0.032-0.004-0.057-0.037-0.073-0.098c-0.015-0.06-0.017-0.131-0.005-0.209l1.021-7.025c0.012-0.081,0.034-0.148,0.066-0.202
					c0.032-0.056,0.065-0.081,0.098-0.076l2.091,0.268c0.033,0.004,0.058,0.037,0.073,0.098c0.016,0.06,0.017,0.131,0.006,0.21
					l-0.168,1.153c-0.011,0.08-0.033,0.148-0.066,0.202c-0.032,0.055-0.066,0.08-0.099,0.076l-1.382-0.176l-0.171,1.173l1.284,0.165
					c0.032,0.005,0.057,0.037,0.073,0.098c0.015,0.061,0.017,0.131,0.005,0.209l-0.168,1.154c-0.011,0.08-0.033,0.146-0.066,0.202
					c-0.032,0.055-0.065,0.08-0.098,0.075l-1.283-0.164l-0.178,1.217L139.615,293.546z"/>
				<path style="fill:#37474F;" d="M142.394,295.672c-0.051-0.006-0.087-0.044-0.108-0.113c-0.023-0.071-0.035-0.123-0.039-0.161
					l-0.487-3.85l-0.534,3.674c-0.012,0.081-0.034,0.148-0.066,0.202c-0.032,0.055-0.065,0.081-0.098,0.077l-0.588-0.075
					c-0.033-0.005-0.057-0.038-0.073-0.098c-0.015-0.062-0.018-0.132-0.006-0.211l1.022-7.025c0.012-0.08,0.033-0.147,0.066-0.202
					c0.032-0.055,0.065-0.08,0.098-0.075l0.466,0.06c0.051,0.006,0.087,0.043,0.109,0.112c0.022,0.069,0.035,0.124,0.038,0.161
					l0.487,3.85l0.533-3.675c0.012-0.079,0.034-0.147,0.066-0.202c0.033-0.054,0.066-0.08,0.098-0.075l0.588,0.074
					c0.033,0.005,0.058,0.037,0.074,0.098c0.015,0.061,0.017,0.132,0.005,0.211l-1.022,7.024c-0.011,0.08-0.033,0.148-0.066,0.202
					c-0.032,0.055-0.065,0.081-0.098,0.076L142.394,295.672z"/>
				<path style="fill:#37474F;" d="M146.716,296.225c-0.032-0.004-0.056-0.037-0.073-0.098c-0.015-0.061-0.017-0.132-0.005-0.211
					l0.162-1.109l-1.414-0.182c-0.033-0.003-0.058-0.037-0.073-0.098c-0.016-0.061-0.017-0.131-0.006-0.211l0.168-1.152
					c0.028-0.189,0.069-0.342,0.127-0.461l1.938-3.927c0.039-0.076,0.071-0.125,0.097-0.148s0.059-0.032,0.098-0.027l0.677,0.087
					c0.033,0.004,0.058,0.037,0.073,0.098c0.017,0.062,0.017,0.132,0.006,0.211l-0.607,4.175l0.385,0.05
					c0.033,0.004,0.058,0.036,0.073,0.098c0.016,0.061,0.017,0.132,0.005,0.211l-0.167,1.153c-0.012,0.08-0.034,0.147-0.066,0.202
					c-0.032,0.055-0.065,0.08-0.098,0.076l-0.386-0.05l-0.161,1.11c-0.012,0.08-0.034,0.147-0.066,0.201
					c-0.032,0.055-0.065,0.08-0.098,0.077L146.716,296.225z M147.074,293.07l0.292-2.001l-0.947,1.918L147.074,293.07z"/>
				<path style="fill:#37474F;" d="M151.085,288.92c0.224,0.03,0.406,0.133,0.544,0.313c0.138,0.181,0.241,0.412,0.308,0.693
					c0.067,0.282,0.101,0.604,0.101,0.971c0,0.365-0.025,0.744-0.072,1.136c-0.04,0.312-0.084,0.64-0.134,0.98
					c-0.05,0.341-0.099,0.659-0.148,0.956c-0.066,0.391-0.152,0.761-0.256,1.113c-0.104,0.353-0.229,0.657-0.374,0.911
					c-0.146,0.254-0.31,0.451-0.495,0.59c-0.185,0.139-0.389,0.194-0.614,0.165c-0.225-0.029-0.406-0.133-0.544-0.313
					c-0.138-0.18-0.241-0.411-0.309-0.693c-0.067-0.281-0.101-0.605-0.101-0.97c0-0.366,0.024-0.745,0.072-1.137
					c0.038-0.298,0.08-0.617,0.13-0.958c0.05-0.34,0.101-0.666,0.152-0.978c0.066-0.39,0.151-0.761,0.256-1.112
					c0.104-0.353,0.228-0.656,0.374-0.91c0.145-0.255,0.31-0.451,0.494-0.591C150.656,288.947,150.861,288.892,151.085,288.92z
					 M150.863,293.81c0.101-0.615,0.189-1.223,0.266-1.826c0.019-0.182,0.033-0.35,0.039-0.506c0.005-0.154-0.002-0.289-0.021-0.406
					c-0.019-0.116-0.054-0.212-0.105-0.285c-0.051-0.073-0.12-0.115-0.21-0.126c-0.089-0.012-0.17,0.011-0.239,0.069
					c-0.069,0.058-0.13,0.141-0.182,0.248c-0.052,0.108-0.099,0.236-0.139,0.387c-0.04,0.15-0.075,0.315-0.104,0.497
					c-0.102,0.599-0.192,1.208-0.266,1.825c-0.024,0.182-0.038,0.351-0.043,0.504c-0.006,0.156,0.002,0.292,0.023,0.408
					c0.021,0.118,0.056,0.213,0.107,0.284c0.051,0.073,0.121,0.116,0.21,0.127c0.09,0.011,0.17-0.012,0.239-0.069
					c0.069-0.058,0.131-0.14,0.184-0.248c0.054-0.108,0.1-0.236,0.139-0.387C150.799,294.156,150.834,293.99,150.863,293.81z"/>
				<path style="fill:#37474F;" d="M155.509,289.596c0.032,0.004,0.057,0.038,0.073,0.098c0.015,0.061,0.017,0.131,0.005,0.21
					l-0.167,1.153c-0.012,0.08-0.032,0.151-0.064,0.214c-0.03,0.063-0.058,0.114-0.081,0.156l-0.736,1.256
					c0.213,0.175,0.366,0.445,0.463,0.807c0.097,0.363,0.105,0.828,0.022,1.392c-0.119,0.82-0.325,1.421-0.619,1.804
					c-0.293,0.384-0.65,0.549-1.068,0.495c-0.216-0.027-0.398-0.114-0.546-0.259c-0.148-0.143-0.264-0.325-0.348-0.542
					c-0.085-0.217-0.138-0.458-0.163-0.724c-0.024-0.265-0.018-0.532,0.018-0.8c0.01-0.065,0.027-0.12,0.053-0.166
					c0.026-0.045,0.053-0.065,0.08-0.062l0.565,0.072c0.063,0.008,0.106,0.048,0.129,0.123c0.023,0.072,0.048,0.151,0.077,0.236
					c0.03,0.085,0.071,0.165,0.125,0.243c0.053,0.076,0.141,0.123,0.261,0.138c0.143,0.019,0.271-0.024,0.382-0.128
					c0.111-0.104,0.185-0.283,0.222-0.537c0.037-0.254,0.017-0.444-0.061-0.573c-0.077-0.128-0.187-0.2-0.331-0.219l-0.372-0.047
					c-0.033-0.005-0.058-0.037-0.073-0.098c-0.017-0.061-0.018-0.131-0.006-0.211l0.136-0.934c0.011-0.081,0.033-0.151,0.064-0.214
					c0.03-0.064,0.059-0.118,0.087-0.167l0.645-1.102l-1.172-0.149c-0.032-0.004-0.057-0.037-0.072-0.098
					c-0.016-0.062-0.018-0.131-0.006-0.212l0.167-1.152c0.012-0.08,0.034-0.146,0.066-0.202c0.031-0.054,0.065-0.08,0.098-0.075
					L155.509,289.596z"/>
				<path style="fill:#37474F;" d="M160.103,290.184c0.032,0.004,0.057,0.037,0.073,0.098c0.015,0.061,0.017,0.132,0.006,0.211
					l-0.169,1.152c-0.01,0.081-0.033,0.148-0.066,0.202c-0.032,0.055-0.065,0.081-0.098,0.077l-1.341-0.172l-0.217,1.489l1.252,0.16
					c0.032,0.004,0.057,0.037,0.073,0.098c0.015,0.062,0.018,0.132,0.006,0.212l-0.168,1.153c-0.011,0.08-0.034,0.146-0.066,0.202
					c-0.032,0.055-0.065,0.08-0.098,0.076l-1.251-0.161l-0.342,2.348c-0.011,0.081-0.034,0.148-0.066,0.202
					c-0.032,0.056-0.065,0.081-0.097,0.077l-0.589-0.075c-0.031-0.005-0.056-0.038-0.072-0.098
					c-0.016-0.062-0.017-0.132-0.005-0.211l1.021-7.025c0.012-0.079,0.033-0.147,0.066-0.202c0.031-0.055,0.065-0.08,0.098-0.075
					L160.103,290.184z"/>
				<path style="fill:#37474F;" d="M160.468,293.121c0.068-0.405,0.16-0.782,0.276-1.133c0.117-0.351,0.254-0.651,0.41-0.901
					c0.157-0.249,0.331-0.44,0.522-0.574c0.192-0.134,0.399-0.188,0.621-0.159c0.218,0.028,0.401,0.131,0.549,0.308
					c0.148,0.178,0.261,0.406,0.341,0.686c0.08,0.279,0.126,0.603,0.137,0.97c0.012,0.367-0.007,0.753-0.057,1.161
					c-0.039,0.311-0.084,0.639-0.134,0.979c-0.049,0.34-0.099,0.66-0.148,0.957c-0.068,0.404-0.161,0.782-0.276,1.133
					c-0.117,0.35-0.254,0.652-0.411,0.906c-0.157,0.251-0.331,0.445-0.525,0.575c-0.193,0.13-0.398,0.182-0.616,0.154
					c-0.222-0.03-0.406-0.13-0.553-0.304c-0.147-0.174-0.26-0.402-0.338-0.685c-0.08-0.284-0.126-0.608-0.137-0.975
					c-0.012-0.367,0.006-0.754,0.057-1.161c0.037-0.298,0.08-0.617,0.13-0.958C160.365,293.757,160.416,293.431,160.468,293.121z
					 M162.164,295.253c0.021-0.129,0.045-0.274,0.072-0.433c0.026-0.159,0.052-0.321,0.076-0.489
					c0.024-0.166,0.046-0.328,0.066-0.484c0.02-0.157,0.038-0.296,0.052-0.42c0.02-0.182,0.029-0.351,0.025-0.506
					c-0.003-0.155-0.02-0.292-0.05-0.411c-0.03-0.117-0.075-0.215-0.134-0.289c-0.06-0.073-0.136-0.116-0.228-0.128
					c-0.093-0.012-0.178,0.01-0.257,0.066c-0.078,0.056-0.149,0.139-0.211,0.244c-0.063,0.107-0.118,0.235-0.165,0.383
					c-0.048,0.149-0.087,0.315-0.12,0.495c-0.025,0.123-0.049,0.262-0.073,0.418c-0.024,0.155-0.049,0.315-0.073,0.483
					c-0.024,0.167-0.046,0.33-0.068,0.489c-0.022,0.16-0.039,0.306-0.052,0.437c-0.04,0.364-0.032,0.671,0.025,0.923
					c0.056,0.251,0.177,0.388,0.362,0.411c0.185,0.024,0.341-0.078,0.465-0.305C162,295.908,162.096,295.615,162.164,295.253z"/>
				<path style="fill:#37474F;" d="M165.889,290.923c0.198,0.025,0.367,0.099,0.508,0.22c0.141,0.121,0.251,0.29,0.331,0.507
					c0.08,0.217,0.126,0.487,0.137,0.809c0.013,0.323-0.011,0.695-0.073,1.115c-0.079,0.544-0.191,0.99-0.336,1.337
					c-0.145,0.346-0.317,0.603-0.514,0.77l0.179,2.659c0.004,0.044,0.002,0.084-0.003,0.121c-0.01,0.065-0.027,0.12-0.053,0.165
					c-0.027,0.044-0.053,0.065-0.08,0.061l-0.611-0.078c-0.059-0.007-0.097-0.046-0.114-0.115c-0.016-0.068-0.026-0.135-0.031-0.203
					l-0.16-2.391l-0.413-0.052l-0.338,2.327c-0.011,0.081-0.034,0.147-0.066,0.202c-0.033,0.055-0.066,0.08-0.098,0.076
					l-0.589-0.075c-0.032-0.004-0.057-0.037-0.073-0.098c-0.016-0.061-0.018-0.132-0.005-0.211l1.021-7.024
					c0.012-0.08,0.034-0.147,0.066-0.202c0.032-0.055,0.065-0.08,0.098-0.076L165.889,290.923z M164.903,294.152l0.507,0.064
					c0.126,0.017,0.238-0.029,0.337-0.133c0.099-0.106,0.171-0.311,0.215-0.615c0.045-0.305,0.033-0.521-0.031-0.647
					c-0.066-0.126-0.162-0.198-0.287-0.214l-0.507-0.065L164.903,294.152z"/>
				<path style="fill:#37474F;" d="M167.019,298.819c-0.033-0.004-0.057-0.037-0.073-0.098c-0.015-0.061-0.017-0.131-0.005-0.21
					l1.021-7.025c0.012-0.079,0.034-0.146,0.066-0.202c0.032-0.055,0.065-0.08,0.098-0.074l1.444,0.184
					c0.2,0.026,0.359,0.115,0.478,0.267c0.117,0.151,0.202,0.34,0.254,0.564c0.051,0.225,0.075,0.475,0.071,0.752
					c-0.004,0.277-0.025,0.548-0.064,0.816c-0.03,0.21-0.066,0.393-0.109,0.546c-0.042,0.154-0.085,0.285-0.128,0.394
					c-0.044,0.107-0.085,0.195-0.122,0.261c-0.039,0.064-0.069,0.115-0.093,0.148c0.088,0.211,0.137,0.448,0.145,0.711
					c0.01,0.263-0.012,0.576-0.066,0.938c-0.043,0.298-0.103,0.585-0.18,0.863c-0.077,0.279-0.173,0.523-0.287,0.734
					c-0.114,0.211-0.247,0.374-0.399,0.492c-0.151,0.118-0.323,0.163-0.513,0.139L167.019,298.819z M167.973,297.224l0.741,0.096
					c0.09,0.011,0.17-0.044,0.243-0.164c0.073-0.12,0.122-0.273,0.149-0.462c0.027-0.189,0.024-0.35-0.012-0.484
					c-0.036-0.134-0.097-0.206-0.187-0.217l-0.741-0.094L167.973,297.224z M169.469,293.728c0.028-0.189,0.026-0.342-0.004-0.461
					c-0.03-0.117-0.09-0.183-0.18-0.194l-0.695-0.089l-0.181,1.238l0.697,0.089c0.089,0.012,0.165-0.036,0.228-0.142
					C169.396,294.064,169.442,293.916,169.469,293.728z"/>
				<path style="fill:#37474F;" d="M170.549,299.271c-0.032-0.004-0.057-0.036-0.073-0.098c-0.016-0.061-0.018-0.132-0.005-0.211
					l1.021-7.024c0.012-0.08,0.033-0.148,0.066-0.202c0.031-0.056,0.065-0.081,0.098-0.076l0.588,0.075
					c0.032,0.004,0.057,0.037,0.073,0.098c0.015,0.061,0.017,0.132,0.005,0.212l-1.021,7.024c-0.011,0.081-0.034,0.147-0.066,0.201
					c-0.032,0.055-0.065,0.081-0.097,0.077L170.549,299.271z"/>
				<path style="fill:#37474F;" d="M174.661,292.045c0.207,0.026,0.385,0.124,0.533,0.295c0.149,0.169,0.266,0.397,0.351,0.681
					c0.086,0.284,0.136,0.617,0.152,1c0.016,0.382-0.004,0.796-0.059,1.238c-0.02,0.153-0.039,0.293-0.057,0.42
					c-0.018,0.127-0.036,0.249-0.053,0.364c-0.017,0.116-0.033,0.235-0.052,0.358c-0.017,0.123-0.038,0.258-0.063,0.402
					c-0.073,0.449-0.173,0.854-0.295,1.214c-0.123,0.361-0.265,0.668-0.424,0.92c-0.161,0.253-0.336,0.443-0.525,0.57
					c-0.189,0.127-0.387,0.178-0.593,0.151l-1.212-0.155c-0.032-0.004-0.058-0.037-0.073-0.098
					c-0.015-0.061-0.017-0.131-0.004-0.209l1.021-7.025c0.011-0.081,0.034-0.148,0.066-0.202c0.033-0.056,0.066-0.081,0.099-0.077
					L174.661,292.045z M174.814,295.11c0.103-0.836-0.039-1.279-0.428-1.329l-0.457-0.057l-0.602,4.131l0.481,0.062
					c0.376,0.048,0.633-0.343,0.769-1.176c0.025-0.151,0.047-0.294,0.066-0.429c0.019-0.133,0.039-0.264,0.058-0.392
					c0.018-0.125,0.037-0.255,0.056-0.385C174.775,295.403,174.795,295.262,174.814,295.11z"/>
				<path style="fill:#37474F;" d="M178.248,292.503c0.206,0.027,0.384,0.124,0.533,0.295c0.149,0.169,0.266,0.397,0.35,0.681
					c0.086,0.286,0.136,0.617,0.152,1c0.016,0.383-0.004,0.796-0.059,1.238c-0.019,0.153-0.038,0.293-0.057,0.42
					c-0.018,0.127-0.036,0.249-0.052,0.364c-0.017,0.116-0.034,0.235-0.053,0.359c-0.017,0.124-0.038,0.257-0.063,0.401
					c-0.074,0.449-0.173,0.854-0.296,1.214c-0.122,0.361-0.264,0.668-0.424,0.92c-0.16,0.253-0.335,0.443-0.524,0.571
					c-0.19,0.126-0.387,0.177-0.594,0.15l-1.211-0.155c-0.033-0.004-0.058-0.037-0.073-0.098c-0.015-0.06-0.017-0.131-0.005-0.209
					l1.021-7.025c0.012-0.081,0.034-0.148,0.066-0.202c0.032-0.055,0.065-0.081,0.099-0.076L178.248,292.503z M178.401,295.569
					c0.103-0.836-0.039-1.28-0.428-1.329l-0.457-0.058l-0.602,4.131l0.48,0.062c0.377,0.048,0.634-0.343,0.769-1.176
					c0.025-0.151,0.048-0.293,0.067-0.428c0.019-0.134,0.039-0.265,0.057-0.393c0.018-0.125,0.038-0.255,0.057-0.385
					C178.362,295.862,178.381,295.721,178.401,295.569z"/>
				<path style="fill:#37474F;" d="M181.906,298.952c0.032,0.004,0.056,0.037,0.072,0.097c0.016,0.063,0.017,0.132,0.006,0.211
					l-0.167,1.153c-0.012,0.08-0.034,0.148-0.066,0.202c-0.032,0.056-0.066,0.081-0.098,0.076l-2.127-0.272
					c-0.032-0.004-0.057-0.037-0.073-0.098c-0.016-0.061-0.018-0.131-0.005-0.21l1.021-7.025c0.012-0.079,0.034-0.146,0.066-0.202
					c0.032-0.055,0.065-0.08,0.098-0.075l2.091,0.268c0.032,0.005,0.057,0.037,0.073,0.098c0.016,0.061,0.017,0.132,0.006,0.212
					l-0.168,1.152c-0.011,0.08-0.034,0.148-0.066,0.202c-0.032,0.055-0.065,0.081-0.099,0.076l-1.382-0.176l-0.171,1.173
					l1.284,0.165c0.032,0.004,0.057,0.037,0.073,0.098c0.015,0.06,0.017,0.131,0.005,0.21l-0.168,1.153
					c-0.011,0.081-0.033,0.148-0.066,0.202c-0.032,0.055-0.065,0.081-0.098,0.076l-1.284-0.164l-0.177,1.217L181.906,298.952z"/>
				<path style="fill:#37474F;" d="M184.669,301.077c-0.052-0.006-0.087-0.044-0.109-0.113c-0.022-0.071-0.035-0.124-0.039-0.161
					l-0.486-3.85l-0.535,3.674c-0.011,0.081-0.033,0.148-0.066,0.202c-0.032,0.055-0.065,0.081-0.097,0.077l-0.588-0.076
					c-0.033-0.005-0.057-0.037-0.073-0.098c-0.016-0.061-0.018-0.132-0.005-0.211l1.021-7.024c0.012-0.08,0.034-0.148,0.066-0.202
					c0.032-0.056,0.065-0.081,0.098-0.076l0.466,0.059c0.051,0.007,0.087,0.045,0.109,0.114c0.022,0.069,0.035,0.123,0.039,0.16
					l0.486,3.85l0.535-3.674c0.011-0.081,0.033-0.148,0.066-0.202c0.031-0.056,0.065-0.081,0.097-0.076l0.588,0.074
					c0.034,0.005,0.058,0.037,0.073,0.099c0.016,0.061,0.017,0.132,0.005,0.21l-1.021,7.025c-0.012,0.08-0.034,0.148-0.066,0.202
					c-0.033,0.055-0.066,0.079-0.099,0.076L184.669,301.077z"/>
				<path style="fill:#37474F;" d="M188.989,301.628c-0.033-0.004-0.057-0.037-0.073-0.098c-0.016-0.061-0.018-0.132-0.006-0.211
					l0.162-1.109l-1.414-0.182c-0.033-0.003-0.057-0.036-0.073-0.097c-0.015-0.062-0.017-0.132-0.006-0.212l0.169-1.152
					c0.026-0.189,0.069-0.342,0.126-0.46l1.938-3.928c0.038-0.076,0.071-0.125,0.097-0.148c0.026-0.022,0.06-0.032,0.098-0.027
					l0.677,0.087c0.033,0.004,0.058,0.037,0.073,0.098c0.016,0.062,0.018,0.132,0.005,0.211l-0.607,4.175l0.386,0.05
					c0.032,0.004,0.057,0.036,0.073,0.098c0.016,0.061,0.017,0.132,0.005,0.211l-0.167,1.153c-0.012,0.08-0.034,0.148-0.066,0.202
					c-0.033,0.055-0.065,0.08-0.099,0.076l-0.386-0.05l-0.162,1.11c-0.011,0.081-0.033,0.148-0.066,0.201
					c-0.033,0.055-0.065,0.081-0.098,0.077L188.989,301.628z M189.347,298.473l0.29-2l-0.945,1.917L189.347,298.473z"/>
				<path style="fill:#37474F;" d="M193.367,294.325c0.225,0.03,0.406,0.133,0.545,0.313c0.138,0.181,0.24,0.412,0.308,0.693
					c0.066,0.283,0.101,0.606,0.101,0.972c-0.001,0.365-0.025,0.745-0.073,1.137c-0.039,0.311-0.083,0.639-0.133,0.979
					c-0.05,0.341-0.099,0.659-0.149,0.956c-0.066,0.391-0.151,0.762-0.256,1.113c-0.104,0.353-0.229,0.657-0.374,0.911
					c-0.145,0.254-0.309,0.451-0.495,0.59c-0.185,0.139-0.389,0.194-0.614,0.165c-0.224-0.029-0.405-0.133-0.544-0.313
					c-0.138-0.18-0.24-0.411-0.308-0.693c-0.067-0.282-0.101-0.606-0.101-0.971c0-0.366,0.024-0.745,0.072-1.137
					c0.038-0.298,0.08-0.617,0.13-0.958c0.05-0.339,0.101-0.665,0.151-0.978c0.066-0.39,0.151-0.761,0.256-1.112
					c0.104-0.353,0.229-0.656,0.375-0.91c0.144-0.255,0.31-0.451,0.494-0.591C192.938,294.353,193.142,294.297,193.367,294.325z
					 M193.144,299.214c0.102-0.615,0.191-1.223,0.267-1.826c0.02-0.182,0.033-0.35,0.039-0.505c0.005-0.154-0.002-0.29-0.021-0.407
					c-0.02-0.116-0.055-0.212-0.105-0.284c-0.051-0.073-0.121-0.115-0.21-0.126c-0.09-0.012-0.17,0.011-0.239,0.069
					c-0.069,0.058-0.13,0.14-0.183,0.248c-0.052,0.108-0.098,0.236-0.138,0.387c-0.04,0.15-0.075,0.315-0.104,0.497
					c-0.103,0.599-0.192,1.208-0.266,1.825c-0.024,0.182-0.038,0.351-0.044,0.504c-0.006,0.156,0.002,0.292,0.023,0.408
					c0.021,0.118,0.057,0.213,0.108,0.284c0.051,0.073,0.12,0.115,0.21,0.127c0.089,0.011,0.169-0.012,0.238-0.069
					c0.07-0.058,0.131-0.14,0.185-0.248c0.053-0.108,0.1-0.236,0.138-0.387C193.082,299.562,193.116,299.396,193.144,299.214z"/>
				<path style="fill:#37474F;" d="M197.776,295c0.032,0.004,0.057,0.037,0.072,0.098c0.016,0.06,0.018,0.132,0.007,0.21
					l-0.168,1.153c-0.012,0.081-0.033,0.15-0.063,0.213c-0.031,0.064-0.058,0.116-0.082,0.157l-0.736,1.257
					c0.212,0.174,0.366,0.443,0.463,0.806c0.097,0.363,0.104,0.828,0.022,1.393c-0.119,0.818-0.325,1.419-0.619,1.803
					s-0.65,0.548-1.069,0.495c-0.215-0.028-0.397-0.115-0.546-0.258c-0.147-0.145-0.264-0.326-0.348-0.544
					c-0.084-0.217-0.138-0.458-0.162-0.724c-0.024-0.264-0.017-0.531,0.018-0.799c0.01-0.066,0.027-0.121,0.053-0.166
					c0.027-0.043,0.053-0.065,0.08-0.061l0.566,0.073c0.063,0.007,0.105,0.048,0.128,0.122c0.023,0.072,0.049,0.152,0.077,0.236
					c0.03,0.086,0.071,0.167,0.126,0.243c0.053,0.077,0.141,0.124,0.261,0.138c0.143,0.019,0.271-0.023,0.382-0.127
					c0.111-0.104,0.185-0.283,0.221-0.538c0.038-0.253,0.017-0.444-0.06-0.573c-0.078-0.128-0.188-0.2-0.331-0.218l-0.372-0.048
					c-0.033-0.004-0.057-0.037-0.072-0.097c-0.017-0.062-0.018-0.132-0.007-0.212l0.136-0.935c0.011-0.081,0.033-0.15,0.064-0.213
					c0.03-0.064,0.059-0.118,0.088-0.167l0.644-1.102l-1.171-0.149c-0.032-0.004-0.057-0.038-0.073-0.098
					c-0.016-0.06-0.017-0.131-0.005-0.211l0.168-1.152c0.011-0.081,0.033-0.148,0.066-0.202c0.032-0.055,0.065-0.081,0.097-0.077
					L197.776,295z"/>
				<path style="fill:#37474F;" d="M202.363,295.586c0.032,0.004,0.057,0.038,0.073,0.098c0.015,0.061,0.017,0.132,0.006,0.211
					l-0.168,1.153c-0.011,0.08-0.034,0.147-0.066,0.201c-0.033,0.055-0.065,0.081-0.099,0.077l-1.341-0.172l-0.217,1.489l1.252,0.16
					c0.032,0.004,0.057,0.037,0.073,0.098c0.016,0.061,0.017,0.132,0.006,0.211l-0.168,1.153c-0.011,0.081-0.033,0.147-0.066,0.202
					c-0.032,0.055-0.065,0.08-0.098,0.075l-1.251-0.159l-0.342,2.347c-0.011,0.081-0.034,0.148-0.066,0.202
					c-0.032,0.056-0.065,0.081-0.097,0.077l-0.589-0.076c-0.032-0.004-0.057-0.037-0.073-0.097
					c-0.016-0.062-0.018-0.132-0.005-0.211l1.021-7.024c0.012-0.08,0.034-0.148,0.066-0.202c0.031-0.056,0.065-0.081,0.098-0.076
					L202.363,295.586z"/>
				<path style="fill:#37474F;" d="M202.763,298.528c0.068-0.405,0.16-0.782,0.276-1.133c0.117-0.351,0.254-0.651,0.41-0.9
					c0.157-0.25,0.331-0.441,0.523-0.575c0.191-0.134,0.398-0.187,0.619-0.159c0.219,0.028,0.401,0.132,0.549,0.309
					c0.149,0.177,0.261,0.406,0.342,0.685c0.08,0.281,0.125,0.603,0.137,0.971c0.012,0.367-0.007,0.753-0.057,1.161
					c-0.039,0.312-0.083,0.639-0.134,0.98c-0.049,0.341-0.099,0.659-0.148,0.956c-0.068,0.405-0.16,0.782-0.277,1.134
					c-0.116,0.349-0.254,0.651-0.41,0.905c-0.157,0.253-0.332,0.446-0.525,0.575c-0.193,0.131-0.398,0.182-0.616,0.154
					c-0.222-0.029-0.406-0.13-0.553-0.303c-0.147-0.174-0.261-0.402-0.339-0.685c-0.079-0.284-0.125-0.608-0.136-0.975
					c-0.012-0.367,0.007-0.754,0.056-1.162c0.038-0.298,0.081-0.617,0.131-0.958C202.661,299.165,202.712,298.84,202.763,298.528z
					 M204.459,300.661c0.022-0.131,0.046-0.275,0.073-0.434c0.026-0.159,0.052-0.321,0.076-0.488
					c0.025-0.166,0.046-0.33,0.066-0.485c0.02-0.157,0.038-0.296,0.052-0.421c0.021-0.182,0.03-0.35,0.026-0.506
					c-0.004-0.156-0.019-0.292-0.051-0.412c-0.03-0.117-0.074-0.214-0.133-0.288c-0.059-0.074-0.136-0.116-0.228-0.128
					c-0.094-0.013-0.178,0.009-0.257,0.066c-0.078,0.056-0.149,0.138-0.211,0.245c-0.063,0.106-0.118,0.234-0.166,0.382
					c-0.047,0.149-0.087,0.314-0.12,0.495c-0.025,0.122-0.048,0.261-0.072,0.417c-0.025,0.155-0.049,0.317-0.073,0.483
					c-0.024,0.167-0.046,0.33-0.069,0.49c-0.021,0.159-0.038,0.305-0.052,0.437c-0.04,0.364-0.032,0.671,0.024,0.923
					c0.057,0.251,0.178,0.388,0.363,0.412c0.185,0.023,0.34-0.079,0.464-0.306C204.296,301.316,204.391,301.022,204.459,300.661z"/>
				<path style="fill:#37474F;" d="M208.166,296.327c0.198,0.025,0.367,0.099,0.508,0.22c0.14,0.122,0.251,0.29,0.331,0.507
					c0.08,0.217,0.125,0.487,0.137,0.81c0.013,0.323-0.01,0.695-0.073,1.114c-0.08,0.544-0.191,0.99-0.336,1.337
					c-0.145,0.346-0.317,0.604-0.515,0.77l0.18,2.659c0.004,0.046,0.002,0.085-0.004,0.121c-0.01,0.065-0.028,0.12-0.053,0.166
					c-0.027,0.045-0.053,0.064-0.08,0.062l-0.61-0.079c-0.06-0.007-0.097-0.046-0.114-0.114c-0.016-0.069-0.026-0.136-0.031-0.203
					l-0.16-2.39l-0.413-0.054l-0.338,2.327c-0.011,0.081-0.034,0.148-0.066,0.202c-0.032,0.055-0.065,0.081-0.097,0.076
					l-0.588-0.075c-0.032-0.004-0.057-0.037-0.073-0.097c-0.015-0.063-0.017-0.132-0.005-0.211l1.021-7.024
					c0.012-0.08,0.033-0.147,0.066-0.202c0.032-0.056,0.065-0.081,0.098-0.075L208.166,296.327z M207.18,299.556l0.507,0.066
					c0.126,0.015,0.238-0.03,0.338-0.135c0.1-0.106,0.17-0.31,0.215-0.615c0.044-0.303,0.033-0.519-0.031-0.645
					c-0.066-0.128-0.161-0.199-0.287-0.215l-0.507-0.064L207.18,299.556z"/>
				<path style="fill:#37474F;" d="M209.29,304.224c-0.032-0.004-0.057-0.037-0.073-0.097c-0.015-0.062-0.017-0.132-0.005-0.211
					l1.022-7.025c0.011-0.08,0.033-0.147,0.066-0.202c0.032-0.056,0.065-0.081,0.098-0.075l1.444,0.184
					c0.201,0.026,0.36,0.114,0.478,0.267c0.118,0.151,0.203,0.339,0.254,0.564c0.052,0.224,0.075,0.475,0.071,0.752
					c-0.004,0.276-0.025,0.548-0.064,0.816c-0.03,0.21-0.066,0.393-0.108,0.546c-0.043,0.154-0.085,0.285-0.129,0.394
					c-0.043,0.107-0.084,0.195-0.122,0.261c-0.039,0.064-0.069,0.115-0.093,0.148c0.089,0.211,0.137,0.448,0.146,0.711
					c0.009,0.263-0.013,0.576-0.066,0.938c-0.044,0.298-0.103,0.585-0.181,0.864c-0.077,0.278-0.172,0.522-0.287,0.734
					c-0.114,0.21-0.247,0.373-0.399,0.491c-0.151,0.118-0.323,0.163-0.513,0.139L209.29,304.224z M210.245,302.629l0.741,0.096
					c0.089,0.011,0.17-0.043,0.243-0.163c0.072-0.12,0.122-0.274,0.149-0.463c0.027-0.189,0.024-0.35-0.012-0.484
					c-0.036-0.133-0.098-0.206-0.188-0.217l-0.74-0.094L210.245,302.629z M211.741,299.133c0.028-0.189,0.026-0.342-0.004-0.46
					c-0.03-0.118-0.09-0.183-0.179-0.195l-0.695-0.089l-0.181,1.238l0.696,0.09c0.089,0.011,0.165-0.037,0.228-0.142
					C211.667,299.469,211.713,299.321,211.741,299.133z"/>
				<path style="fill:#37474F;" d="M212.826,304.676c-0.032-0.004-0.057-0.038-0.073-0.098c-0.016-0.062-0.018-0.132-0.005-0.211
					l1.021-7.024c0.012-0.08,0.033-0.148,0.066-0.202c0.032-0.056,0.065-0.081,0.098-0.076l0.588,0.075
					c0.033,0.003,0.057,0.037,0.073,0.097c0.015,0.062,0.018,0.132,0.006,0.212l-1.022,7.023c-0.011,0.081-0.033,0.148-0.066,0.202
					c-0.032,0.056-0.065,0.081-0.097,0.077L212.826,304.676z"/>
				<path style="fill:#37474F;" d="M216.916,297.446c0.206,0.028,0.384,0.125,0.533,0.295c0.148,0.171,0.265,0.397,0.351,0.682
					c0.085,0.285,0.136,0.617,0.152,1c0.015,0.381-0.004,0.796-0.059,1.238c-0.019,0.153-0.038,0.292-0.057,0.42
					c-0.018,0.126-0.036,0.248-0.052,0.364c-0.017,0.116-0.034,0.235-0.053,0.358c-0.018,0.123-0.039,0.258-0.063,0.402
					c-0.074,0.449-0.173,0.853-0.296,1.213c-0.122,0.361-0.265,0.668-0.424,0.921c-0.161,0.253-0.335,0.443-0.524,0.569
					c-0.19,0.128-0.387,0.179-0.594,0.152l-1.212-0.155c-0.032-0.004-0.057-0.038-0.073-0.098c-0.015-0.061-0.017-0.132-0.005-0.211
					l1.022-7.025c0.011-0.08,0.033-0.147,0.066-0.202c0.032-0.055,0.065-0.08,0.098-0.075L216.916,297.446z M217.069,300.511
					c0.103-0.836-0.039-1.278-0.428-1.328l-0.458-0.058l-0.601,4.132l0.48,0.061c0.377,0.048,0.634-0.343,0.769-1.174
					c0.025-0.152,0.047-0.295,0.067-0.43c0.019-0.134,0.038-0.264,0.057-0.392c0.018-0.126,0.037-0.255,0.056-0.385
					C217.031,300.806,217.049,300.663,217.069,300.511z"/>
				<path style="fill:#37474F;" d="M220.513,297.905c0.206,0.028,0.384,0.125,0.533,0.295c0.148,0.17,0.265,0.397,0.351,0.682
					c0.085,0.285,0.136,0.617,0.152,0.999c0.016,0.382-0.004,0.796-0.06,1.238c-0.019,0.153-0.038,0.292-0.056,0.42
					c-0.019,0.126-0.037,0.248-0.053,0.364c-0.017,0.116-0.034,0.235-0.053,0.359c-0.017,0.123-0.038,0.257-0.063,0.401
					c-0.074,0.449-0.173,0.854-0.296,1.213c-0.122,0.362-0.264,0.668-0.424,0.921c-0.16,0.253-0.335,0.443-0.524,0.57
					c-0.19,0.127-0.387,0.178-0.594,0.151l-1.212-0.155c-0.032-0.004-0.056-0.038-0.072-0.098c-0.016-0.06-0.017-0.131-0.006-0.21
					l1.022-7.024c0.012-0.081,0.033-0.148,0.066-0.202c0.031-0.056,0.065-0.081,0.098-0.076L220.513,297.905z M220.666,300.971
					c0.103-0.836-0.039-1.279-0.428-1.33l-0.457-0.057l-0.602,4.132l0.48,0.061c0.377,0.048,0.634-0.343,0.769-1.175
					c0.025-0.151,0.048-0.294,0.067-0.428c0.019-0.134,0.039-0.265,0.057-0.393c0.018-0.126,0.038-0.255,0.057-0.385
					C220.628,301.265,220.647,301.123,220.666,300.971z"/>
				<path style="fill:#37474F;" d="M224.175,304.356c0.033,0.003,0.057,0.037,0.073,0.097c0.016,0.062,0.017,0.132,0.005,0.211
					l-0.167,1.153c-0.011,0.08-0.034,0.148-0.066,0.202c-0.032,0.055-0.066,0.081-0.098,0.076l-2.128-0.272
					c-0.032-0.004-0.056-0.037-0.072-0.098c-0.016-0.062-0.017-0.132-0.005-0.21l1.021-7.025c0.012-0.08,0.033-0.147,0.066-0.202
					c0.031-0.055,0.065-0.081,0.098-0.076l2.091,0.268c0.032,0.004,0.057,0.038,0.073,0.098c0.016,0.061,0.018,0.132,0.006,0.211
					l-0.169,1.152c-0.01,0.08-0.033,0.148-0.065,0.201c-0.033,0.056-0.066,0.081-0.099,0.077l-1.382-0.177l-0.17,1.174l1.283,0.165
					c0.032,0.005,0.058,0.037,0.073,0.098c0.015,0.06,0.017,0.131,0.004,0.21l-0.167,1.153c-0.011,0.08-0.033,0.148-0.066,0.202
					s-0.065,0.081-0.098,0.076l-1.284-0.164l-0.178,1.217L224.175,304.356z"/>
				<path style="fill:#37474F;" d="M226.943,306.481c-0.052-0.007-0.087-0.045-0.109-0.114c-0.022-0.07-0.035-0.123-0.039-0.161
					l-0.487-3.849l-0.534,3.674c-0.011,0.08-0.034,0.148-0.066,0.202c-0.033,0.055-0.066,0.081-0.098,0.076l-0.589-0.075
					c-0.032-0.004-0.057-0.038-0.073-0.098c-0.015-0.061-0.018-0.132-0.005-0.211l1.021-7.024c0.012-0.08,0.033-0.148,0.066-0.202
					c0.032-0.055,0.065-0.081,0.098-0.076l0.467,0.06c0.051,0.006,0.087,0.044,0.108,0.113c0.023,0.07,0.035,0.123,0.039,0.16
					l0.487,3.85l0.534-3.675c0.011-0.079,0.033-0.147,0.066-0.202c0.031-0.054,0.065-0.08,0.098-0.075l0.588,0.075
					c0.033,0.004,0.057,0.036,0.073,0.098c0.016,0.062,0.017,0.132,0.006,0.211l-1.022,7.025c-0.012,0.078-0.034,0.146-0.066,0.201
					c-0.033,0.055-0.066,0.08-0.099,0.075L226.943,306.481z"/>
			</g>
		</g>
	</g>
</g>
<g id="_x34_03_Error">
	<g id="_x34_04_1_">
		<g>
			<path style="fill:#27DEBF;" d="M142.211,105.274c-0.056-0.053-0.114-0.097-0.175-0.131c-0.237-0.133-5.257-3.034-5.257-3.034
				V77.191c0-0.583-0.138-1.008-0.413-1.274c-0.054-0.051-0.109-0.094-0.167-0.127c-0.239-0.138-5.563-3.211-5.617-3.243
				c-0.241-0.144-0.516-0.126-0.826,0.051l-7.811,4.51c-0.448,0.26-0.802,0.557-1.061,0.891c-0.257,0.335-0.542,0.884-0.853,1.647
				l-15.467,38.955c-0.448,1.162-0.672,2.432-0.672,3.813v8.442c0,0.584,0.137,1.009,0.413,1.274
				c0.057,0.054,0.115,0.098,0.175,0.133c0.237,0.133,5.56,3.21,5.618,3.244c0.239,0.139,0.51,0.119,0.816-0.057l10.669-6.16v1.627
				c0,0.584,0.137,1.009,0.413,1.274c0.054,0.052,0.11,0.095,0.167,0.128c0.238,0.138,5.567,3.214,5.624,3.247
				c0.239,0.14,0.512,0.12,0.819-0.056l6.776-3.913c0.379-0.218,0.707-0.619,0.983-1.204c0.275-0.584,0.413-1.167,0.413-1.753
				v-8.123l4.449-2.569c0.379-0.219,0.707-0.62,0.983-1.205c0.275-0.583,0.413-1.167,0.413-1.752v-8.442
				C142.625,105.965,142.487,105.541,142.211,105.274z"/>
			<g>
				<path style="opacity:0.15;" d="M126.473,81.24l-0.028,0.097c-0.242,0.339-0.506,0.859-0.79,1.558l-15.464,38.955
					c-0.201,0.513-0.353,1.046-0.457,1.6l-5.665-3.269c0.111-0.547,0.256-1.073,0.45-1.579l15.464-38.956
					c0.312-0.762,0.596-1.316,0.859-1.648c0,0,0-0.007,0.007-0.007L126.473,81.24z"/>
				<path style="opacity:0.3;" d="M110.033,135.466c-0.637-0.367-5.326-3.075-5.554-3.2c-0.056-0.035-0.118-0.083-0.173-0.139
					c-0.277-0.263-0.416-0.686-0.416-1.274v-8.435c0-0.776,0.083-1.51,0.222-2.216l5.623,3.248c-0.146,0.699-0.215,1.44-0.215,2.216
					v8.442c0,0.582,0.139,1.004,0.408,1.267C109.963,135.41,109.998,135.438,110.033,135.466z"/>
				<polygon style="opacity:0.3;" points="127.471,98.498 127.471,113.152 122.734,110.416 				"/>
				<polygon style="opacity:0.4;" points="127.471,113.152 119.915,117.508 122.734,110.416 				"/>
				<path style="opacity:0.3;" d="M127.623,135.438c0.035,0.028,0.062,0.055,0.097,0.083c-0.63-0.36-5.332-3.075-5.554-3.2
					c-0.062-0.035-0.118-0.076-0.166-0.132c-0.277-0.263-0.416-0.692-0.416-1.274v-1.628l5.623-3.248v8.123
					C127.208,134.745,127.346,135.175,127.623,135.438z"/>
				<path style="opacity:0.15;" d="M141.972,105.111c-0.221-0.097-0.471-0.069-0.741,0.09l-4.453,2.569v-5.658
					C136.778,102.113,141.356,104.751,141.972,105.111z"/>
				<path style="opacity:0.4;fill:#FFFFFF;" d="M136.162,75.768c-0.229-0.118-0.492-0.09-0.783,0.076l-7.805,4.508
					c-0.45,0.263-0.797,0.554-1.059,0.886l-5.624-3.248c0.256-0.332,0.609-0.623,1.053-0.887l7.812-4.508
					c0.312-0.18,0.582-0.194,0.824-0.049C130.636,72.576,135.636,75.464,136.162,75.768z"/>
			</g>
			<path style="fill:#27DEBF;" d="M128.607,135.509c-0.38,0.219-0.708,0.196-0.983-0.07c-0.276-0.265-0.413-0.69-0.413-1.274v-8.124
				l-16.296,9.409c-0.379,0.219-0.706,0.196-0.983-0.07c-0.277-0.265-0.413-0.69-0.413-1.274v-8.442
				c0-1.381,0.224-2.651,0.672-3.813l15.467-38.956c0.31-0.763,0.595-1.312,0.853-1.647c0.259-0.334,0.613-0.632,1.061-0.891
				l7.811-4.51c0.379-0.218,0.707-0.195,0.983,0.07c0.275,0.267,0.413,0.691,0.413,1.274v30.583l4.449-2.569
				c0.379-0.219,0.707-0.195,0.983,0.069c0.275,0.268,0.413,0.691,0.413,1.276v8.442c0,0.584-0.138,1.169-0.413,1.752
				c-0.277,0.586-0.605,0.986-0.983,1.205l-4.449,2.569v8.123c0,0.586-0.138,1.169-0.413,1.753
				c-0.277,0.584-0.605,0.986-0.983,1.204L128.607,135.509z M127.468,113.149V98.496l-7.552,19.014L127.468,113.149z"/>
		</g>
		<g>
			<path style="fill:#27DEBF;" d="M181.49,70.019c-0.104-2.807-0.458-5.35-1.061-7.63c-0.603-2.279-1.518-4.047-2.741-5.306
				c-0.431-0.442-0.902-0.813-1.412-1.111c-0.939-0.549-5.122-2.954-5.636-3.254c-0.937-0.546-2.006-0.849-3.208-0.91
				c-1.863-0.092-4.088,0.607-6.674,2.101c-2.586,1.493-4.811,3.362-6.673,5.605c-1.862,2.244-3.405,4.702-4.629,7.372
				c-1.224,2.672-2.139,5.496-2.741,8.472c-0.605,2.977-0.958,5.928-1.062,8.856c-0.069,2.324-0.103,4.733-0.103,7.228
				c0,2.495,0.034,4.811,0.103,6.948c0.104,2.807,0.457,5.351,1.062,7.63c0.602,2.28,1.517,4.05,2.741,5.306
				c0.428,0.44,0.895,0.809,1.401,1.106c0.941,0.553,5.18,2.998,5.724,3.304c0.918,0.518,1.962,0.806,3.131,0.864
				c1.863,0.092,4.087-0.607,6.673-2.101c2.586-1.493,4.811-3.363,6.674-5.605c1.861-2.241,3.405-4.7,4.629-7.372
				c1.223-2.669,2.138-5.494,2.741-8.471c0.603-2.976,0.957-5.928,1.061-8.856c0.068-2.216,0.103-4.572,0.103-7.067
				C181.593,74.633,181.558,72.265,181.49,70.019z M161.049,98.324c-0.107-0.791-0.175-1.658-0.199-2.609
				c-0.173-4.412-0.173-8.873,0-13.38c0.034-1.346,0.155-2.637,0.362-3.873c0.208-1.235,0.518-2.382,0.931-3.445
				c0.414-1.06,0.966-2.03,1.656-2.907c0.611-0.777,1.366-1.437,2.248-1.995c0.114,0.787,0.197,1.645,0.247,2.579
				c0.137,4.328,0.137,8.788,0,13.38c-0.035,1.347-0.147,2.634-0.336,3.858c-0.19,1.224-0.5,2.372-0.931,3.444
				c-0.431,1.073-0.992,2.047-1.681,2.922C162.722,97.09,161.952,97.761,161.049,98.324z"/>
			<g>
				<path style="opacity:0.15;" d="M156.43,115.648c-0.935-0.533-4.696-2.701-5.575-3.213c-0.506-0.298-0.969-0.672-1.399-1.108
					c-1.226-1.26-2.14-3.026-2.743-5.305c-0.602-2.279-0.956-4.827-1.06-7.632c-0.069-2.14-0.104-4.453-0.104-6.946
					c0-2.5,0.035-4.91,0.104-7.23c0.104-2.929,0.457-5.88,1.06-8.858c0.423-2.098,1.004-4.114,1.745-6.06l5.616,3.255
					c-0.734,1.939-1.309,3.961-1.731,6.053c-0.61,2.978-0.963,5.928-1.067,8.858c-0.069,2.32-0.104,4.73-0.104,7.23
					c0,2.493,0.035,4.806,0.104,6.946c0.104,2.805,0.457,5.353,1.067,7.632c0.595,2.278,1.517,4.051,2.736,5.305
					C155.489,114.997,155.945,115.357,156.43,115.648z"/>
				<path style="opacity:0.4;fill:#FFFFFF;" d="M176.064,55.854c-0.887-0.471-1.891-0.734-3.006-0.797
					c-1.863-0.09-4.086,0.609-6.676,2.098c-2.583,1.496-4.806,3.366-6.669,5.61s-3.407,4.695-4.633,7.369
					c-0.187,0.402-0.36,0.81-0.533,1.226c-0.159,0.395-0.311,0.79-0.464,1.191h-0.007l-5.616-3.255
					c0.132-0.353,0.27-0.706,0.416-1.053c0.187-0.457,0.374-0.907,0.582-1.357c1.226-2.673,2.77-5.125,4.626-7.376
					c1.863-2.237,4.093-4.107,6.676-5.603c2.583-1.496,4.813-2.188,6.676-2.098c1.198,0.062,2.271,0.36,3.206,0.907
					C171.126,53.001,174.824,55.127,176.064,55.854z"/>
				<path style="opacity:0.3;" d="M171.922,89.325c-0.035,1.344-0.152,2.632-0.339,3.858c-0.187,1.226-0.499,2.368-0.928,3.442
					c-0.187,0.464-0.402,0.914-0.644,1.344l-5.624-3.248c0.236-0.429,0.45-0.88,0.637-1.343c0.429-1.073,0.741-2.216,0.935-3.442
					c0.187-1.226,0.298-2.514,0.332-3.858c0.139-4.592,0.139-9.051,0-13.38c-0.049-0.935-0.131-1.794-0.242-2.583
					c0,0,0.145-0.104,0.332-0.215c1.032-0.616,1.897-0.852,2.59-0.776c0.686,0.083,1.24,0.416,1.655,0.997
					c0.416,0.582,0.713,1.378,0.907,2.382c0.187,1.004,0.318,2.154,0.388,3.442C172.054,80.273,172.054,84.733,171.922,89.325z"/>
				<path style="opacity:0.4;" d="M170.011,97.968c-0.305,0.561-0.651,1.087-1.039,1.579c-0.692,0.879-1.551,1.614-2.59,2.209
					c-1.032,0.602-1.891,0.859-2.583,0.776c-0.693-0.076-1.254-0.402-1.683-0.976c-0.429-0.575-0.741-1.364-0.928-2.369
					c-0.055-0.277-0.097-0.568-0.139-0.866c0.9-0.561,1.676-1.233,2.292-2.022c0.388-0.492,0.741-1.018,1.046-1.579L170.011,97.968z
					"/>
			</g>
			<path style="fill:#27DEBF;" d="M166.385,57.157c2.586-1.493,4.811-2.193,6.674-2.101c1.861,0.095,3.405,0.77,4.63,2.026
				c1.223,1.259,2.138,3.027,2.741,5.306c0.603,2.28,0.957,4.823,1.061,7.63c0.068,2.245,0.103,4.614,0.103,7.109
				c0,2.496-0.035,4.852-0.103,7.067c-0.104,2.927-0.458,5.88-1.061,8.856c-0.603,2.977-1.518,5.803-2.741,8.471
				c-1.224,2.671-2.768,5.131-4.63,7.372c-1.862,2.243-4.088,4.112-6.674,5.605c-2.586,1.493-4.811,2.193-6.673,2.101
				c-1.862-0.092-3.405-0.768-4.629-2.026c-1.224-1.256-2.139-3.026-2.741-5.306c-0.605-2.279-0.958-4.824-1.062-7.63
				c-0.069-2.137-0.103-4.453-0.103-6.948s0.034-4.905,0.103-7.228c0.104-2.927,0.457-5.878,1.062-8.856
				c0.602-2.976,1.517-5.8,2.741-8.471c1.224-2.67,2.767-5.128,4.629-7.372C161.574,60.52,163.798,58.651,166.385,57.157z
				 M171.92,89.324c0.137-4.592,0.137-9.052,0-13.38c-0.069-1.286-0.199-2.433-0.388-3.44c-0.19-1.005-0.492-1.799-0.905-2.385
				c-0.414-0.583-0.966-0.916-1.656-0.996c-0.69-0.08-1.552,0.18-2.586,0.776c-1.034,0.598-1.896,1.334-2.586,2.21
				c-0.69,0.876-1.242,1.846-1.656,2.907c-0.413,1.063-0.724,2.21-0.931,3.445c-0.207,1.235-0.328,2.527-0.362,3.873
				c-0.173,4.507-0.173,8.968,0,13.38c0.034,1.308,0.147,2.463,0.336,3.469c0.189,1.005,0.499,1.796,0.931,2.369
				c0.431,0.575,0.991,0.902,1.681,0.981c0.69,0.08,1.552-0.179,2.586-0.776c1.035-0.597,1.896-1.334,2.586-2.21
				c0.689-0.875,1.25-1.849,1.681-2.922c0.431-1.071,0.741-2.22,0.931-3.444C171.772,91.958,171.884,90.671,171.92,89.324z"/>
		</g>
		<g>
			<g>
				<path style="fill:#27DEBF;" d="M219.677,55.989c-0.362-0.332-0.748-0.616-1.157-0.852c-0.241-0.14-0.504-0.237-0.761-0.343
					c0.195,0.08,0.399,0.144,0.585,0.243c-1.191-0.684-4.272-2.478-4.272-2.478v-0.006l5.3-11.285
					c0.203-0.433,0.424-0.954,0.663-1.563c0.239-0.609,0.358-1.201,0.358-1.779v-8.334c0-0.576-0.137-0.994-0.409-1.258
					c-0.077-0.074-0.158-0.123-0.243-0.159c0,0,0,0,0,0c-0.643-0.37-5.435-3.149-5.49-3.19c-0.233-0.123-0.507-0.096-0.794,0.068
					l-24.412,14.088c-0.329,0.192-0.602,0.507-0.835,0.945c-0.055,0.082-0.096,0.164-0.137,0.247
					c-0.274,0.589-0.411,1.164-0.411,1.739v8.324c0,0.589,0.137,0.999,0.411,1.26c0.068,0.068,0.137,0.11,0.205,0.15
					c0.192,0.096,4.546,2.629,5.408,3.122c-0.014-0.027-0.041-0.041-0.055-0.055l0.003-0.004c0.272,0.263,0.595,0.285,0.97,0.069
					l3.611-2.085l-1.256,2.718c-0.247,0.507-0.479,1.054-0.712,1.67c-0.055,0.137-0.096,0.26-0.137,0.397
					c-0.041,0.137-0.082,0.26-0.11,0.397c-0.004,0.016-0.004,0.034-0.007,0.05c-0.018,0.084-0.023,0.166-0.035,0.249
					c-0.003,0.028-0.009,0.057-0.012,0.083c-0.041,0.205-0.055,0.411-0.055,0.602v6.764c0,0.575,0.137,0.999,0.397,1.26
					c0.068,0.055,0.15,0.11,0.219,0.151c0.205,0.11,4.833,2.779,5.463,3.149c-0.02-0.019-0.049-0.044-0.078-0.068
					c0.265,0.232,0.575,0.251,0.935,0.043l4.237-2.447l0.013-0.006c-0.178,1.355-0.684,2.601-1.52,3.724
					c-1.068,1.465-2.423,2.67-4.053,3.601c-1.369,0.794-2.41,1.15-3.135,1.068c-0.234-0.022-0.454-0.056-0.659-0.103l-0.012-0.007
					c0,0-2.423-1.396-2.437-1.41c-0.104-0.059-0.219-0.092-0.343-0.107c-0.334-0.045-0.743,0.072-1.231,0.354l-6.435,3.724
					c-0.301,0.178-0.561,0.493-0.794,0.958c-0.014,0.041-0.027,0.068-0.041,0.11l0.003,0.002c-0.093,0.218-0.167,0.435-0.214,0.649
					c-0.05,0.217-0.076,0.434-0.076,0.65c0.041,1.93,0.397,3.615,1.095,5.066c0.698,1.465,1.698,2.56,2.998,3.272
					c0.821,0.466,4.08,2.382,5.34,3.094c-0.178-0.108-0.337-0.239-0.503-0.362c0.232,0.17,0.465,0.338,0.72,0.479
					c1.293,0.722,2.886,0.981,4.775,0.781c1.889-0.2,4.059-1.007,6.511-2.422c4.767-2.752,8.477-6.389,11.133-10.909
					c2.656-4.521,3.984-9.742,3.984-15.666C222.18,60.324,221.345,57.517,219.677,55.989z"/>
			</g>
			<path style="opacity:0.15;" d="M188.175,40.223c0.014-0.027,0.014-0.041,0.027-0.069c-0.055,0.082-0.096,0.164-0.137,0.247
				c-0.274,0.589-0.411,1.164-0.411,1.739v8.324c0,0.589,0.137,0.999,0.411,1.26c0.068,0.068,0.137,0.11,0.205,0.151
				c0.192,0.096,4.546,2.629,5.408,3.122c-0.014-0.027-0.041-0.041-0.055-0.055h0.014c-0.274-0.26-0.411-0.684-0.411-1.26v-8.338
				c0-0.575,0.137-1.15,0.411-1.725c0.086-0.181,0.184-0.313,0.279-0.458c-0.061,0.095-0.127,0.171-0.183,0.28L188.175,40.223z"/>
			<path style="opacity:0.15;" d="M201.46,62.064l-5.561-3.211c-0.002,0.054-0.015,0.112-0.015,0.164v6.764
				c0,0.575,0.137,1,0.397,1.26c0.068,0.055,0.151,0.11,0.219,0.151c0.205,0.11,4.833,2.779,5.463,3.149
				c-0.014-0.014-0.041-0.041-0.068-0.068c-0.014,0-0.027-0.014-0.041-0.027c-0.274-0.26-0.411-0.671-0.411-1.246v-6.764
				C201.442,62.179,201.458,62.12,201.46,62.064z"/>
			<path style="opacity:0.3;" d="M201.798,60.455c0.246-0.616,0.479-1.164,0.726-1.67l5.408-11.542l-9.721,5.614l-1.26,2.711
				c-0.246,0.507-0.479,1.054-0.712,1.67c-0.055,0.137-0.096,0.26-0.137,0.397c-0.041,0.137-0.082,0.26-0.11,0.397v0.055
				c-0.014,0.082-0.027,0.164-0.041,0.247c0,0.027,0,0.055-0.014,0.082c-0.03,0.149-0.034,0.294-0.04,0.438l5.561,3.211
				C201.481,61.54,201.588,60.999,201.798,60.455z"/>
			<path style="opacity:0.15;" d="M186.45,79.664c-0.014,0.041-0.027,0.068-0.041,0.11h0.014c-0.096,0.219-0.178,0.438-0.219,0.657
				c-0.055,0.219-0.082,0.438-0.082,0.644c0.041,1.931,0.397,3.615,1.095,5.066c0.698,1.465,1.698,2.56,2.998,3.272
				c0.821,0.465,4.08,2.382,5.34,3.094c-0.041-0.027-0.082-0.055-0.109-0.082c-1.136-0.712-2.013-1.725-2.656-3.067
				c-0.698-1.451-1.068-3.149-1.095-5.066c0-0.466,0.109-0.945,0.329-1.41c0.081-0.173,0.177-0.307,0.272-0.441l-5.574-3.203
				C186.628,79.367,186.535,79.494,186.45,79.664z"/>
			<path style="opacity:0.3;" d="M197.709,76.156l-0.018-0.011c0,0-2.424-1.397-2.437-1.41c-0.096-0.055-0.219-0.082-0.342-0.11
				c-0.329-0.041-0.739,0.082-1.232,0.356l-6.435,3.724c-0.192,0.113-0.362,0.304-0.524,0.531l5.574,3.203
				c0.161-0.227,0.333-0.419,0.522-0.531l6.435-3.711c0.712-0.411,1.26-0.479,1.63-0.192L197.709,76.156
				C197.709,76.156,197.709,76.156,197.709,76.156z"/>
			<path style="opacity:0.4;" d="M203.92,79.472c0.739,0.082,1.78-0.274,3.149-1.068c1.629-0.945,2.985-2.136,4.053-3.601
				c1.068-1.451,1.616-3.108,1.616-4.943c0-1.821-0.548-2.861-1.616-3.08c-1.068-0.219-2.423,0.151-4.053,1.095
				c-0.178,1.355-0.684,2.588-1.52,3.71c-1.068,1.465-2.423,2.67-4.053,3.601c-1.369,0.794-2.41,1.15-3.135,1.068
				c-0.233-0.014-0.447-0.058-0.653-0.099l3.172,1.851c0.383,0.274,0.794,0.575,1.259,0.89
				C202.592,79.212,203.195,79.404,203.92,79.472z"/>
			<path style="opacity:0.4;fill:#FFFFFF;" d="M214.066,52.555c0,0,3.08,1.794,4.272,2.478c-0.041-0.027-0.082-0.041-0.137-0.055
				c-0.055-0.041-0.096-0.055-0.151-0.068c-1.369-0.671-2.998-0.821-4.86-0.479L214.066,52.555z"/>
			<path style="opacity:0.4;fill:#FFFFFF;" d="M216.763,26.517c-1.287-0.739-2.492-1.451-2.519-1.465
				c-0.233-0.123-0.507-0.096-0.794,0.068l-24.412,14.088c-0.329,0.192-0.602,0.507-0.835,0.945
				c-0.014,0.027-0.014,0.041-0.027,0.069l5.559,3.217c0.056-0.109,0.122-0.186,0.183-0.28c0.064-0.099,0.125-0.214,0.193-0.296
				c0.151-0.185,0.312-0.335,0.487-0.437l24.412-14.088c0.26-0.151,0.493-0.192,0.712-0.11
				C219.392,28.037,218.037,27.257,216.763,26.517z"/>
			<path style="fill:#27DEBF;" d="M219.014,28.264c0.374-0.215,0.697-0.193,0.97,0.069c0.272,0.264,0.409,0.683,0.409,1.258v8.334
				c0,0.578-0.12,1.17-0.358,1.779c-0.238,0.609-0.459,1.13-0.663,1.563l-5.3,11.285l-0.88,1.874
				c2.078-0.379,3.854-0.142,5.328,0.711c0.409,0.237,0.795,0.521,1.158,0.852c1.668,1.528,2.502,4.335,2.502,8.424
				c0,5.923-1.328,11.145-3.984,15.666c-2.656,4.52-6.366,8.156-11.133,10.908c-2.451,1.415-4.621,2.222-6.511,2.422
				c-1.888,0.2-3.481-0.059-4.775-0.782c-1.294-0.719-2.29-1.809-2.987-3.268c-0.698-1.457-1.064-3.145-1.098-5.065
				c0-0.472,0.109-0.942,0.332-1.41c0.221-0.469,0.485-0.792,0.792-0.969l6.434-3.715c0.715-0.413,1.259-0.477,1.635-0.197
				c0.373,0.283,0.792,0.579,1.251,0.891c0.459,0.312,1.053,0.505,1.787,0.579c0.731,0.077,1.778-0.28,3.14-1.066
				c1.635-0.943,2.989-2.143,4.061-3.603c1.072-1.457,1.608-3.103,1.608-4.938c0-1.833-0.536-2.861-1.608-3.08
				c-1.072-0.22-2.426,0.143-4.061,1.086l-4.237,2.447c-0.376,0.217-0.699,0.194-0.971-0.069c-0.273-0.26-0.409-0.68-0.409-1.258
				V62.23c0-0.576,0.12-1.169,0.358-1.778c0.238-0.611,0.476-1.166,0.715-1.672l5.413-11.538l-13.328,7.696
				c-0.375,0.216-0.698,0.194-0.97-0.069c-0.273-0.262-0.409-0.68-0.409-1.258v-8.334c0-0.576,0.136-1.151,0.409-1.73
				c0.272-0.576,0.595-0.972,0.97-1.188L219.014,28.264z"/>
		</g>
	</g>
</g>
<g id="Character">
	<g id="Character_4_">
		<g>
			<path style="fill:#F28F8F;" d="M414.406,218.189l7.085-0.31l4.584,8.682c0,0-2.856,1.482-13.051,1.599L414.406,218.189z"/>
			<g id="XMLID_524_">
				<path id="XMLID_557_" style="fill:#27DEBF;" d="M369.603,197.304c2.7,1.266,4.172,2.732,7.069,5.098
					c3.576,2.922,15.931,11.306,18.578,12.048c8.08,1.788,15.116,2.874,21.359,3.437c0,0-1.152,6.957,0.345,10.45
					c-6.342,0.287-22.505,0.827-28.146-0.504c-6.032-1.423-12.653-4.802-17.773-7.77
					C365.915,217.095,367.055,199.822,369.603,197.304z"/>
			</g>
			<g id="XMLID_336_" style="opacity:0.7;">
				<path id="XMLID_338_" style="fill:#FFFFFF;" d="M369.603,197.304c2.7,1.266,4.172,2.732,7.069,5.098
					c3.576,2.922,15.931,11.306,18.578,12.048c8.08,1.788,15.116,2.874,21.359,3.437c0,0-1.152,6.957,0.345,10.45
					c-6.342,0.287-22.505,0.827-28.146-0.504c-6.032-1.423-12.653-4.802-17.773-7.77
					C365.915,217.095,367.055,199.822,369.603,197.304z"/>
			</g>
			<path style="opacity:0.1;" d="M371.034,220.063c5.12,2.969,11.741,6.347,17.773,7.77c4.084,0.964,13.685,0.946,21.08,0.754
				c-6.28-0.429-16.133-2.132-19.041-3.059c-1.113-0.355-8.233-3.687-11.763-6.198c-3.335-2.371-3.53-6.618-5.233-12.767
				c-2.263-8.169-4.248-9.261-4.248-9.261C367.055,199.822,365.915,217.095,371.034,220.063z"/>
			<path style="fill:#27DEBF;" d="M409.888,228.588c0,0-1.304-3.598,0.311-8.692c0,0-2.059,2.04-1.622,8.724L409.888,228.588z"/>
			<path style="opacity:0.1;" d="M409.888,228.588c0,0-1.304-3.598,0.311-8.692c0,0-2.059,2.04-1.622,8.724L409.888,228.588z"/>
			<path id="XMLID_514_" style="fill:#FFA8A7;" d="M424.388,226.71c6.01-0.207,8.231-3.249,9.067-8.522
				c0.836-5.273,0.695-12.159,0.762-13.981c0.067-1.839-0.468-2.453-1.197-2.56c-0.274-0.04-1.434,0.257-1.563,2.206
				c-0.236,3.555-0.328,5.743-1.007,5.718c-0.674-0.025-0.568-2.661-0.514-6.254c0.036-2.419-0.04-4.461-1.392-4.461
				c-1.436,0-1.794,1.439-1.866,4.717c-0.072,3.278,0.019,5.697-0.861,5.763c-0.699,0.052-0.555-3.421-0.713-5.663
				c-0.159-2.259-0.153-3.578-1.553-3.55c-1.27,0.026-1.613,1.829-1.562,4.035c0.048,2.038,0.002,8.245-0.229,9.017
				c-0.388,1.299-1.731-1.89-2.713-3.199c-1.61-2.147-3.573-1.165-2.778,0.789c0.795,1.954,1.715,4.739,2.183,7.404
				C418.875,220.578,419.892,226.733,424.388,226.71z"/>
			<path id="XMLID_511_" style="fill:#F28F8F;" d="M424.365,215.821c0,0,3.62,3.77,2.313,7.796c0,0,1.975-2.304,0.648-5.398
				C426.423,216.114,424.365,215.821,424.365,215.821z"/>
		</g>
		<g id="XMLID_507_">
			<path style="fill:#263238;" d="M345.389,404.835c-0.126,1.137-0.282,4.331-6.07,5.127c-5.788,0.796-9.435-1.12-10.978-3.905
				c-1.543-2.785-1.189-5.055-1.436-7.634c-0.247-2.579-2.379-3.952-2.991-5.28c-0.902-1.956,0.417-5.001,0.417-5.001
				L345.389,404.835z"/>
			<path style="fill:#263238;" d="M387.627,395.765c0.209,0.167,0.27,1.99-0.377,2.8c-0.445,0.557-4.467,3.253-9.276,2.481
				c-4.809-0.772-7.12-2.117-9.819-3.848c-2.762-1.771-4.703-2.085-7.578-2.183c-2.784-0.095-4.821-0.714-5.032-1.446
				c-0.37-1.283-0.37-2.096,0.239-2.055L387.627,395.765z"/>
			<path style="fill:#455A64;" d="M344.971,402.203c-0.512-0.951-2.005-2.32-2.662-3.177c-3.433-4.478-5.595-9.689-6.019-15.354
				c-0.023-0.311-0.062-0.914-0.371-1.099c-0.327-0.196-0.625,0.075-0.956,0.219c-0.006-0.005-0.011-0.01-0.017-0.015
				c0,0-0.003,0.017-0.004,0.025c-0.415,0.179-0.987,0.379-1.792,0.469c-2.05,0.229-4.319-0.263-4.831-0.193
				c-0.398,0.055-0.521,1.288-0.489,2.622c-0.729-0.461-0.968-1.375-1.623-1.909c-0.354-0.288-0.51-0.297-0.502-0.772
				c0.005-0.309,0.025-0.587,0.028-0.896c-0.526-0.155-0.968,1.864-1.4,3.404c-0.501,1.783-1.126,3.795-0.423,5.607
				c0.391,1.008,1.039,1.892,1.632,2.796c1.023,1.558,1.923,3.265,2.101,5.121c0.078,0.813,0.016,1.637,0.132,2.446
				c0.403,2.816,2.335,5.031,5.051,5.879c3.53,1.102,8.829,0.93,11.94-1.538C345.853,404.972,345.483,403.154,344.971,402.203z"/>
			<path style="fill:#455A64;" d="M385.289,392.043c-0.77-0.246-1.531-0.52-2.283-0.819c-2.101-0.836-4.126-1.861-6.063-3.025
				c-0.855-0.514-1.694-1.056-2.512-1.628c-0.86-0.6-1.655-1.267-2.47-1.928c-0.431-0.349-0.829-0.834-1.179-1.263
				c-0.698-0.858-1.285-1.807-1.74-2.815c-0.101-0.224-0.213-0.47-0.435-0.576c-0.264-0.125-0.578-0.001-0.817,0.166
				c-0.21,0.148-0.399,0.33-0.637,0.434c-0.224,0.098-0.457,0.187-0.684,0.281c-0.727,0.302-1.497,0.49-2.281,0.56
				c-2.939,0.263-3.034-0.328-3.161,0.62c-0.031,0.231-0.042,0.612-0.024,1.063c-1.551-0.257-2.774-0.758-2.841-1.346l-0.188-1.881
				c-2.304-0.316-2.077,2.384-2.351,5.345c-0.235,2.537-0.82,4.727-0.128,6.576c2.339,2.042,6.462,1.547,8.812,1.935
				c3.323,0.549,4.877,3.008,9.498,4.607c7.448,2.577,12.152-0.395,13.548-1.692C388.277,395.008,388.461,393.054,385.289,392.043z"
				/>
			<path id="XMLID_510_" style="fill:#263238;" d="M329.2,250.143c-0.926,9.022-1.915,22.547-2.288,33.114
				c-0.702,19.864-0.429,44.694-0.429,44.694s-1.929,7.103-2.14,12.73c-0.474,12.689-0.384,44.104-0.384,44.104
				s5.257,5.298,13.132,1.136c0,0,6.972-42.869,8.924-55.383c1.861-11.93,5.494-37.983,5.494-37.983l1.644,36.059
				c0,0-1.925,6.896-1.238,16.255c0.427,5.812,3.745,37.442,3.745,37.442c3.024,2.837,11.843,1.295,13.77-0.961
				c0,0,3.089-45.344,3.432-51.471c0.741-13.255,1.024-63.826,0.039-71.5C371.915,250.706,329.2,250.143,329.2,250.143z"/>
			<path d="M351.509,292.555l2.308-15.284c0,0,6.352-1.202,10.985-4.642c0,0-1.804,4.083-8.821,6.997l-2.281,14.234l-0.547,34.755
				L351.509,292.555z"/>
		</g>
		<g id="XMLID_484_">
			<g id="XMLID_499_">
				<g>
					<path style="fill:#263238;" d="M340.012,155.33c0,0-0.209,0.029-0.539,0.113c0.227-1.16-0.281-2.326-1.329-2.805
						c-1.26-0.576-2.807,0.058-3.454,1.416l3.764,1.722c-1.001,0.401-2.228,1.135-2.865,2.445
						c-1.032,2.122,0.328,6.641,1.704,12.224c1.376,5.582,2.123,7.993,3.036,10.341c0.632,1.625,1.768,1.676,1.768,1.676l0-5.569
						l-0.239-4.616c0,0,2.963-4.046,3.288-7.362c0.419-4.267-0.48-6.014-0.48-6.014L340.012,155.33z"/>
				</g>
				<path id="XMLID_501_" style="fill:#FFA8A7;" d="M342.031,171.54c-1.113,0.965-2.019-1.533-2.956-2.507
					c-0.937-0.974-3.989-2.299-5.499,0.91c-1.539,3.27,1.398,7.711,3.68,8.769c3.342,1.55,4.841-1.82,4.841-1.82v13.932
					c3.52,6.341,11.296,6.137,14.894,7.025c0.654-2.57,0.233-4.822-0.142-6.247l-0.026-4.54c0,0,2.772,0.534,4.599,0.246
					c3.04-0.48,4.669-2.984,5.581-6.279c1.465-5.292,1.767-14.177-0.268-24.451c-3.405-2.633-14.924-2.206-22.068,2.323
					C345.189,168.014,343.144,170.574,342.031,171.54z"/>
				<path id="XMLID_500_" style="fill:#F28F8F;" d="M356.822,187.062c0,0-6.793-1.346-9.17-2.599
					c-1.591-0.839-2.904-2.299-3.292-3.235c0,0,0.451,2.013,1.876,3.822c1.743,2.213,10.591,3.818,10.591,3.818L356.822,187.062z"/>
			</g>
			<path style="fill:#263238;" d="M353.729,169.641c0,0.801-0.649,1.45-1.45,1.45s-1.45-0.649-1.45-1.45
				c0-0.801,0.649-1.45,1.45-1.45S353.729,168.84,353.729,169.641z"/>
			<path style="fill:#263238;" d="M365.238,168.576c0,0.801-0.649,1.45-1.45,1.45s-1.45-0.649-1.45-1.45
				c0-0.801,0.649-1.451,1.45-1.451S365.238,167.775,365.238,168.576z"/>
			<g id="XMLID_486_">
				<path id="XMLID_495_" style="fill:#263238;" d="M351.773,165.781l-3.037,1.589c-0.423-0.871-0.086-1.934,0.752-2.372
					C350.327,164.559,351.35,164.91,351.773,165.781z"/>
				<path id="XMLID_493_" style="fill:#B16668;" d="M354.481,178.599l5.091,1.322c-0.337,1.454-1.749,2.338-3.155,1.973
					C355.01,181.529,354.144,180.054,354.481,178.599z"/>
				<path style="fill:#F28F8F;" d="M354.973,179.666c-0.178,0-0.35,0.021-0.518,0.052c0.181,1.027,0.922,1.906,1.962,2.176
					c0.441,0.114,0.879,0.094,1.288-0.017C357.436,180.615,356.316,179.666,354.973,179.666z"/>
				<path id="XMLID_491_" style="fill:#263238;" d="M366.443,166.06l-3.121-1.478c0.379-0.884,1.385-1.27,2.246-0.862
					C366.43,164.128,366.822,165.175,366.443,166.06z"/>
				<polygon id="XMLID_490_" style="fill:#F28F8F;" points="358.229,167.929 359.143,177.235 363.788,175.149 				"/>
			</g>
		</g>
		<g>
			<g>
				<path style="fill:#27DEBF;" d="M336.078,190.82c-6.177,2.206-10.766,4.366-15.062,8.049c0,0,4.443,19.266,7.22,29.883
					c2.529,9.67,0.168,29.363,0.168,29.363s3.883,5.883,26.018,5.245c12.475-0.36,18.53-4.351,18.53-4.351
					s1.058-21.726,0.583-39.899c-0.382-14.623-1.447-18.151-3.931-21.807c-1.802-1.222-11.75-4.907-11.75-4.907
					s-0.862,3.18-0.862,5.451C353.362,192.175,336.078,190.82,336.078,190.82z"/>
				<path style="opacity:0.3;fill:#FFFFFF;" d="M336.078,190.82c-6.177,2.206-10.766,4.366-15.062,8.049
					c0,0,4.443,19.266,7.22,29.883c2.529,9.67,0.168,29.363,0.168,29.363s3.883,5.883,26.018,5.245
					c12.475-0.36,18.53-4.351,18.53-4.351s1.058-21.726,0.583-39.899c-0.382-14.623-1.447-18.151-3.931-21.807
					c-1.802-1.222-11.75-4.907-11.75-4.907s-0.862,3.18-0.862,5.451C353.362,192.175,336.078,190.82,336.078,190.82z"/>
				<path style="opacity:0.1;" d="M333.149,240.671c-0.257-6.516-1.667-18.85-1.565-28.197l-4.415-6.699l-2.567,8.318
					c1.224,5.101,2.554,10.532,3.634,14.659c2.529,9.67,0.168,29.363,0.168,29.363s3.882,5.883,26.018,5.245
					c0.139-0.004,0.265-0.014,0.403-0.019c-3.041-0.333-7.682-1.256-11.897-3.342C336.059,256.6,333.405,247.187,333.149,240.671z"
					/>
				<path style="fill:#27DEBF;" d="M342.096,184.93l0,1.094c0.208,1.042,2.254,3.451,7.418,5.768
					c5.256,2.359,7.476,6.057,7.476,6.057s-1.757-2.712-3.928-1.278c-2.083,1.376-4.374,5.041-5.489,5.013
					c-1.085-0.027-4.863-3.569-7.789-6.638c-2.458-2.578-3.707-4.125-3.707-4.125S340.09,184.952,342.096,184.93z"/>
				<path style="fill:#27DEBF;" d="M356.991,197.848c1.567-3.757,4.403-0.545,4.58-0.533c0.823,0.057-1.793-6.86-4.73-8.76
					l0.008,3.046L356.991,197.848z"/>
				<path style="opacity:0.65;fill:#FFFFFF;" d="M342.096,184.93l0,1.094c0.208,1.042,2.254,3.451,7.418,5.768
					c5.256,2.359,7.476,6.057,7.476,6.057s-1.757-2.712-3.928-1.278c-2.083,1.376-4.374,5.041-5.489,5.013
					c-1.085-0.027-4.863-3.569-7.789-6.638c-2.458-2.578-3.707-4.125-3.707-4.125S340.09,184.952,342.096,184.93z"/>
				<path style="opacity:0.65;fill:#FFFFFF;" d="M356.991,197.848c1.567-3.757,4.403-0.545,4.58-0.533
					c0.823,0.057-1.793-6.86-4.73-8.76l0.008,3.046L356.991,197.848z"/>
			</g>
			<path style="fill:#27DEBF;" d="M361.115,262.768c0.259-13.855,0.619-49.458-4.124-64.919c0,0,4.466,32.912,2.051,65.191
				C359.762,262.96,360.451,262.868,361.115,262.768z"/>
			<path style="opacity:0.1;" d="M361.115,262.768c0.259-13.855,0.619-49.458-4.124-64.919c0,0,4.466,32.912,2.051,65.191
				C359.762,262.96,360.451,262.868,361.115,262.768z"/>
			<path style="fill:#27DEBF;" d="M338.563,214.482c7.02,0.693,14.085-1.698,14.085-1.698l0.227,2.713c0,0-6.894,2.381-14.045,1.464
				L338.563,214.482z"/>
			<path style="opacity:0.1;" d="M338.563,214.482c7.02,0.693,14.085-1.698,14.085-1.698l0.227,2.713c0,0-6.894,2.381-14.045,1.464
				L338.563,214.482z"/>
		</g>
		<g id="Shield_2_">
			<g>
				<path style="fill:#EBEBEB;" d="M373.168,208.114c0.008-0.108-0.016-0.176-0.063-0.204c0-0.001,0.001-0.001,0.001-0.001
					l-0.007-0.005c-0.051-0.025-0.384-0.238-0.431-0.266c0-0.001,0.001-0.001,0.001-0.001l-0.007-0.005
					c-0.051-0.025-0.127-0.005-0.22,0.06c-0.931,0.663-2.185,0.79-3.12,0.34c-0.127-0.101-0.245-0.216-0.349-0.346
					c-0.005-0.007-0.01-0.014-0.016-0.019h-0.001c-0.03-0.035-0.059-0.061-0.089-0.079c0,0-0.406-0.255-0.436-0.272l-0.015-0.009
					c-0.1-0.052-0.195-0.006-0.262,0.144c-0.934,2.11-2.843,4.216-4.086,4.716c-0.092,0.037-0.179,0.097-0.247,0.171
					c-0.09,0.097-0.148,0.218-0.148,0.346c-0.094,2.751,1.263,7.199,4.069,8.765c0.166,0.116,0.337,0.222,0.513,0.316
					C372.323,217.849,373.056,211.374,373.168,208.114z"/>
				<path style="fill:#E0E0E0;" d="M367.737,221.446c-2.802-1.568-4.157-6.012-4.063-8.761c0-0.075,0.021-0.145,0.054-0.211
					l0.435,0.271c-0.034,0.066-0.053,0.136-0.053,0.211C364.021,215.561,365.229,219.684,367.737,221.446z"/>
			</g>
			<path id="XMLID_483_" style="fill:#FAFAFA;" d="M373.168,208.114c-0.111,3.26-0.845,9.735-4.912,13.652
				c-2.858-1.526-4.241-6.033-4.146-8.809c0-0.128,0.058-0.249,0.148-0.346c0.068-0.074,0.155-0.134,0.247-0.171
				c1.242-0.501,3.151-2.606,4.086-4.717c0.067-0.149,0.161-0.195,0.262-0.143l0,0l0.015,0.009c0.03,0.018,0.06,0.044,0.089,0.079
				h0.001c0.005,0.006,0.011,0.012,0.016,0.019c0.877,1.095,2.674,1.155,3.905,0.278c0.093-0.066,0.17-0.085,0.22-0.061l0.007,0.005
				c0,0-0.001,0-0.001,0.001C373.152,207.938,373.176,208.006,373.168,208.114z"/>
			<path style="fill:#F0F0F0;" d="M368.852,207.58c-0.1-0.052-0.195-0.006-0.262,0.143c-0.934,2.11-2.843,4.216-4.086,4.717
				c-0.092,0.037-0.179,0.097-0.247,0.171c-0.09,0.097-0.148,0.218-0.148,0.346c-0.095,2.776,1.287,7.283,4.146,8.809
				C370.467,214.28,368.852,207.58,368.852,207.58z"/>
		</g>
		<g id="XMLID_420_">
			<path id="XMLID_475_" style="fill:#263238;" d="M346.573,160.891c0,0,9.312,4.54,19.313,0.604
				c10.272-4.043,1.269-6.916,1.269-6.916L346.573,160.891z"/>
			<g id="XMLID_433_">
				<g id="XMLID_442_">
					<path id="XMLID_472_" style="fill:#455A64;" d="M367.421,140.954c-7.755-1.721-16.222-2.63-26.396,1.533
						c-10.174,4.163-12.729,10.408-12.729,10.408s9.863,3.375,18.188,1.549C354.81,152.617,367.421,140.954,367.421,140.954z"/>
				</g>
				<path id="XMLID_437_" style="fill:#37474F;" d="M334.131,158.62c0,0-5.453-4.435-5.834-5.726c0,0,5.139,0.508,11.82-1.451
					c6.681-1.959,13.93-8.703,21.414-10.255c7.484-1.552,10.401,2.007,10.401,2.007s-1.977,5.333-4.741,8.654
					c0,0-2.608,5.094-11.406,6.753C346.986,160.261,334.131,158.62,334.131,158.62z"/>
				<path id="XMLID_436_" style="fill:#27DEBF;" d="M334.131,158.62c0,0,0.194,1.106,0.424,1.738c0.229,0.632,0.81,1.473,0.81,1.473
					c3.111,0.603,10.617,1.101,20.506-1.266c6.197-1.483,9.061-3.206,10.239-4.446c1.155-1.216,1.28-2.03,1.203-2.896l-0.121-1.374
					c0,0-2.061,2.73-12.203,5.264C344.845,159.648,334.131,158.62,334.131,158.62z"/>
				<path id="XMLID_435_" style="opacity:0.05;" d="M334.131,158.62c0,0,0.194,1.106,0.424,1.738c0.229,0.632,0.81,1.473,0.81,1.473
					c3.111,0.603,10.617,1.101,20.506-1.266c6.197-1.483,9.061-3.206,10.239-4.446c1.155-1.216,1.28-2.03,1.203-2.896l-0.121-1.374
					c0,0-2.061,2.73-12.203,5.264C344.845,159.648,334.131,158.62,334.131,158.62z"/>
			</g>
		</g>
		<g>
			<g id="XMLID_363_">
				<path id="XMLID_369_" style="fill:#FFA8A7;" d="M339.534,295.159c-1.034-1.455-3.312-2.774-4.172-3.642
					c-1.521-1.536-3.746-4.789-3.408-5.385c0.339-0.596,1.253,0.174,3.196,0.173c2.965-0.001,3.822-1.181,3.789-2.287
					c-0.026-0.859-1.829-0.699-3.985-1.176c-1.919-0.613-4.207-2.767-5.456-4.449c-1.251-1.685-2.261-6.108-2.261-6.108
					s-6.489,0.09-10.967,3.162c0,0,1.287,6.698,2.766,11.456c1.656,5.328,5.393,11.204,11.082,12.531
					c2.354,0.549,4.85,0.35,7.158-0.367c0.68-0.211,1.36-0.475,1.905-0.933C340.359,297.144,340.219,296.122,339.534,295.159z"/>
			</g>
			<path style="fill:#27DEBF;" d="M321.016,198.869c0,0-1.005-0.204-2.672,3.665c-1.667,3.868-2.602,8.32-3.271,11.531
				c-0.669,3.211-3.872,20.128-3.872,27.397c0,7.27,2.169,21.876,4.96,34.325c3.476,0.355,9.455-0.542,11.457-2.83
				c-1.306-12.421-2.408-18.804-2.103-28.579c1.981-14.499,7.87-29.692,8.119-31.38
				C334.182,209.289,328.321,197.629,321.016,198.869z"/>
			<path style="opacity:0.65;fill:#FFFFFF;" d="M321.016,198.869c0,0-1.005-0.204-2.672,3.665c-1.667,3.868-2.602,8.32-3.271,11.531
				c-0.669,3.211-3.872,20.128-3.872,27.397c0,7.27,2.169,21.876,4.96,34.325c3.476,0.355,9.455-0.542,11.457-2.83
				c-1.306-12.421-2.408-18.804-2.103-28.579c1.981-14.499,7.87-29.692,8.119-31.38
				C334.182,209.289,328.321,197.629,321.016,198.869z"/>
			<path style="opacity:0.1;" d="M316.271,259.999c-1.737-8.498-4.592-25.136-2.637-38.231c-1.12,6.435-2.433,15.04-2.433,19.694
				c0,7.27,2.169,21.876,4.96,34.325c1.18,0.121,2.65,0.093,4.154-0.081C319.113,271.598,317.342,265.239,316.271,259.999z"/>
			<path style="fill:#27DEBF;" d="M314.936,269.694c2.842,0.179,7.895-0.626,9.967-1.982c0,0-3.684,1.626-10.193,0.696
				L314.936,269.694z"/>
			<path style="opacity:0.1;" d="M314.936,269.694c2.842,0.179,7.895-0.626,9.967-1.982c0,0-3.684,1.626-10.193,0.696
				L314.936,269.694z"/>
		</g>
		<g id="Shield_3_">
			<g>
				<path style="fill:#EBEBEB;" d="M364.793,145.632c0.006-0.081-0.012-0.132-0.047-0.152c0-0.001,0.001-0.001,0.001-0.001
					l-0.005-0.004c-0.038-0.018-0.286-0.178-0.322-0.199c0-0.001,0.001-0.001,0.001-0.001l-0.005-0.003
					c-0.038-0.019-0.095-0.004-0.164,0.045c-0.695,0.495-1.632,0.59-2.33,0.253c-0.095-0.075-0.183-0.161-0.26-0.258
					c-0.004-0.005-0.008-0.01-0.012-0.014h-0.001c-0.022-0.026-0.044-0.046-0.067-0.059c0,0-0.303-0.19-0.326-0.203l-0.011-0.007
					c-0.075-0.039-0.146-0.004-0.195,0.107c-0.698,1.576-2.123,3.148-3.051,3.522c-0.069,0.028-0.133,0.072-0.185,0.128
					c-0.067,0.072-0.11,0.163-0.11,0.258c-0.07,2.054,0.943,5.376,3.038,6.546c0.124,0.087,0.251,0.166,0.383,0.236
					C364.162,152.902,364.71,148.067,364.793,145.632z"/>
				<path style="fill:#E0E0E0;" d="M360.737,155.589c-2.092-1.171-3.104-4.49-3.034-6.543c0-0.056,0.016-0.108,0.041-0.158
					l0.325,0.203c-0.025,0.049-0.04,0.102-0.04,0.158C357.962,151.193,358.864,154.272,360.737,155.589z"/>
			</g>
			<path id="XMLID_263_" style="fill:#FAFAFA;" d="M364.793,145.632c-0.083,2.435-0.631,7.27-3.668,10.196
				c-2.135-1.14-3.167-4.506-3.096-6.579c0-0.096,0.043-0.186,0.11-0.258c0.051-0.056,0.116-0.1,0.185-0.128
				c0.928-0.374,2.354-1.946,3.051-3.522c0.05-0.111,0.12-0.146,0.195-0.107l0,0l0.011,0.007c0.022,0.013,0.045,0.033,0.067,0.059
				h0.001c0.004,0.004,0.008,0.009,0.012,0.014c0.655,0.818,1.997,0.863,2.916,0.208c0.07-0.049,0.127-0.064,0.165-0.045
				l0.005,0.004c0,0-0.001,0-0.001,0.001C364.781,145.501,364.799,145.551,364.793,145.632z"/>
			<path style="fill:#F0F0F0;" d="M361.57,145.233c-0.075-0.039-0.146-0.004-0.195,0.107c-0.698,1.576-2.123,3.148-3.051,3.522
				c-0.069,0.028-0.133,0.072-0.185,0.128c-0.067,0.072-0.11,0.163-0.11,0.258c-0.071,2.074,0.961,5.439,3.096,6.579
				C362.776,150.237,361.57,145.233,361.57,145.233z"/>
		</g>
	</g>
</g>
<g id="Speech_Bubble">
	<g id="Speech_Bubble_3_">
		<g id="Speech_Bubble_4_">
			<path id="XMLID_335_" style="fill:#27DEBF;" d="M349.856,129.95l-5.457-12.436l4.391-12.674v-7.758l-13.437,7.758v7.758
				l5.777,12.181c0.098,0.169,0.238,0.28,0.393,0.349l-0.003,0.005L349.856,129.95z"/>
			<path id="XMLID_334_" style="opacity:0.2;" d="M349.856,129.95l-5.457-12.436l4.391-12.674v-7.758l-13.437,7.758v7.758
				l5.777,12.181c0.098,0.169,0.238,0.28,0.393,0.349l-0.003,0.005L349.856,129.95z"/>
			<path id="XMLID_333_" style="fill:#27DEBF;" d="M390.067,55.139c0-2.569-1.803-5.693-4.028-6.978l-3.28-1.893
				c-2.225-1.285-5.832-1.285-8.057,0l-77.089,44.588c-2.225,1.285-4.029,4.408-4.029,6.978v30.765c0,2.57,1.804,5.693,4.029,6.978
				l3.28,1.894c2.225,1.285,5.832,1.285,8.058,0l34.84-19.986l5.765,12.161c0.368,0.639,1.317,0.548,1.558-0.148l6.093-19.763
				l28.833-16.851c2.225-1.284,4.028-4.408,4.028-6.978L390.067,55.139z"/>
			<path id="XMLID_328_" style="opacity:0.2;" d="M293.584,128.6c0,2.57,1.804,5.693,4.029,6.978l3.28,1.894
				c2.011,1.161,5.141,1.262,7.369,0.325c-1.896,0.717-3.34-0.353-3.34-2.65l-0.001-30.766c0-1.285,0.451-2.708,1.18-3.971
				l-11.337-6.546c-0.729,1.262-1.18,2.686-1.18,3.97V128.6z"/>
			<path id="XMLID_326_" style="opacity:0.5;fill:#FFFFFF;" d="M389.936,53.994c-0.47-1.71-2.03-2.255-3.89-1.184l-77.098,44.595
				c-1.108,0.639-2.123,1.729-2.838,3.007l-11.333-6.541c0.733-1.278,1.729-2.368,2.838-3.007l77.08-44.595
				c2.236-1.278,5.845-1.278,8.063,0l3.289,1.899C387.944,49.258,389.541,51.701,389.936,53.994z"/>
		</g>
		<g>
			<path style="fill:#455A64;" d="M310.482,123.128v-16.252c0-0.363,0.05-0.654,0.152-0.874c0.099-0.222,0.257-0.395,0.469-0.516
				l4.607-2.661c0.168-0.095,0.29-0.064,0.368,0.097c0.078,0.161,0.118,0.465,0.118,0.912v0.8c0,0.448-0.04,0.798-0.118,1.05
				c-0.078,0.25-0.2,0.425-0.368,0.52l-2.613,1.509v3.768l2.462-1.422c0.167-0.098,0.291-0.066,0.369,0.095
				c0.078,0.161,0.117,0.466,0.117,0.913v0.8c0,0.448-0.038,0.797-0.117,1.049c-0.078,0.251-0.203,0.426-0.369,0.522l-2.462,1.422
				v6.76c0,0.551-0.324,1.013-0.973,1.387l-0.669,0.387C310.806,123.766,310.482,123.679,310.482,123.128z"/>
			<path style="fill:#455A64;" d="M317.251,110.964c0-6.156,1.464-10.08,4.39-11.77c1.43-0.826,2.517-0.704,3.259,0.363
				c0.744,1.067,1.115,3.183,1.115,6.347s-0.371,5.709-1.115,7.636c-0.743,1.925-1.83,3.299-3.259,4.125
				C318.715,119.355,317.251,117.123,317.251,110.964z M322.631,113.199c0.245-0.485,0.429-1.19,0.552-2.113
				c0.123-0.921,0.184-2.14,0.184-3.653c0-1.496-0.061-2.634-0.184-3.414c-0.123-0.781-0.307-1.271-0.552-1.475
				c-0.248-0.201-0.571-0.187-0.973,0.045c-0.402,0.233-0.729,0.593-0.98,1.083c-0.251,0.49-0.442,1.197-0.571,2.121
				c-0.128,0.927-0.192,2.137-0.192,3.633c0,1.496,0.064,2.637,0.192,3.424c0.129,0.786,0.319,1.279,0.571,1.476
				c0.25,0.2,0.577,0.183,0.98-0.049C322.061,114.044,322.384,113.685,322.631,113.199z"/>
			<path style="fill:#455A64;" d="M327.556,113.27V97.018c0-0.363,0.053-0.654,0.159-0.879c0.107-0.225,0.277-0.405,0.512-0.54
				l2.797-1.615c1.029-0.593,1.855-0.68,2.48-0.259c0.626,0.424,0.939,1.545,0.939,3.367c0,2.012-0.531,3.772-1.593,5.281v0.103
				c0.248,0.062,0.47,0.278,0.671,0.643c0.201,0.365,0.352,0.794,0.453,1.287l0.989,4.382l0.05,0.281
				c0,0.463-0.347,0.895-1.039,1.295l-0.587,0.339c-0.592,0.341-0.928,0.304-1.006-0.115l-0.887-4.389
				c-0.101-0.32-0.216-0.52-0.344-0.601c-0.129-0.081-0.332-0.04-0.612,0.122l-0.402,0.232v5.829c0,0.551-0.334,1.019-1.005,1.406
				l-0.569,0.33C327.891,113.903,327.556,113.821,327.556,113.27z M331.075,101.642c0.245-0.142,0.455-0.451,0.628-0.931
				c0.173-0.479,0.261-1.08,0.261-1.8c0-0.723-0.087-1.202-0.261-1.438c-0.172-0.236-0.399-0.273-0.678-0.111l-0.888,0.512v4.309
				L331.075,101.642z"/>
			<path style="fill:#455A64;" d="M336.353,108.72c-0.101-0.105-0.151-0.339-0.151-0.699V92c0-0.344,0.05-0.628,0.151-0.849
				c0.099-0.221,0.257-0.393,0.469-0.515l3-1.732c2.346-1.356,3.519-0.578,3.519,2.327c0,1.926-0.504,3.636-1.508,5.126l0.016,0.095
				c0.569-0.071,1.017,0.169,1.34,0.721c0.324,0.552,0.487,1.38,0.487,2.48c0,1.532-0.322,2.946-0.964,4.246
				c-0.643,1.299-1.589,2.31-2.84,3.033l-3.05,1.761C336.61,108.817,336.453,108.825,336.353,108.72z M339.838,96.248
				c0.357-0.206,0.622-0.536,0.797-0.989c0.174-0.452,0.26-1.056,0.26-1.814c0-0.74-0.082-1.222-0.244-1.447
				c-0.162-0.225-0.422-0.233-0.779-0.026l-1.19,0.686v4.258L339.838,96.248z M339.956,103.763c0.413-0.238,0.718-0.594,0.913-1.068
				c0.196-0.474,0.293-1.124,0.293-1.95c0-0.79-0.095-1.299-0.285-1.525c-0.189-0.225-0.497-0.216-0.921,0.029l-1.274,0.735v4.515
				L339.956,103.763z"/>
			<path style="fill:#455A64;" d="M345.15,103.112v-16.51c0-0.567,0.323-1.038,0.973-1.413l0.703-0.406
				c0.637-0.368,0.955-0.266,0.955,0.301v16.51c0,0.568-0.318,1.035-0.955,1.403l-0.703,0.405
				C345.473,103.777,345.15,103.68,345.15,103.112z"/>
			<path style="fill:#455A64;" d="M349.775,100.971c-0.101-0.105-0.152-0.339-0.152-0.699V84.277c0-0.361,0.052-0.653,0.152-0.874
				c0.099-0.222,0.257-0.393,0.469-0.516l3.184-1.838c1.451-0.838,2.521-0.707,3.208,0.392c0.688,1.099,1.031,3.164,1.031,6.191
				c0,3.026-0.343,5.485-1.031,7.379c-0.687,1.893-1.757,3.258-3.208,4.096l-3.184,1.838
				C350.032,101.068,349.875,101.077,349.775,100.971z M353.345,95.776c0.592-0.342,1.016-1.011,1.272-2.012
				c0.257-0.998,0.385-2.531,0.385-4.594c0-2.065-0.128-3.447-0.385-4.152c-0.257-0.702-0.68-0.884-1.272-0.543l-1.074,0.62v11.301
				L353.345,95.776z"/>
			<path style="fill:#455A64;" d="M359.444,95.39c-0.101-0.106-0.151-0.339-0.151-0.699V78.695c0-0.363,0.05-0.654,0.151-0.874
				c0.099-0.222,0.257-0.395,0.469-0.516l3.184-1.838c1.452-0.839,2.522-0.708,3.208,0.392c0.688,1.099,1.031,3.163,1.031,6.189
				c0,3.026-0.343,5.485-1.031,7.381c-0.686,1.892-1.755,3.257-3.208,4.096l-3.184,1.838
				C359.701,95.485,359.543,95.494,359.444,95.39z M363.013,90.193c0.592-0.341,1.015-1.011,1.272-2.011
				c0.257-1,0.385-2.531,0.385-4.595c0-2.064-0.128-3.448-0.385-4.15c-0.257-0.703-0.681-0.884-1.272-0.543l-1.074,0.62v11.3
				L363.013,90.193z"/>
			<path style="fill:#455A64;" d="M369.112,89.807c-0.101-0.105-0.151-0.339-0.151-0.699V73.112c0-0.361,0.05-0.653,0.151-0.874
				c0.101-0.221,0.257-0.393,0.469-0.515l4.944-2.854c0.167-0.097,0.29-0.063,0.369,0.095c0.078,0.162,0.116,0.466,0.116,0.914v0.8
				c0,0.448-0.038,0.797-0.116,1.049c-0.079,0.251-0.203,0.425-0.369,0.522l-2.95,1.703v3.741l2.615-1.509
				c0.167-0.097,0.29-0.064,0.368,0.098c0.078,0.162,0.118,0.463,0.118,0.911v0.8c0,0.447-0.04,0.797-0.118,1.048
				c-0.078,0.251-0.201,0.426-0.368,0.523l-2.615,1.509v4.178l2.967-1.712c0.167-0.098,0.286-0.063,0.36,0.101
				c0.071,0.165,0.109,0.471,0.109,0.919v0.8c0,0.448-0.037,0.794-0.109,1.043c-0.074,0.249-0.193,0.421-0.36,0.516l-4.961,2.865
				C369.369,89.903,369.213,89.911,369.112,89.807z"/>
			<path style="fill:#455A64;" d="M376.534,84.992V68.483c0-0.551,0.323-1.011,0.972-1.388l0.436-0.251
				c0.222-0.127,0.403-0.183,0.536-0.167c0.134,0.016,0.245,0.147,0.336,0.387l3.014,6.67c0.158,0.356,0.347,0.916,0.571,1.683
				l0.068-0.091c-0.091-0.842-0.135-1.496-0.135-1.961v-8.229c0-0.549,0.324-1.011,0.972-1.386l0.402-0.232
				c0.647-0.375,0.972-0.286,0.972,0.263v16.51c0,0.551-0.324,1.013-0.972,1.388l-0.319,0.184c-0.224,0.13-0.406,0.188-0.552,0.177
				s-0.264-0.138-0.352-0.379l-3.2-6.923c-0.101-0.2-0.252-0.663-0.453-1.389l-0.084,0.124c0.089,0.74,0.134,1.3,0.134,1.676v8.489
				c0,0.551-0.324,1.013-0.973,1.387l-0.401,0.23C376.857,85.633,376.534,85.542,376.534,84.992z"/>
		</g>
	</g>
</g>
<g id="Plant">
	<g id="Pot_1_">
		<g id="Pot_2_">
			<g id="XMLID_2_">
				<g id="XMLID_3_">
					<g id="XMLID_4_">
						<g id="XMLID_13_">
							<path id="XMLID_14_" style="fill:#455A64;" d="M124.696,425.236c8.415-8.683,13.359-44.023,5.151-50.91H88.083
								c-8.206,6.885-3.268,42.212,5.142,50.902c0.072,0.081,0.155,0.159,0.23,0.239c0.096,0.096,0.193,0.194,0.29,0.286
								c0.238,0.233,0.49,0.461,0.761,0.684c0.066,0.056,0.134,0.105,0.201,0.16c0.206,0.163,0.41,0.328,0.635,0.485
								c0.359,0.257,0.721,0.497,1.088,0.703c6.923,4.042,18.146,4.042,25.068,0l0,0l0.001,0c0.37-0.207,0.734-0.449,1.095-0.708
								c0.21-0.147,0.398-0.3,0.591-0.452c0.083-0.066,0.166-0.128,0.249-0.197c0.261-0.216,0.504-0.436,0.734-0.66
								c0.113-0.107,0.224-0.219,0.334-0.331C124.566,425.37,124.636,425.304,124.696,425.236z"/>
						</g>
						<g id="XMLID_11_">
							<path id="XMLID_12_" style="fill:#455A64;" d="M91.709,371.552c-9.529,5.564-9.529,14.584,0,20.148
								c9.529,5.564,24.979,5.564,34.509,0c9.529-5.563,9.529-14.584-0.001-20.147C116.689,365.988,101.239,365.988,91.709,371.552z
								"/>
						</g>
						<g id="XMLID_9_" style="opacity:0.1;">
							<path id="XMLID_10_" style="fill:#FFFFFF;" d="M91.709,371.552c-9.529,5.564-9.529,14.584,0,20.148
								c9.529,5.564,24.979,5.564,34.509,0c9.529-5.563,9.529-14.584-0.001-20.147C116.689,365.988,101.239,365.988,91.709,371.552z
								"/>
						</g>
						<g id="XMLID_7_">
							<path id="XMLID_8_" style="fill:#263238;" d="M96.293,374.227c-6.998,4.086-6.998,10.71,0,14.796
								c6.998,4.086,18.344,4.086,25.342,0c6.998-4.086,6.998-10.71,0-14.796C114.637,370.142,103.291,370.142,96.293,374.227z"/>
						</g>
						<g id="XMLID_5_">
							<path id="XMLID_6_" style="fill:#F5F5F5;" d="M121.635,381.25c-6.998-4.086-18.344-4.086-25.342,0
								c-1.944,1.135-3.327,2.469-4.192,3.887c0.864,1.418,2.248,2.752,4.192,3.887c6.998,4.086,18.344,4.086,25.342,0
								c1.944-1.135,3.328-2.469,4.192-3.887C124.963,383.718,123.579,382.385,121.635,381.25z"/>
						</g>
					</g>
				</g>
			</g>
		</g>
		<g id="Plants_1_">
			<g id="XMLID_1_">
				<path style="fill:#27DEBF;" d="M85.813,305.769l16.699,11.426l-15.793-5.982c0,0-0.126,5.524,3.121,12.134
					c0,0,10.43,5.067,16.098,10.403l-13.892-4.368c0,0-0.753,2.96,0.431,7.255c0.09,0.323,0.188,0.655,0.296,0.987
					c0.735,2.215,1.785,6.421,3.56,11.399c0,0.009,0,0.009,0.009,0.009c1.39,3.91,3.238,8.305,5.74,12.556
					c1.13,1.928,2.394,3.82,3.82,5.641c0.081,0.117,0.17,0.224,0.26,0.341c2.574-1.722,5.256-3.408,8.045-5.049
					c1.605-4.098,3.372-14.062,3.695-22.142c1.211-30.932-23.237-46.886-42.312-51.469C75.59,288.908,82.567,296.496,85.813,305.769
					z"/>
				<path style="opacity:0.3;" d="M85.813,305.769l16.699,11.426l-15.793-5.982c0,0-0.126,5.524,3.121,12.134
					c0,0,10.43,5.067,16.098,10.403l-13.892-4.368c0,0-0.753,2.96,0.431,7.255c0.09,0.323,0.188,0.655,0.296,0.987
					c0.735,2.215,1.785,6.421,3.56,11.399c0,0.009,0,0.009,0.009,0.009c1.39,3.91,3.238,8.305,5.74,12.556
					c1.13,1.928,2.394,3.82,3.82,5.641c0.081,0.117,0.17,0.224,0.26,0.341c2.574-1.722,5.256-3.408,8.045-5.049
					c1.605-4.098,3.372-14.062,3.695-22.142c1.211-30.932-23.237-46.886-42.312-51.469C75.59,288.908,82.567,296.496,85.813,305.769
					z"/>
				<path style="fill:#FAFAFA;" d="M99.128,306.12c1.762,1.465,3.099,3.336,4.344,5.233c1.15,1.963,2.201,3.985,3.054,6.095
					c1.738,4.203,2.96,8.61,3.744,13.082c1.577,8.94,1.192,18.25-1.469,26.888l-0.003,0.01c-0.073,0.235,0.059,0.485,0.295,0.557
					c0.235,0.072,0.485-0.059,0.557-0.295c0-0.002,0.002-0.005,0.002-0.007c2.569-8.848,2.789-18.259,1.057-27.233
					c-0.862-4.49-2.163-8.898-3.977-13.09c-0.891-2.104-1.979-4.117-3.164-6.067C102.285,309.41,100.913,307.556,99.128,306.12z"/>
			</g>
			<g>
				<path style="fill:#27DEBF;" d="M157.523,321.568c0,0-0.007,0.01-0.023,0.023c-0.378,0.487-6.29,5.643-15.362,21.073
					l-18.391,4.618l14.968,1.347l-6.885,12.02l-15.695,3.885l12.433,1.531c0,0-2.963,12.189-11.612,17.559
					c-4.774,2.964-7.145,3.479-8.664,2.143c-1.062-0.934-1.525-6.708-2.579-11.836c-1.054-5.128-1.449-13.519,3.03-23.834
					c1.19-2.743,2.821-5.292,4.775-7.639C124.715,328.973,146.583,321.833,157.523,321.568z"/>
				<path style="opacity:0.15;" d="M157.523,321.568c0,0-0.007,0.01-0.023,0.023c-0.378,0.487-6.29,5.643-15.362,21.073
					l-18.391,4.618l14.968,1.347l-6.885,12.02l-15.695,3.885l12.433,1.531c0,0-2.963,12.189-11.612,17.559
					c-4.774,2.964-7.145,3.479-8.664,2.143c-1.062-0.934-1.525-6.708-2.579-11.836c-1.054-5.128-1.449-13.519,3.03-23.834
					c1.19-2.743,2.821-5.292,4.775-7.639C124.715,328.973,146.583,321.833,157.523,321.568z"/>
				<path style="opacity:0.1;" d="M112.168,355.34c-0.009,0.002-0.007,0.011-0.007,0.011c0.002,0.009,0.002,0.009-0.005,0.02
					c-1.837,4.491-2.749,9.219-3.169,13.437c0.002,0.009-0.007,0.01-0.007,0.01l0.002,0.009c-0.256,2.623-0.249,12.398,0.221,17.452
					c-0.332-0.117-0.641-0.273-0.91-0.51c-1.062-0.934-1.525-6.708-2.58-11.835c-1.054-5.128-1.449-13.519,3.03-23.834
					c1.19-2.743,2.821-5.292,4.775-7.639c11.197-13.486,33.065-20.625,44.005-20.89c-16.68,3.396-34.291,15.264-42.704,28.596
					C113.771,351.828,112.908,353.555,112.168,355.34z"/>
				<path style="fill:#FAFAFA;" d="M140.907,327.48c-8.171,3.969-15.845,9.278-21.764,16.311c-2.954,3.495-5.49,7.4-7.216,11.665
					c-1.711,4.263-2.751,8.788-2.986,13.346c-0.001,0.025,0.018,0.046,0.042,0.047c0.023,0.001,0.043-0.016,0.047-0.038
					c0.743-4.493,1.892-8.884,3.718-13.007c1.794-4.125,4.1-8.041,6.945-11.558c2.844-3.515,6.16-6.647,9.756-9.407
					c3.59-2.774,7.463-5.182,11.498-7.278c0.022-0.011,0.031-0.038,0.02-0.06C140.956,327.479,140.929,327.47,140.907,327.48z"/>
			</g>
			<g>
				<path style="fill:#27DEBF;" d="M60.051,333.254L60.051,333.254c1.203-0.093,2.566-0.106,4.052-0.038
					c4.456,0.205,10.014,1.148,15.67,2.906c1.885,0.586,3.782,1.262,5.652,2.032c0.935,0.385,1.864,0.793,2.781,1.225
					c4.587,2.16,8.894,4.912,12.341,8.301c1.703,1.67,3.181,3.51,4.396,5.505c0.158,0.26,0.328,0.513,0.477,0.778
					c0.001,0.002,0.002,0.004,0.003,0.005c0.385,0.687,0.732,1.363,1.063,2.033c3.843,7.532,4.428,12.876,4.542,18.831
					c0.088,4.619-1.188,9.976-2.037,10.891c-0.117,0.125-0.247,0.229-0.385,0.32c-1.268,0.91-3.385,0.538-7.413-1.431
					c-8.071-3.945-11.759-14.866-11.759-14.866l10.78-2.451l-14.126-2.015l-6.166-8.538l10.337-2.478l-14.313-1.397
					c-9.338-12.741-15.497-19.203-15.873-19.597C60.058,333.262,60.051,333.254,60.051,333.254L60.051,333.254z"/>
				<path style="opacity:0.05;" d="M64.103,333.216c4.456,0.205,10.014,1.148,15.67,2.906c1.885,0.586,3.782,1.262,5.652,2.032
					c0.935,0.385,1.864,0.793,2.781,1.225c4.587,2.16,8.894,4.912,12.341,8.301c1.703,1.67,3.181,3.51,4.396,5.505
					c0.158,0.26,0.328,0.513,0.477,0.778c0.001,0.002,0.002,0.004,0.003,0.005c0.385,0.687,0.732,1.363,1.063,2.033
					c3.843,7.532,4.428,12.876,4.542,18.831c0.088,4.619-1.188,9.976-2.037,10.891c-0.117,0.125-0.247,0.229-0.385,0.32
					c-0.244,0.175-0.531,0.287-0.844,0.365c0.569-7.201-3.95-25.129-9.685-32.289c-5.968-7.449-19.728-17.968-38.003-20.848
					l0.014-0.019C61.282,333.162,62.632,333.148,64.103,333.216z"/>
				<path style="fill:#FAFAFA;" d="M107.806,386.409c0.093-5.3-0.63-10.599-1.901-15.75c-1.334-5.13-3.196-10.179-6.074-14.699
					c-1.443-2.268-3.236-4.273-5.133-6.145c-1.9-1.876-3.975-3.563-6.136-5.119c-4.354-3.066-9.077-5.616-14.07-7.407
					c-0.023-0.008-0.049,0.004-0.057,0.027c-0.008,0.022,0.003,0.046,0.023,0.056c4.785,2.258,9.373,4.888,13.579,8.046
					c2.11,1.564,4.146,3.23,6.049,5.035c1.905,1.801,3.702,3.729,5.15,5.902c2.89,4.372,4.83,9.35,6.238,14.42
					c1.377,5.087,2.217,10.346,2.243,15.636c0,0.025,0.02,0.045,0.044,0.045C107.786,386.453,107.805,386.433,107.806,386.409z"/>
			</g>
		</g>
	</g>
</g>
</svg>
