<?xml version="1.0" standalone="no"?><!DOCTYPE svg PUBLIC "-//W3C//DTD SVG 1.1//EN" "http://www.w3.org/Graphics/SVG/1.1/DTD/svg11.dtd"><svg t="1699494837153" class="icon" viewBox="0 0 1024 1024" version="1.1" xmlns="http://www.w3.org/2000/svg" p-id="5749" xmlns:xlink="http://www.w3.org/1999/xlink" width="200" height="200"><path d="M512 896c-215.3 0-390.4-175.1-390.4-390.4 0-137.1 71-261.8 189.8-333.4 17.7-10.6 40.9-5 51.6 12.8 10.7 17.8 5.1 40.9-12.8 51.7-96.1 57.9-153.4 158.5-153.4 269 0 173.7 141.4 315.1 315.1 315.1S827 679.4 827 505.7c0-110.5-57.3-211.1-153.4-269-17.8-10.7-23.5-33.8-12.9-51.7 10.9-17.8 34-23.4 51.7-12.8 118.8 71.6 189.8 196.3 189.8 333.4C902.4 720.9 727.3 896 512 896z" fill="#231815" p-id="5750"></path><path d="M512 523.9c-20.8 0-37.6-16.8-37.6-37.6V165.6c0-20.8 16.8-37.6 37.6-37.6s37.6 16.8 37.6 37.6v320.6c0.1 20.8-16.8 37.7-37.6 37.7z" fill="#231815" p-id="5751"></path></svg>