<?xml version="1.0" standalone="no"?><!DOCTYPE svg PUBLIC "-//W3C//DTD SVG 1.1//EN" "http://www.w3.org/Graphics/SVG/1.1/DTD/svg11.dtd"><svg t="1653530079615" class="icon" viewBox="0 0 1024 1024" version="1.1" xmlns="http://www.w3.org/2000/svg" p-id="6513" xmlns:xlink="http://www.w3.org/1999/xlink" width="200" height="200"><defs><style type="text/css"></style></defs><path d="M611.84 168.96c-11.434667 24.234667-17.408 51.029333-17.408 78.677333 0 49.322667 19.114667 95.402667 53.930667 130.218667 34.645333 34.645333 80.896 53.930667 130.218667 53.930667 27.648 0 54.442667-5.973333 78.677333-17.578667-32.768 33.109333-76.8 51.029333-123.050667 51.029333-12.117333 0-24.234667-1.365333-36.010667-3.754667-18.944-4.096-39.082667 1.877333-52.906667 15.701333L309.76 812.544c-1.706667-52.394667-44.032-94.549333-96.426667-96.426667l335.189333-335.36c13.824-13.824 19.797333-33.621333 15.701333-52.906667-12.117333-57.856 5.461333-117.418667 47.445333-158.890667L611.84 168.96zM670.378667 674.645333l184.32 184.32c10.24 10.24 10.24 26.965333 0 37.034667-10.069333 10.069333-26.965333 10.069333-37.034667 0l-184.32-184.32L670.378667 674.645333zM710.997333 62.976c-4.266667 0-8.704 0.512-13.141333 1.024-130.56 20.48-217.429333 145.92-190.122667 275.968L120.832 727.04c-49.322667 49.152-49.322667 129.194667 0 178.176 48.981333 48.981333 129.365333 48.981333 178.176 0L686.08 518.144c130.048 27.136 255.658667-59.392 275.797333-190.122667 4.949333-31.402667-7.68-49.322667-24.234667-49.322667-7.68 0-16.042667 3.754667-24.234667 11.776l-46.08 46.08c-48.981333 48.981333-129.365333 48.981333-178.346667 0-49.322667-49.322667-49.322667-129.194667 0-178.346667 0 0 20.650667-20.650667 46.08-46.08C758.101333 89.258667 746.666667 62.805333 710.997333 62.976L710.997333 62.976zM180.224 845.824c-26.624-26.624-7.168-71.68 29.696-71.68s56.661333 45.056 29.866667 71.68C223.232 862.208 196.608 862.208 180.224 845.824zM120.490667 102.229333 60.928 161.621333l74.24 104.106667 62.293333 32.768 145.749333 145.749333 59.392-59.392L257.194667 238.933333l-32.768-62.293333L120.490667 102.229333 120.490667 102.229333zM655.530667 607.573333l-89.088 89.088c-8.192 8.192-8.192 21.504 0 29.696l210.432 210.432c32.768 32.597333 86.186667 32.768 118.954667 0 32.768-32.768 32.768-86.186667 0-118.954667L685.397333 607.402667C677.034667 599.210667 663.893333 599.210667 655.530667 607.573333L655.530667 607.573333z" p-id="6514"></path></svg>