<?xml version="1.0" standalone="no"?><!DOCTYPE svg PUBLIC "-//W3C//DTD SVG 1.1//EN" "http://www.w3.org/Graphics/SVG/1.1/DTD/svg11.dtd"><svg t="1652685647009" class="icon" viewBox="0 0 1024 1024" version="1.1" xmlns="http://www.w3.org/2000/svg" p-id="17991" xmlns:xlink="http://www.w3.org/1999/xlink" width="200" height="200"><defs><style type="text/css"></style></defs><path d="M851.2 1024H172.8c-76.8 0-140.8-64-140.8-140.8V147.2C32 70.4 96 6.4 172.8 6.4h672c76.8 0 140.8 64 140.8 140.8V576c0 19.2-19.2 38.4-38.4 38.4s-32-19.2-32-38.4V147.2c0-38.4-32-64-64-64H172.8c-38.4 0-64 32-64 64v736c0 38.4 32 64 64 64h672c38.4 0 64-32 64-64v-128c0-19.2 19.2-38.4 38.4-38.4s38.4 19.2 38.4 38.4v128c6.4 76.8-57.6 140.8-134.4 140.8z" p-id="17992"></path><path d="M422.4 377.6l-19.2-6.4s-6.4 0-6.4-6.4-6.4-12.8 0-12.8v-6.4l6.4-6.4h6.4l6.4-6.4h6.4c6.4 0 6.4-12.8 6.4-19.2l-6.4-12.8c-6.4-6.4-12.8-12.8-25.6-6.4h-6.4l-6.4 6.4h-19.2l-6.4-6.4v-32c0-6.4 0-19.2-12.8-19.2h-6.4c-6.4 0-19.2 0-19.2 12.8v12.8l-6.4 6.4h-12.8c-6.4 0-6.4 0-6.4-6.4v-6.4L281.6 256v-6.4c-6.4 0-12.8-6.4-25.6 0l-12.8 6.4c-6.4 0-6.4 12.8-6.4 19.2v6.4l6.4 12.8v6.4c0 6.4-6.4 6.4-6.4 12.8h-32c0-6.4-12.8 0-12.8 6.4l-6.4 12.8c0 6.4 0 19.2 12.8 19.2h6.4l12.8 6.4c6.4 6.4 6.4 12.8 6.4 19.2l-6.4 6.4h-6.4l-6.4 6.4h-6.4c-6.4 6.4-12.8 19.2-6.4 25.6l6.4 12.8c6.4 6.4 12.8 12.8 19.2 6.4h6.4l12.8-6.4h6.4c6.4 0 12.8 6.4 12.8 6.4v25.6c0 6.4 0 19.2 12.8 19.2l12.8 6.4c6.4 0 19.2 0 19.2-12.8V454.4s0-6.4 6.4-6.4H326.4s6.4 0 6.4 6.4v6.4l6.4 6.4v6.4c6.4 6.4 12.8 12.8 19.2 6.4l12.8-6.4c12.8 0 12.8-12.8 12.8-19.2V448l-6.4-6.4c0-6.4 0-19.2 6.4-19.2h32c6.4 0 19.2 0 19.2-12.8l6.4-12.8-19.2-19.2z m-76.8 0c-6.4 19.2-25.6 25.6-44.8 19.2-19.2-6.4-32-25.6-25.6-44.8s25.6-25.6 44.8-19.2c19.2 6.4 32 25.6 25.6 44.8zM601.6 256c0-6.4-6.4-12.8-12.8-12.8H576c-6.4 0-6.4 0-12.8-6.4v-6.4-6.4l6.4-6.4c6.4-6.4 0-12.8 0-19.2L563.2 192h-19.2l-6.4 12.8h-6.4-6.4l-6.4-6.4v-12.8c0-6.4-6.4-12.8-12.8-12.8h-12.8c-6.4 6.4-6.4 12.8-12.8 19.2V211.2l-6.4 6.4h-6.4l-6.4-12.8h-19.2l-6.4 6.4c-6.4 6.4 0 12.8 0 19.2l6.4 6.4v12.8s-6.4 0-6.4 6.4h-12.8s-6.4 6.4-6.4 12.8v12.8c0 6.4 6.4 12.8 12.8 12.8h12.8l6.4 6.4v6.4l-6.4 6.4v19.2l6.4 6.4c6.4 6.4 12.8 0 19.2 0l6.4-6.4h12.8V352c0 6.4 6.4 12.8 12.8 12.8H512c6.4 0 12.8-6.4 12.8-12.8v-12.8c6.4-12.8 12.8-19.2 12.8-19.2h6.4l6.4 6.4c6.4 6.4 12.8 0 19.2 0l12.8-6.4c6.4-6.4 0-12.8 0-12.8l-12.8-6.4v-6.4-12.8H588.8c6.4 0 12.8-6.4 12.8-12.8V256z m-76.8 25.6c-6.4 12.8-25.6 12.8-38.4 0-12.8-6.4-12.8-25.6 0-38.4 6.4-12.8 25.6-12.8 38.4 0 12.8 12.8 12.8 32 0 38.4zM806.4 294.4h-96c-19.2 0-38.4-19.2-38.4-38.4s19.2-38.4 38.4-38.4h96c19.2 0 38.4 19.2 38.4 38.4s-19.2 38.4-38.4 38.4zM806.4 480h-96c-19.2 0-38.4-19.2-38.4-38.4s19.2-38.4 38.4-38.4h96c19.2 0 38.4 19.2 38.4 38.4s-19.2 38.4-38.4 38.4zM806.4 665.6H224c-19.2 0-38.4-19.2-38.4-38.4s19.2-38.4 38.4-38.4h582.4c19.2 0 38.4 19.2 38.4 38.4s-19.2 38.4-38.4 38.4zM806.4 851.2H224c-19.2 0-38.4-19.2-38.4-38.4s19.2-38.4 38.4-38.4h582.4c19.2 0 38.4 19.2 38.4 38.4s-19.2 38.4-38.4 38.4z" p-id="17993"></path></svg>