<?xml version="1.0" standalone="no"?><!DOCTYPE svg PUBLIC "-//W3C//DTD SVG 1.1//EN" "http://www.w3.org/Graphics/SVG/1.1/DTD/svg11.dtd"><svg t="1652683316000" class="icon" viewBox="0 0 1024 1024" version="1.1" xmlns="http://www.w3.org/2000/svg" p-id="8855" xmlns:xlink="http://www.w3.org/1999/xlink" width="200" height="200"><defs><style type="text/css"></style></defs><path d="M367.65696 938.66496c-2.64192 0-5.32992-0.512-7.936-1.536-56.87296-22.69696-107.264-56.01792-149.67296-99.11296-166.656-168.48896-166.656-443.392 0-612.608 80.80896-82.08896 188.16-127.27296 302.24896-127.27296h0.47104c113.96096 0.128 220.96896 45.35296 301.35296 127.27296 101.76 103.33696 145.19808 250.624 116.31104 393.81504-2.39104 11.56096-13.73696 19.072-25.17504 16.68096a21.35552 21.35552 0 0 1-16.72192-25.088c26.112-129.36704-13.056-262.23104-104.87808-355.54304-72.27392-73.728-168.48896-114.38592-270.92992-114.51392h-0.43008c-102.60992 0-199.12192 40.65792-271.872 114.51392-150.35392 152.75008-150.35392 400.68608-0.04096 552.75008 38.31296 38.912 83.75296 68.992 135.168 89.6 10.92096 4.43392 16.256 16.84992 11.904 27.648a21.34528 21.34528 0 0 1-19.79904 13.39392z m420.78208-256h-168.832c-11.776 0-21.33504-9.6-21.33504-21.32992s9.55904-21.33504 21.33504-21.33504h168.832c11.776 0 21.32992 9.6 21.32992 21.33504s-9.55392 21.32992-21.32992 21.32992zM745.6 768h-168.48896c-11.73504 0-21.33504-9.6-21.33504-21.33504s9.6-21.32992 21.33504-21.32992h168.48896c11.776 0 21.33504 9.6 21.33504 21.32992S757.376 768 745.6 768z m0.64 170.66496h-169.81504c-11.72992 0-21.32992-9.6-21.32992-21.32992s9.6-21.33504 21.32992-21.33504h169.81504c11.73504 0 21.33504 9.6 21.33504 21.33504s-9.472 21.32992-21.33504 21.32992z m84.77696-85.32992h-168.65792c-11.73504 0-21.33504-9.6-21.33504-21.33504s9.6-21.33504 21.33504-21.33504h168.65792c11.776 0 21.33504 9.6 21.33504 21.33504s-9.55904 21.33504-21.33504 21.33504z m-160.512-595.75808a21.31456 21.31456 0 0 0-28.8 9.04704l-128.384 246.23104c-0.46592 0-0.84992-0.256-1.32096-0.256-7.424 0-14.08 2.47296-20.18304 5.92896L332.544 428.16a21.376 21.376 0 0 0-29.09696 8.02304 21.27872 21.27872 0 0 0 8.01792 29.056l158.08 89.68192c0 0.384-0.20992 0.72704-0.20992 1.07008 0 23.84896 19.24096 43.52 42.66496 43.52s42.66496-19.67104 42.66496-43.52c0-7.25504-2.21696-13.78304-5.32992-19.79904l130.21696-249.856c5.46304-10.40896 1.36704-23.33696-9.04704-28.75904z" fill="#272636" p-id="8856"></path></svg>